<?xml version="1.0" encoding="utf-8"?>
<!-- Generator: Adobe Illustrator 27.5.0, SVG Export Plug-In . SVG Version: 6.00 Build 0)  -->
<svg version="1.1" id="Calque_1" xmlns="http://www.w3.org/2000/svg" xmlns:xlink="http://www.w3.org/1999/xlink" x="0px" y="0px"
	 viewBox="0 0 19.8 19.6" style="enable-background:new 0 0 19.8 19.6;" xml:space="preserve">
<style type="text/css">
	.st0{fill:#FFFFFF;stroke:#000000;stroke-miterlimit:10;}
</style>
<path class="st0" d="M17.9,8.5c-2.3-0.1-4.6-0.1-6.9-0.1c0-2.1,0-4.3,0.2-6.4c0.1-0.8-0.7-1.5-1.5-1.5C8.8,0.5,8.2,1.2,8.2,2
	C8,4.2,8,6.3,8,8.5c-2,0-4,0.1-6,0.2c-1.9,0.1-1.9,3.1,0,3C4,11.6,6,11.5,8,11.5c0.1,2.1,0.2,4.1,0.4,6.2c0.1,0.8,0.6,1.5,1.5,1.5
	c0.7,0,1.6-0.7,1.5-1.5c-0.2-2.1-0.4-4.1-0.4-6.2c2.3,0,4.6,0,6.9,0.1C19.8,11.6,19.8,8.6,17.9,8.5z"/>
</svg>
