<?xml version="1.0" encoding="utf-8"?>
<!-- Generator: Adobe Illustrator 27.5.0, SVG Export Plug-In . SVG Version: 6.00 Build 0)  -->
<svg version="1.1" id="Calque_1" xmlns="http://www.w3.org/2000/svg" xmlns:xlink="http://www.w3.org/1999/xlink" x="0px" y="0px"
	 viewBox="0 0 25.2 24.2" style="enable-background:new 0 0 25.2 24.2;" xml:space="preserve">
<style type="text/css">
	.st0{fill:#FFFFFF;stroke:#000000;stroke-width:1.3178;stroke-miterlimit:10;}
</style>
<path class="st0" d="M16,3.6c0-0.1,0-0.3,0-0.4c0-0.4,0.1-0.5,0.5-0.5c0.6,0,1.3,0,1.9,0c0.4,0,0.5,0.1,0.5,0.5c0,0.9,0,1.8,0,2.7
	c0,0.5,0.2,0.9,0.6,1.3c1.6,1.6,3.2,3.2,4.8,4.8c0.2,0.2,0.3,0.5,0.2,0.8c-0.1,0.3-0.3,0.5-0.7,0.5c-0.4,0-0.9,0-1.3,0
	c-0.6,0-0.9,0.4-0.9,0.9c0,1.3,0,2.7,0,4c0,1.5,0,3,0,4.4c0,0.6-0.3,0.9-0.9,0.9c-1.4,0-2.8,0-4.2,0c-0.6,0-0.9-0.3-0.9-0.8
	c0-0.2,0-0.3,0-0.5c0-1.8,0-3.6,0-5.3c0-0.3,0-0.6,0-1c0-0.5-0.3-0.9-0.9-0.9c-1.4,0-2.9,0-4.3,0c-0.6,0-0.9,0.3-0.9,0.9
	c0,2.2,0,4.3,0,6.5c0,0.1,0,0.2,0,0.3c0,0.5-0.3,0.8-0.8,0.8c-1.5,0-3,0-4.4,0c-0.4,0-0.8-0.3-0.8-0.8c0-1.8,0-3.6,0-5.4
	c0-1,0-2,0-3.1c0-0.1,0-0.2,0-0.3c-0.1-0.4-0.3-0.6-0.7-0.6c-0.4,0-0.9,0-1.3,0c-0.6,0-1-0.5-0.8-1c0-0.2,0.2-0.3,0.3-0.4
	c1.4-1.4,2.8-2.8,4.2-4.2c2.2-2.2,4.4-4.4,6.6-6.6c0,0,0.1-0.1,0.2-0.1c0.5-0.5,0.9-0.5,1.4,0c0.7,0.7,1.4,1.5,2.2,2.2
	C15.6,3.4,15.8,3.5,16,3.6C16,3.6,16,3.6,16,3.6z"/>
</svg>
