<?xml version="1.0" encoding="utf-8"?>
<!-- Generator: Adobe Illustrator 27.5.0, SVG Export Plug-In . SVG Version: 6.00 Build 0)  -->
<svg version="1.1" id="Calque_1" xmlns="http://www.w3.org/2000/svg" xmlns:xlink="http://www.w3.org/1999/xlink" x="0px" y="0px"
	 viewBox="0 0 15 14.5" style="enable-background:new 0 0 15 14.5;" xml:space="preserve">
<style type="text/css">
	.st0{fill:#FFFFFF;}
</style>
<g>
	<path class="st0" d="M8.9,13.7c0,0-0.1,0-0.1,0c-0.2-0.1-0.4-0.3-0.4-0.5l0.5-8.3L1.1,2.5C0.9,2.4,0.7,2.2,0.8,2
		c0-0.2,0.2-0.4,0.5-0.4c0,0,11.9-0.3,11.9-0.3c0.2,0,0.3,0.1,0.4,0.2c0.1,0.1,0.1,0.3,0.1,0.5L9.4,13.4C9.3,13.6,9.1,13.7,8.9,13.7
		z"/>
	<g>
		<path d="M13.2,1.8L8.9,13.2l0.5-8.7L1.3,2L13.2,1.8 M13.2,0.8C13.2,0.8,13.2,0.8,13.2,0.8L1.3,1c-0.5,0-0.9,0.4-1,0.9
			C0.2,2.4,0.5,2.8,1,3l7.4,2.2l-0.4,7.9c0,0.5,0.3,0.9,0.8,1c0.1,0,0.1,0,0.2,0c0.4,0,0.8-0.3,0.9-0.7l4.3-11.5
			c0.1-0.3,0.1-0.7-0.1-0.9C13.8,0.9,13.5,0.8,13.2,0.8L13.2,0.8z M13.2,2.8L13.2,2.8L13.2,2.8L13.2,2.8z"/>
	</g>
</g>
</svg>
