<?xml version="1.0" encoding="utf-8"?>
<!-- Generator: Adobe Illustrator 27.5.0, SVG Export Plug-In . SVG Version: 6.00 Build 0)  -->
<svg version="1.1" id="Calque_1" xmlns="http://www.w3.org/2000/svg" xmlns:xlink="http://www.w3.org/1999/xlink" x="0px" y="0px"
	 viewBox="0 0 14.4 14.4" style="enable-background:new 0 0 14.4 14.4;" xml:space="preserve">
<style type="text/css">
	.st0{fill:#FFFFFF;}
</style>
<g>
	<path class="st0" d="M6.9,13.9c-1.4,0-2.7-0.5-3.8-1.4c-0.3-0.2-0.5-0.4-0.8-0.7C2,11.5,2,11,2.2,10.5C2.4,10,2.8,9.7,3.3,9.7
		c0.3,0,0.6,0.1,0.8,0.3l0.2,0.1c0.2,0.1,0.3,0.3,0.5,0.4C5.4,11,6,11.3,6.7,11.3c0.2,0,0.3,0,0.5,0c1.9,0,3.6-1.4,4.1-3.2
		C11.7,6,10.5,4,8.5,3.3C8.1,3.1,7.6,3,7.2,3C6.5,3,5.8,3.2,5.1,3.6c0,0-0.1,0-0.1,0.1l0.8,0.8C5.9,4.6,5.9,4.6,6,4.7
		C6.2,5,6.2,5.3,6.1,5.6C5.9,5.9,5.6,6.1,5.3,6.1c-0.2,0-0.5,0-0.7,0l-3.1,0C1.2,6.1,0.9,6,0.7,5.8C0.6,5.7,0.5,5.5,0.5,5.2
		c0-1.3,0-2.5,0-3.8c0-0.2,0.1-0.6,0.5-0.8c0.1-0.1,0.3-0.1,0.5-0.1c0.2,0,0.4,0.1,0.6,0.2C2.3,1,2.6,1.2,2.8,1.5l0.4,0.4
		c0,0,0.1-0.1,0.1-0.1c0.8-0.6,1.8-1,2.8-1.2c0.3-0.1,0.7-0.1,1-0.1c0.2,0,0.4,0,0.6,0c1.7,0.2,3.2,0.9,4.3,2.1
		c0.9,1,1.5,2.1,1.7,3.5c0,0.1,0,0.2,0,0.4l0,0.3v0.8l0,0.3c-0.1,0.7-0.3,1.4-0.5,2c-0.9,1.9-2.3,3.2-4.4,3.8
		c-0.5,0.2-1.1,0.2-1.8,0.2L6.9,13.9z"/>
	<path d="M1.4,1c0.1,0,0.2,0,0.3,0.1C2,1.4,2.2,1.6,2.5,1.9c0.2,0.2,0.4,0.4,0.6,0.6c0,0,0,0,0,0c0.2-0.1,0.3-0.2,0.5-0.4
		c0.8-0.6,1.7-0.9,2.6-1.1C6.5,1,6.9,1,7.2,1c0.2,0,0.4,0,0.6,0c1.6,0.2,2.9,0.8,4,2c0.8,0.9,1.4,2,1.6,3.2c0,0.2,0,0.3,0.1,0.5
		c0,0,0,0.1,0,0.1c0,0.3,0,0.5,0,0.8c0,0.1,0,0.2,0,0.3c-0.1,0.6-0.2,1.3-0.5,1.8c-0.8,1.8-2.2,3-4.1,3.5c-0.5,0.2-1.1,0.2-1.6,0.2
		c-0.1,0-0.2,0-0.3,0c-1.3,0-2.5-0.5-3.5-1.3C3.2,12,3,11.8,2.7,11.5c-0.2-0.2-0.3-0.5-0.1-0.8c0.1-0.3,0.4-0.5,0.7-0.5
		c0.2,0,0.3,0.1,0.5,0.2c0.2,0.2,0.4,0.4,0.7,0.5c0.7,0.5,1.4,0.8,2.2,0.8c0.2,0,0.3,0,0.5,0c2.2,0,4.1-1.5,4.5-3.6
		c0.5-2.3-0.8-4.7-3.1-5.4c-0.5-0.2-1-0.3-1.5-0.3c-0.8,0-1.6,0.2-2.3,0.7C4.7,3.3,4.5,3.4,4.4,3.5c0,0-0.1,0.1-0.1,0.1
		c0.1,0.1,0.2,0.2,0.2,0.2c0.3,0.3,0.6,0.6,0.9,1C5.5,4.9,5.5,5,5.6,5c0.2,0.2,0,0.6-0.3,0.6c-0.2,0-0.5,0-0.7,0c0,0,0,0,0,0
		c-1,0-2.1,0-3.1,0c-0.1,0-0.3,0-0.4-0.1C1,5.4,1,5.4,1,5.2C1,4,1,2.7,1,1.4c0-0.2,0.1-0.3,0.2-0.4C1.3,1,1.4,1,1.4,1 M1.4,0
		C1.2,0,0.9,0.1,0.7,0.2C0.1,0.6,0,1.1,0,1.4C0,2.7,0,4,0,5.2c0,0.3,0.1,0.6,0.3,0.9c0.2,0.2,0.5,0.5,1.1,0.5l1.1,0l2,0
		c0.3,0,0.5,0,0.8,0c0.5,0,0.9-0.3,1.2-0.8c0.2-0.5,0.2-1-0.1-1.4C6.3,4.3,6.2,4.2,6.1,4.1L5.8,3.8c0.4-0.2,0.9-0.3,1.3-0.3
		c0.4,0,0.8,0.1,1.2,0.2c1.8,0.6,2.8,2.4,2.4,4.3c-0.4,1.7-1.9,2.9-3.6,2.9c-0.1,0-0.3,0-0.4,0c-0.6-0.1-1.2-0.3-1.7-0.7
		C4.9,10.1,4.8,10,4.6,9.8L4.5,9.7C4.1,9.4,3.8,9.2,3.4,9.2c-0.7,0-1.4,0.4-1.7,1.1C1.4,11,1.5,11.7,2,12.2c0.2,0.3,0.5,0.5,0.8,0.8
		c1.2,0.9,2.6,1.4,4.1,1.5c0.1,0,0.2,0,0.3,0c0.7,0,1.3-0.1,1.9-0.2c2.2-0.6,3.7-2,4.7-4c0.3-0.6,0.5-1.4,0.6-2.2c0-0.1,0-0.1,0-0.2
		l0-0.1l0,0v0V6.8V6.8l0-0.1l0-0.1l0-0.1c0-0.1,0-0.3,0-0.4c-0.2-1.5-0.9-2.7-1.8-3.8C11.3,1,9.7,0.2,7.9,0C7.6,0,7.4,0,7.2,0
		C6.8,0,6.4,0,6,0.1c-1,0.2-2,0.5-2.8,1.1c0,0,0,0-0.1-0.1C2.9,0.9,2.6,0.6,2.4,0.4C2.1,0.1,1.8,0,1.4,0L1.4,0z"/>
</g>
</svg>
