<?xml version="1.0" encoding="utf-8"?>
<!-- Generator: Adobe Illustrator 27.5.0, SVG Export Plug-In . SVG Version: 6.00 Build 0)  -->
<svg version="1.1" id="Calque_1" xmlns="http://www.w3.org/2000/svg" xmlns:xlink="http://www.w3.org/1999/xlink" x="0px" y="0px"
	 viewBox="0 0 11 14.9" style="enable-background:new 0 0 11 14.9;" xml:space="preserve">
<style type="text/css">
	.st0{fill:#FFFFFF;}
</style>
<g>
	<g>
		<path class="st0" d="M5.6,14c-0.3,0-0.7-0.2-0.9-0.4c-0.9-1.3-2.9-4.8-3.5-5.9c-0.8-1.5-0.8-3.2,0-4.6c0.8-1.4,2.3-2.2,4.1-2.2
			c0.1,0,0.2,0,0.3,0C8.1,1,9.2,2.3,9.8,3.3c0.8,1.5,0.7,3.5,0.1,4.4C9.7,8,9.3,8.6,8.9,9.4c-0.8,1.4-1.8,3.2-2.4,4.1
			C6.3,13.8,6,14,5.6,14L5.6,14z M5.5,4.1c-1,0-1.7,0.8-1.7,1.7s0.8,1.7,1.7,1.7c1,0,1.7-0.8,1.7-1.7S6.5,4.1,5.5,4.1z"/>
	</g>
	<g>
		<path d="M5.4,1.4c0.1,0,0.2,0,0.3,0c4.4,0.2,4.6,4.7,3.8,6C9,8.2,7,11.8,6.1,13.2c-0.1,0.2-0.3,0.3-0.5,0.3
			c-0.2,0-0.3-0.1-0.5-0.2c-0.8-1.1-2.3-3.8-3.4-5.8C0.3,4.7,1.9,1.4,5.4,1.4 M5.5,8.1c1.2,0,2.2-1,2.2-2.2s-1-2.2-2.2-2.2
			s-2.2,1-2.2,2.2S4.3,8.1,5.5,8.1 M5.4,0.4c-2,0-3.6,0.9-4.5,2.4C0,4.3,0,6.2,0.9,7.9c0.7,1.4,2.6,4.6,3.5,5.9
			c0.3,0.4,0.8,0.7,1.3,0.7c0.5,0,1-0.3,1.3-0.7c0.6-0.9,1.6-2.7,2.4-4.1c0.4-0.8,0.8-1.5,1-1.7c0.7-1,0.8-3.1-0.1-4.9
			C9.4,1.5,7.8,0.5,5.7,0.4C5.6,0.4,5.5,0.4,5.4,0.4L5.4,0.4z M5.5,7.1c-0.7,0-1.2-0.5-1.2-1.2c0-0.7,0.5-1.2,1.2-1.2
			s1.2,0.5,1.2,1.2C6.7,6.5,6.2,7.1,5.5,7.1L5.5,7.1z"/>
	</g>
</g>
</svg>
