<?xml version="1.0" encoding="utf-8"?>
<!-- Generator: Adobe Illustrator 27.5.0, SVG Export Plug-In . SVG Version: 6.00 Build 0)  -->
<svg version="1.1" xmlns="http://www.w3.org/2000/svg" xmlns:xlink="http://www.w3.org/1999/xlink" x="0px" y="0px"
	 viewBox="0 0 1039 101" style="enable-background:new 0 0 1039 101;" xml:space="preserve">
<style type="text/css">
	.st0{display:none;}
	.st1{display:inline;stroke:#FFFFFF;stroke-width:13;stroke-miterlimit:10;}
	.st2{font-family:'LettersforLearners';}
	.st3{font-size:89.8139px;}
	.st4{display:inline;}
	.st5{stroke:#FFFFFF;stroke-width:13;stroke-miterlimit:10;}
</style>
<g id="Calque_1" class="st0">
	<text transform="matrix(1 0 0 1 18.3163 71.6231)" class="st1 st2 st3">Trois mois, deux saisons - La carte</text>
</g>
<g id="Calque_2" class="st0">
	<text transform="matrix(1 0 0 1 18.3163 71.6231)" class="st4 st2 st3">Trois mois, deux saisons - La carte</text>
</g>
<g id="Calque_3">
	<g>
		<path class="st5" d="M49.7,19c0.7,0,1.2,0.2,1.5,0.7c0.3,0.4,0.4,1,0.4,1.5c0,0.6-0.2,1.1-0.5,1.5c-0.4,0.4-0.9,0.7-1.5,0.7
			l-11.9,0.1l-0.4,46.3c0,0.8-0.2,1.4-0.7,1.8c-0.5,0.4-1,0.7-1.5,0.8c-0.6,0.1-1.1-0.1-1.5-0.4c-0.5-0.3-0.7-0.9-0.7-1.7l0.4-46.8
			l-11.7,0.1c-0.8-0.1-1.3-0.3-1.7-0.8c-0.4-0.5-0.5-1-0.5-1.5c0-0.5,0.2-1,0.6-1.5c0.4-0.4,1-0.7,1.7-0.7L49.7,19z"/>
		<path class="st5" d="M53.4,41c0-0.8,0.2-1.3,0.7-1.7c0.4-0.4,0.9-0.5,1.5-0.5c0.6,0,1.1,0.2,1.5,0.5c0.4,0.4,0.7,0.9,0.7,1.7
			l0,4.1c1-0.9,2-1.6,3.3-2.1c1.2-0.5,2.5-0.8,3.7-0.8s2.5,0.3,3.7,0.9c1.2,0.6,2.3,1.5,3.2,2.8c0.4,0.7,0.6,1.3,0.5,1.9
			c-0.1,0.6-0.3,1.1-0.6,1.4c-0.4,0.3-0.8,0.5-1.4,0.4c-0.6-0.1-1.1-0.4-1.7-1.1c-1.3-1.7-2.9-2.4-4.8-2.2c-1.9,0.2-3.4,1.4-4.5,3.5
			c-0.5,1-0.8,2.2-1,3.6c-0.2,1.4-0.3,2.8-0.4,4.4l0.1,12.3c0,0.7-0.2,1.1-0.7,1.4s-1,0.4-1.5,0.4c-0.5,0-1-0.2-1.5-0.4
			s-0.7-0.8-0.7-1.4L53.4,41z"/>
		<path class="st5" d="M90.1,70.3c-2.4,0.1-4.5-0.3-6.3-1.1s-3.3-1.8-4.4-3.2c-1.2-1.4-2-2.9-2.6-4.6c-0.5-1.7-0.8-3.5-0.8-5.3
			c0-1.8,0.3-3.5,0.9-5.2c0.6-1.7,1.5-3.2,2.6-4.5c1.2-1.3,2.6-2.4,4.3-3.2s3.7-1.2,6-1.3c2.3,0,4.3,0.4,6,1.2
			c1.7,0.8,3.2,1.9,4.3,3.2c1.1,1.4,2,2.9,2.5,4.6c0.5,1.7,0.8,3.5,0.8,5.3c0,1.7-0.3,3.4-0.9,5.1c-0.6,1.7-1.4,3.1-2.5,4.5
			c-1.1,1.3-2.5,2.4-4.2,3.2C94.3,69.9,92.3,70.3,90.1,70.3z M90.2,66.1c1.5,0,2.8-0.3,3.9-0.8c1.1-0.5,2-1.3,2.8-2.2
			c0.7-0.9,1.3-2,1.7-3.2c0.4-1.2,0.5-2.4,0.5-3.7c0-1.3-0.2-2.5-0.6-3.7c-0.4-1.2-1-2.3-1.8-3.2c-0.8-0.9-1.8-1.7-3-2.2
			c-1.2-0.5-2.5-0.8-4-0.8c-1.5,0.1-2.8,0.4-4,1c-1.1,0.6-2.1,1.4-2.8,2.3c-0.7,0.9-1.3,2-1.7,3.1c-0.4,1.2-0.6,2.4-0.6,3.6
			c0.1,2.5,0.9,4.7,2.5,6.6C84.8,64.9,87.1,65.9,90.2,66.1z"/>
		<path class="st5" d="M111.7,32.5c0-0.7,0.2-1.2,0.6-1.6c0.4-0.4,0.9-0.6,1.5-0.6c0.7,0,1.2,0.2,1.6,0.6c0.4,0.4,0.6,1,0.6,1.6
			c0,0.6-0.2,1.1-0.6,1.5c-0.4,0.4-1,0.6-1.6,0.6c-0.6,0-1.1-0.2-1.5-0.6C111.9,33.6,111.7,33.1,111.7,32.5z M111.7,41.5
			c0-0.8,0.2-1.3,0.7-1.7c0.5-0.4,1-0.5,1.6-0.5c0.6,0,1.1,0.2,1.6,0.5c0.5,0.4,0.7,0.9,0.7,1.7c0,2.7,0,5.2,0,7.6
			c0,2.4,0.1,4.8,0.1,7.1c0.1,2.3,0.1,4.7,0.1,7.1c0,2.4,0,4.9,0,7.6c0,0.7-0.2,1.2-0.7,1.5c-0.5,0.3-1,0.5-1.6,0.5
			c-0.6,0-1.1-0.2-1.6-0.5c-0.5-0.3-0.7-0.8-0.7-1.5c0-2.7,0-5.2,0-7.6c0-2.4-0.1-4.8-0.1-7.1c0-2.3-0.1-4.7-0.1-7.1
			C111.7,46.8,111.7,44.2,111.7,41.5z"/>
		<path class="st5" d="M128.7,64.9c0.9,0.9,2.2,1.6,4,2.1c1.7,0.5,3.5,0.7,5.2,0.7c1.7-0.1,3.3-0.4,4.6-1.1c1.3-0.7,2-1.7,2-3.1
			c0-1.3-0.4-2.3-1.3-3.1c-0.9-0.7-2-1.3-3.3-1.8c-1.3-0.4-2.8-0.8-4.3-1.2c-1.6-0.3-3-0.8-4.4-1.3c-1.3-0.5-2.5-1.3-3.5-2.2
			c-1-0.9-1.5-2.2-1.7-3.8c-0.1-1.7,0.1-3.1,0.7-4.4c0.6-1.3,1.4-2.3,2.5-3.2c1-0.9,2.2-1.5,3.6-2s2.7-0.7,4.2-0.9
			c2-0.1,4,0.2,5.7,1s3.2,1.9,4.1,3.3c0.4,0.5,0.5,1.1,0.4,1.6c-0.1,0.5-0.4,0.9-0.8,1.2c-0.4,0.3-0.9,0.4-1.4,0.4
			c-0.5-0.1-1-0.4-1.5-0.9c-0.8-0.8-1.8-1.5-3.1-1.9c-1.3-0.4-2.5-0.6-3.9-0.5c-1.7,0.2-3.1,0.7-4.4,1.6c-1.3,0.9-1.9,2.1-1.8,3.6
			c0,1,0.5,1.8,1.4,2.3c0.9,0.5,2.1,1,3.5,1.4c1.4,0.4,2.9,0.8,4.5,1.3c1.6,0.4,3.1,1,4.4,1.8c1.4,0.7,2.5,1.7,3.3,3
			c0.9,1.2,1.3,2.9,1.2,4.9c-0.1,1.6-0.6,3-1.5,4.1c-0.9,1.1-2.1,2-3.5,2.7c-1.4,0.7-3,1.1-4.7,1.3c-1.7,0.2-3.5,0.3-5.2,0.1
			c-1.7-0.2-3.3-0.6-4.8-1.1c-1.5-0.6-2.7-1.3-3.6-2.3c-0.5-0.5-0.8-1.1-0.7-1.8c0.1-0.7,0.3-1.2,0.7-1.7c0.4-0.4,0.9-0.7,1.5-0.8
			C127.6,64.2,128.2,64.4,128.7,64.9z"/>
		<path class="st5" d="M185.8,47.6c1.1-2.1,2.4-3.8,4.1-5.2c1.6-1.4,3.7-2.1,6.2-2.2c1.6,0,2.9,0.4,4,1.1c1.1,0.7,2.1,1.6,2.9,2.8
			c0.8,1.1,1.5,2.4,2,3.8c0.5,1.4,1,2.8,1.3,4.1c0.2-1,0.6-2.1,1.2-3.4c0.6-1.3,1.3-2.5,2.2-3.7c0.9-1.2,1.9-2.2,3.1-3
			c1.2-0.8,2.4-1.3,3.8-1.3c2-0.1,3.7,0.3,5,1.1c1.4,0.8,2.5,1.9,3.4,3.4s1.6,3.1,2.1,5.1c0.5,1.9,0.9,4,1.2,6.2
			c0.3,2.2,0.4,4.4,0.5,6.7c0.1,2.3,0.1,4.6,0.1,6.8c0,0.7-0.2,1.1-0.7,1.4c-0.4,0.3-1,0.4-1.5,0.4c-0.6,0-1.1-0.2-1.5-0.4
			s-0.7-0.8-0.7-1.4c-0.1-2.7-0.1-5.5-0.2-8.5c-0.1-3-0.4-5.7-0.8-8.1c-0.4-2.5-1.2-4.5-2.1-6.1c-1-1.6-2.3-2.4-4.1-2.3
			c-1.6,0.1-2.9,0.7-4,2.1c-1.1,1.3-2.1,3.1-2.8,5.4c-0.7,2.3-1.3,5-1.6,8.1c-0.3,3.1-0.4,6.5-0.2,10.1c0,0.5-0.2,1-0.7,1.3
			c-0.4,0.3-0.9,0.5-1.5,0.6c-0.5,0.1-1-0.1-1.5-0.4c-0.5-0.3-0.7-0.9-0.7-1.6c-0.2-2.9-0.4-5.9-0.6-9c-0.2-3.1-0.6-5.9-1.1-8.4
			c-0.5-2.5-1.3-4.6-2.3-6.2c-1-1.6-2.4-2.3-4.2-2.3c-1.5,0-2.8,0.5-3.8,1.4c-1,1-1.9,2.2-2.6,3.7c-0.7,1.5-1.2,3.2-1.6,5.2
			c-0.4,1.9-0.6,3.9-0.8,5.8s-0.3,3.9-0.3,5.7c0,1.8,0,3.4,0,4.7c-0.1,0.5-0.4,0.8-0.9,1.1c-0.5,0.2-1,0.4-1.5,0.4
			c-0.5,0-1-0.1-1.5-0.4c-0.4-0.2-0.7-0.6-0.7-1.1c-0.4-4.4-0.6-9.2-0.6-14.2c-0.1-5-0.2-10.2-0.5-15.4c0.1-0.8,0.3-1.3,0.8-1.7
			c0.4-0.4,0.9-0.5,1.5-0.5c0.5,0,1,0.2,1.4,0.5c0.4,0.4,0.7,0.9,0.7,1.7L185.8,47.6z"/>
		<path class="st5" d="M249.4,70.3c-2.4,0.1-4.5-0.3-6.3-1.1s-3.3-1.8-4.4-3.2c-1.2-1.4-2-2.9-2.6-4.6c-0.5-1.7-0.8-3.5-0.8-5.3
			c0-1.8,0.3-3.5,0.9-5.2c0.6-1.7,1.5-3.2,2.6-4.5c1.2-1.3,2.6-2.4,4.3-3.2s3.7-1.2,6-1.3c2.3,0,4.3,0.4,6,1.2
			c1.7,0.8,3.2,1.9,4.3,3.2c1.1,1.4,2,2.9,2.5,4.6c0.5,1.7,0.8,3.5,0.8,5.3c0,1.7-0.3,3.4-0.9,5.1c-0.6,1.7-1.4,3.1-2.5,4.5
			c-1.1,1.3-2.5,2.4-4.2,3.2C253.6,69.9,251.7,70.3,249.4,70.3z M249.5,66.1c1.5,0,2.8-0.3,3.9-0.8c1.1-0.5,2-1.3,2.8-2.2
			c0.7-0.9,1.3-2,1.7-3.2c0.4-1.2,0.5-2.4,0.5-3.7c0-1.3-0.2-2.5-0.6-3.7c-0.4-1.2-1-2.3-1.8-3.2c-0.8-0.9-1.8-1.7-3-2.2
			c-1.2-0.5-2.5-0.8-4-0.8c-1.5,0.1-2.8,0.4-4,1c-1.1,0.6-2.1,1.4-2.8,2.3c-0.7,0.9-1.3,2-1.7,3.1c-0.4,1.2-0.6,2.4-0.6,3.6
			c0.1,2.5,0.9,4.7,2.5,6.6C244.1,64.9,246.4,65.9,249.5,66.1z"/>
		<path class="st5" d="M271,32.5c0-0.7,0.2-1.2,0.6-1.6c0.4-0.4,0.9-0.6,1.5-0.6c0.7,0,1.2,0.2,1.6,0.6c0.4,0.4,0.6,1,0.6,1.6
			c0,0.6-0.2,1.1-0.6,1.5c-0.4,0.4-1,0.6-1.6,0.6c-0.6,0-1.1-0.2-1.5-0.6C271.3,33.6,271,33.1,271,32.5z M271,41.5
			c0-0.8,0.2-1.3,0.7-1.7c0.5-0.4,1-0.5,1.6-0.5c0.6,0,1.1,0.2,1.6,0.5c0.5,0.4,0.7,0.9,0.7,1.7c0,2.7,0,5.2,0,7.6
			c0,2.4,0.1,4.8,0.1,7.1c0.1,2.3,0.1,4.7,0.1,7.1c0,2.4,0,4.9,0,7.6c0,0.7-0.2,1.2-0.7,1.5c-0.5,0.3-1,0.5-1.6,0.5
			c-0.6,0-1.1-0.2-1.6-0.5c-0.5-0.3-0.7-0.8-0.7-1.5c0-2.7,0-5.2,0-7.6c0-2.4-0.1-4.8-0.1-7.1c0-2.3-0.1-4.7-0.1-7.1
			C271.1,46.8,271,44.2,271,41.5z"/>
		<path class="st5" d="M288,64.9c0.9,0.9,2.2,1.6,4,2.1c1.7,0.5,3.5,0.7,5.2,0.7c1.7-0.1,3.3-0.4,4.6-1.1c1.3-0.7,2-1.7,2-3.1
			c0-1.3-0.4-2.3-1.3-3.1c-0.9-0.7-2-1.3-3.3-1.8c-1.3-0.4-2.8-0.8-4.3-1.2c-1.6-0.3-3-0.8-4.4-1.3c-1.3-0.5-2.5-1.3-3.5-2.2
			c-1-0.9-1.5-2.2-1.7-3.8c-0.1-1.7,0.1-3.1,0.7-4.4c0.6-1.3,1.4-2.3,2.5-3.2c1-0.9,2.2-1.5,3.6-2s2.7-0.7,4.2-0.9
			c2-0.1,4,0.2,5.7,1s3.2,1.9,4.1,3.3c0.4,0.5,0.5,1.1,0.4,1.6c-0.1,0.5-0.4,0.9-0.8,1.2c-0.4,0.3-0.9,0.4-1.4,0.4
			c-0.5-0.1-1-0.4-1.5-0.9c-0.8-0.8-1.8-1.5-3.1-1.9c-1.3-0.4-2.5-0.6-3.9-0.5c-1.7,0.2-3.1,0.7-4.4,1.6c-1.3,0.9-1.9,2.1-1.8,3.6
			c0,1,0.5,1.8,1.4,2.3c0.9,0.5,2.1,1,3.5,1.4c1.4,0.4,2.9,0.8,4.5,1.3c1.6,0.4,3.1,1,4.4,1.8c1.4,0.7,2.5,1.7,3.3,3
			c0.9,1.2,1.3,2.9,1.2,4.9c-0.1,1.6-0.6,3-1.5,4.1c-0.9,1.1-2.1,2-3.5,2.7c-1.4,0.7-3,1.1-4.7,1.3c-1.7,0.2-3.5,0.3-5.2,0.1
			c-1.7-0.2-3.3-0.6-4.8-1.1c-1.5-0.6-2.7-1.3-3.6-2.3c-0.5-0.5-0.8-1.1-0.7-1.8c0.1-0.7,0.3-1.2,0.7-1.7c0.4-0.4,0.9-0.7,1.5-0.8
			C286.9,64.2,287.5,64.4,288,64.9z"/>
		<path class="st5" d="M316.9,66.1c1.3,1.3,2.1,2.6,2.6,4.1s0.6,3,0.4,4.4c-0.2,1.5-0.7,2.8-1.6,4.1c-0.9,1.3-2,2.3-3.5,3.1
			c-0.5,0.4-1,0.4-1.5,0.3c-0.5-0.2-0.9-0.5-1.1-0.9c-0.3-0.4-0.4-0.9-0.3-1.4c0.1-0.5,0.4-0.9,0.9-1.2c1-0.5,1.7-1.2,2.2-2
			c0.5-0.8,0.8-1.7,0.9-2.6c0.1-0.9,0-1.8-0.3-2.6c-0.3-0.9-0.7-1.7-1.3-2.4c-0.5-0.5-0.7-1-0.6-1.5c0.1-0.5,0.3-1,0.7-1.3
			s0.8-0.6,1.3-0.6C315.9,65.5,316.4,65.6,316.9,66.1z"/>
		<path class="st5" d="M373.7,21.2c0.1-0.8,0.3-1.4,0.7-1.8c0.4-0.4,0.9-0.6,1.4-0.6s1,0.2,1.5,0.6c0.4,0.4,0.7,1,0.8,1.8
			c-0.2,4.4-0.3,8.5-0.4,12.5c-0.1,4-0.1,7.9,0,11.8c0,3.9,0.1,7.8,0.1,11.8c0.1,4,0.1,8.2,0.2,12.5c-0.1,0.7-0.4,1.2-0.8,1.5
			c-0.4,0.3-0.9,0.5-1.4,0.5c-0.5,0-1-0.2-1.4-0.5c-0.4-0.3-0.7-0.8-0.8-1.5c0-0.7,0-1.3,0-2c0-0.7,0-1.3,0-2
			c-1.9,1.9-4.2,3.1-7,3.7c-2.7,0.6-5.4,0.5-7.9-0.3c-2.5-0.8-4.8-2.3-6.6-4.4c-1.9-2.2-3-5.2-3.3-8.9c-0.2-4.2,0.6-7.6,2.3-10.1
			c1.7-2.5,3.9-4.3,6.5-5.3c2.6-1,5.3-1.2,8.2-0.6c2.9,0.6,5.4,1.9,7.5,4c-0.1-3.7,0-7.3,0-11C373.4,29.3,373.5,25.4,373.7,21.2z
			 M373.3,55.6c-0.1-2.7-0.6-4.9-1.8-6.7c-1.1-1.8-2.4-3.1-4-3.9c-1.6-0.8-3.2-1.2-5-1.1c-1.8,0.1-3.4,0.6-4.8,1.6
			c-1.4,1-2.6,2.4-3.5,4.2c-0.9,1.8-1.2,4.1-0.9,6.8c0.2,2.3,0.9,4.1,2,5.5c1.1,1.4,2.4,2.4,3.9,3c1.5,0.6,3,0.8,4.7,0.7
			c1.7-0.1,3.2-0.6,4.6-1.4c1.4-0.8,2.5-1.9,3.4-3.4C372.8,59.3,373.3,57.6,373.3,55.6z"/>
		<path class="st5" d="M413,53c-0.8,0.5-2.3,0.9-4.4,1.3c-2.1,0.4-4.3,0.8-6.7,1.2c-2.4,0.4-4.7,0.7-7,0.9c-2.3,0.2-4,0.4-5.3,0.4
			c0.1,1.7,0.5,3.2,1.1,4.6c0.6,1.4,1.4,2.6,2.3,3.5c1,0.9,2.1,1.6,3.4,2.1c1.3,0.4,2.8,0.5,4.3,0.2c1.9-0.3,3.5-1,5-2
			c1.5-1,3-2.5,4.5-4.5c0.5-0.5,1-0.8,1.6-0.9c0.6-0.1,1.1,0.1,1.6,0.4c0.4,0.3,0.8,0.7,0.9,1.2s0.1,1.1-0.2,1.7
			c-2,2.6-4.1,4.6-6.2,5.8c-2.1,1.3-4.1,2.1-6.2,2.5c-2.2,0.4-4.3,0.3-6.3-0.2c-2-0.6-3.8-1.6-5.3-3c-1.5-1.4-2.7-3.2-3.6-5.3
			c-0.9-2.2-1.3-4.6-1.3-7.4c0-2,0.2-3.9,0.7-5.8c0.4-1.9,1.2-3.7,2.1-5.3c1-1.6,2.2-2.9,3.7-4c1.5-1.1,3.4-1.8,5.6-2.1
			c1.9-0.2,3.7-0.1,5.6,0.3c1.9,0.4,3.5,1.2,5,2.3c1.5,1.1,2.8,2.5,3.8,4.1c1,1.7,1.7,3.6,2,5.8C413.9,52,413.6,52.7,413,53z
			 M397.2,42.9c-1.2,0.2-2.2,0.7-3.1,1.3c-0.9,0.6-1.6,1.4-2.2,2.2c-0.6,0.8-1.1,1.8-1.4,2.8c-0.3,1-0.6,2.1-0.7,3.3
			c3.4,0,6.7-0.3,9.7-0.8c3.1-0.5,6.3-1.2,9.6-1.9c-0.2-1.1-0.7-2.2-1.4-3.2s-1.6-1.8-2.6-2.5c-1-0.7-2.2-1.1-3.6-1.3
			C400.2,42.6,398.8,42.6,397.2,42.9z"/>
		<path class="st5" d="M447.5,42.2c0.1,2.8,0.1,5.1,0.1,6.8c0,1.7,0.1,3.2,0.1,4.4c0,1.2,0,2.2,0,3.1c0,0.9,0,2,0,3.1
			c0,1.1,0,2.5,0,4.2c0,1.6,0,3.8,0,6.5c0,0.7-0.2,1.3-0.7,1.6c-0.5,0.4-1,0.5-1.6,0.5c-0.6,0-1.1-0.2-1.6-0.5
			c-0.5-0.3-0.7-0.8-0.7-1.5v-4.6c-1.1,1.7-2.4,3-4,4c-1.6,1-3.6,1.4-5.9,1.4c-2,0.1-3.8-0.3-5.2-1.1c-1.4-0.8-2.6-1.9-3.5-3.3
			c-0.9-1.4-1.6-3.1-2.1-4.9c-0.5-1.9-0.8-3.9-1.1-6c-0.2-2.1-0.4-4.3-0.4-6.5c0-2.2,0-4.4,0-6.5c0-0.7,0.2-1.2,0.7-1.5
			c0.4-0.4,0.9-0.6,1.5-0.6c0.5,0,1,0.1,1.5,0.4c0.5,0.3,0.7,0.9,0.7,1.6c0.1,2.6,0.1,5.4,0.2,8.2c0.1,2.8,0.3,5.5,0.8,7.9
			c0.4,2.4,1.2,4.4,2.3,6c1.1,1.6,2.7,2.3,4.9,2.3c3.4,0,5.7-1.8,7.2-5.5c1.4-3.7,2.2-8.8,2.2-15.4v-3.8c0-0.7,0.2-1.2,0.7-1.5
			s0.9-0.6,1.5-0.6c0.5-0.1,1,0.1,1.5,0.4C447.2,41,447.5,41.5,447.5,42.2z"/>
		<path class="st5" d="M466.4,51.1l6.6-10.1c0.4-0.7,0.9-1,1.5-1.2c0.6-0.1,1.1,0,1.6,0.2c0.4,0.3,0.7,0.7,0.9,1.2
			c0.1,0.5,0,1.1-0.4,1.8L469,54.8l10.7,15.4c0.4,0.5,0.4,1.1,0.3,1.6s-0.5,1-1,1.3c-0.5,0.3-1,0.5-1.6,0.4c-0.6,0-1.1-0.3-1.5-0.9
			l-9.4-13.7l-8.2,12.7c-0.4,0.6-0.8,0.9-1.4,0.9c-0.6,0-1.1-0.1-1.6-0.4c-0.5-0.3-0.8-0.7-1-1.2c-0.2-0.5-0.1-1.1,0.3-1.7l9.3-14.2
			l-8.2-12c-0.5-0.7-0.6-1.3-0.4-1.8c0.2-0.5,0.5-0.9,0.9-1.2c0.4-0.3,1-0.3,1.6-0.2c0.6,0.1,1.1,0.5,1.6,1.1L466.4,51.1z"/>
		<path class="st5" d="M513.7,64.9c0.9,0.9,2.2,1.6,4,2.1c1.7,0.5,3.5,0.7,5.2,0.7c1.7-0.1,3.3-0.4,4.6-1.1c1.3-0.7,2-1.7,2-3.1
			c0-1.3-0.4-2.3-1.3-3.1c-0.9-0.7-2-1.3-3.3-1.8c-1.3-0.4-2.8-0.8-4.3-1.2c-1.6-0.3-3-0.8-4.4-1.3c-1.3-0.5-2.5-1.3-3.5-2.2
			c-1-0.9-1.5-2.2-1.7-3.8c-0.1-1.7,0.1-3.1,0.7-4.4c0.6-1.3,1.4-2.3,2.5-3.2c1-0.9,2.2-1.5,3.6-2c1.3-0.4,2.7-0.7,4.2-0.9
			c2-0.1,4,0.2,5.7,1s3.2,1.9,4.1,3.3c0.4,0.5,0.5,1.1,0.4,1.6c-0.1,0.5-0.4,0.9-0.8,1.2c-0.4,0.3-0.9,0.4-1.4,0.4
			c-0.5-0.1-1-0.4-1.5-0.9c-0.8-0.8-1.8-1.5-3.1-1.9c-1.3-0.4-2.5-0.6-3.9-0.5c-1.7,0.2-3.1,0.7-4.4,1.6c-1.3,0.9-1.9,2.1-1.8,3.6
			c0,1,0.5,1.8,1.4,2.3c0.9,0.5,2.1,1,3.5,1.4c1.4,0.4,2.9,0.8,4.5,1.3c1.6,0.4,3.1,1,4.4,1.8c1.4,0.7,2.5,1.7,3.3,3
			c0.9,1.2,1.3,2.9,1.2,4.9c-0.1,1.6-0.6,3-1.5,4.1c-0.9,1.1-2.1,2-3.5,2.7c-1.4,0.7-3,1.1-4.7,1.3c-1.7,0.2-3.5,0.3-5.2,0.1
			c-1.7-0.2-3.3-0.6-4.8-1.1c-1.5-0.6-2.7-1.3-3.6-2.3c-0.5-0.5-0.8-1.1-0.7-1.8c0.1-0.7,0.3-1.2,0.7-1.7c0.4-0.4,0.9-0.7,1.5-0.8
			C512.6,64.2,513.2,64.4,513.7,64.9z"/>
		<path class="st5" d="M559.5,39.4c0.1-0.8,0.3-1.3,0.8-1.7s0.9-0.5,1.5-0.5c0.5,0,1,0.2,1.4,0.5c0.4,0.4,0.7,0.9,0.7,1.7
			c0.2,5.1,0.3,10.2,0.4,15.3c0.1,5.1,0.3,10.4,0.6,15.8c-0.1,0.6-0.3,1.1-0.8,1.4c-0.4,0.3-0.9,0.5-1.4,0.5c-0.5,0-1-0.2-1.4-0.4
			c-0.4-0.3-0.7-0.8-0.8-1.4l-0.3-4.4c-1.4,1.3-3.1,2.2-5.1,2.7c-2,0.5-4.4,0.5-7.1-0.2c-1.6-0.4-3-1-4.1-1.9
			c-1.1-0.9-2.1-1.9-2.8-3.1c-0.7-1.2-1.2-2.5-1.6-4c-0.3-1.4-0.4-2.9-0.3-4.4c0.1-1.7,0.5-3.4,1.1-5.1c0.6-1.6,1.5-3.1,2.6-4.4
			c1.1-1.3,2.5-2.3,4-3.1c1.6-0.7,3.4-1.1,5.3-1.1c1.4,0.1,2.8,0.4,4,0.9c1.2,0.6,2.3,1.3,3.3,2.2c-0.1-0.8-0.1-1.7-0.1-2.6
			C559.5,41.2,559.5,40.3,559.5,39.4z M549.3,64.3c1.2,0.5,2.4,0.6,3.5,0.4c1.2-0.2,2.2-0.6,3.2-1.3c1-0.7,1.8-1.5,2.5-2.5
			c0.7-1,1.2-2.1,1.5-3.2l-0.2-5c-0.5-1.7-1.2-3-2.2-4c-1-1-2.1-1.7-3.3-2.1c-1.2-0.4-2.4-0.5-3.7-0.3c-1.3,0.2-2.4,0.7-3.5,1.5
			c-1,0.8-1.9,1.9-2.5,3.3c-0.7,1.4-1,3.1-0.9,5.1c0.1,1.7,0.5,3.4,1.4,4.9C546,62.4,547.3,63.5,549.3,64.3z"/>
		<path class="st5" d="M574.8,32.5c0-0.7,0.2-1.2,0.6-1.6c0.4-0.4,0.9-0.6,1.5-0.6c0.7,0,1.2,0.2,1.6,0.6c0.4,0.4,0.6,1,0.6,1.6
			c0,0.6-0.2,1.1-0.6,1.5c-0.4,0.4-1,0.6-1.6,0.6c-0.6,0-1.1-0.2-1.5-0.6C575,33.6,574.8,33.1,574.8,32.5z M574.8,41.5
			c0-0.8,0.2-1.3,0.7-1.7c0.5-0.4,1-0.5,1.6-0.5c0.6,0,1.1,0.2,1.6,0.5c0.5,0.4,0.7,0.9,0.7,1.7c0,2.7,0,5.2,0,7.6
			c0,2.4,0.1,4.8,0.1,7.1c0.1,2.3,0.1,4.7,0.1,7.1c0,2.4,0,4.9,0,7.6c0,0.7-0.2,1.2-0.7,1.5c-0.5,0.3-1,0.5-1.6,0.5
			c-0.6,0-1.1-0.2-1.6-0.5c-0.5-0.3-0.7-0.8-0.7-1.5c0-2.7,0-5.2,0-7.6c0-2.4-0.1-4.8-0.1-7.1c0-2.3-0.1-4.7-0.1-7.1
			C574.8,46.8,574.8,44.2,574.8,41.5z"/>
		<path class="st5" d="M591.8,64.9c0.9,0.9,2.2,1.6,4,2.1c1.7,0.5,3.5,0.7,5.2,0.7c1.7-0.1,3.3-0.4,4.6-1.1c1.3-0.7,2-1.7,2-3.1
			c0-1.3-0.4-2.3-1.3-3.1c-0.9-0.7-2-1.3-3.3-1.8c-1.3-0.4-2.8-0.8-4.3-1.2c-1.6-0.3-3-0.8-4.4-1.3c-1.3-0.5-2.5-1.3-3.5-2.2
			c-1-0.9-1.5-2.2-1.7-3.8c-0.1-1.7,0.1-3.1,0.7-4.4c0.6-1.3,1.4-2.3,2.5-3.2c1-0.9,2.2-1.5,3.6-2c1.3-0.4,2.7-0.7,4.2-0.9
			c2-0.1,4,0.2,5.7,1s3.2,1.9,4.1,3.3c0.4,0.5,0.5,1.1,0.4,1.6c-0.1,0.5-0.4,0.9-0.8,1.2c-0.4,0.3-0.9,0.4-1.4,0.4
			c-0.5-0.1-1-0.4-1.5-0.9c-0.8-0.8-1.8-1.5-3.1-1.9c-1.3-0.4-2.5-0.6-3.9-0.5c-1.7,0.2-3.1,0.7-4.4,1.6c-1.3,0.9-1.9,2.1-1.8,3.6
			c0,1,0.5,1.8,1.4,2.3c0.9,0.5,2.1,1,3.5,1.4c1.4,0.4,2.9,0.8,4.5,1.3c1.6,0.4,3.1,1,4.4,1.8c1.4,0.7,2.5,1.7,3.3,3
			c0.9,1.2,1.3,2.9,1.2,4.9c-0.1,1.6-0.6,3-1.5,4.1c-0.9,1.1-2.1,2-3.5,2.7c-1.4,0.7-3,1.1-4.7,1.3c-1.7,0.2-3.5,0.3-5.2,0.1
			c-1.7-0.2-3.3-0.6-4.8-1.1c-1.5-0.6-2.7-1.3-3.6-2.3c-0.5-0.5-0.8-1.1-0.7-1.8c0.1-0.7,0.3-1.2,0.7-1.7c0.4-0.4,0.9-0.7,1.5-0.8
			C590.7,64.2,591.2,64.4,591.8,64.9z"/>
		<path class="st5" d="M631.4,70.3c-2.4,0.1-4.5-0.3-6.3-1.1c-1.8-0.8-3.3-1.8-4.4-3.2s-2-2.9-2.6-4.6c-0.5-1.7-0.8-3.5-0.8-5.3
			c0-1.8,0.3-3.5,0.9-5.2c0.6-1.7,1.5-3.2,2.6-4.5c1.2-1.3,2.6-2.4,4.3-3.2c1.7-0.8,3.7-1.2,6-1.3c2.3,0,4.3,0.4,6,1.2
			c1.7,0.8,3.2,1.9,4.3,3.2c1.1,1.4,2,2.9,2.5,4.6c0.5,1.7,0.8,3.5,0.8,5.3c0,1.7-0.3,3.4-0.9,5.1c-0.6,1.7-1.4,3.1-2.5,4.5
			c-1.1,1.3-2.5,2.4-4.2,3.2C635.6,69.9,633.6,70.3,631.4,70.3z M631.5,66.1c1.5,0,2.8-0.3,3.9-0.8c1.1-0.5,2-1.3,2.8-2.2
			c0.7-0.9,1.3-2,1.7-3.2c0.4-1.2,0.5-2.4,0.5-3.7c0-1.3-0.2-2.5-0.6-3.7c-0.4-1.2-1-2.3-1.8-3.2c-0.8-0.9-1.8-1.7-3-2.2
			c-1.2-0.5-2.5-0.8-4-0.8c-1.5,0.1-2.8,0.4-4,1c-1.1,0.6-2.1,1.4-2.8,2.3c-0.8,0.9-1.3,2-1.7,3.1c-0.4,1.2-0.6,2.4-0.6,3.6
			c0.1,2.5,0.9,4.7,2.5,6.6C626.1,64.9,628.4,65.9,631.5,66.1z"/>
		<path class="st5" d="M656.4,71.8c-0.4,0.4-1,0.6-1.5,0.6c-0.6,0-1.1-0.2-1.5-0.6s-0.7-0.9-0.7-1.7c0-5.2-0.1-10.2-0.3-15
			c-0.2-4.8-0.3-9.6-0.3-14.4c0-0.7,0.2-1.3,0.7-1.7c0.4-0.4,0.9-0.6,1.5-0.6s1,0.2,1.5,0.6c0.5,0.4,0.7,0.9,0.7,1.7l0.1,4.4
			c1-1.4,2.2-2.5,3.7-3.3c1.4-0.8,3.2-1.3,5.3-1.4c2.6-0.1,4.8,0.5,6.6,1.7c1.7,1.2,3.1,2.7,4.2,4.5c1.1,1.8,1.9,3.9,2.4,6.1
			c0.5,2.2,0.8,4.4,0.9,6.6c0.1,1.9,0.2,3.8,0.2,5.6c0,1.8,0,3.5-0.1,4.9c0,0.8-0.2,1.3-0.7,1.7s-0.9,0.6-1.5,0.6
			c-0.5,0-1-0.1-1.5-0.4c-0.4-0.3-0.7-0.8-0.7-1.5c-0.1-1.5-0.1-3.2,0-5c0.1-1.9,0-3.7-0.1-5.7c-0.1-1.3-0.2-2.7-0.5-4.4
			c-0.3-1.7-0.8-3.3-1.5-4.9c-0.7-1.5-1.6-2.8-2.8-3.9c-1.2-1-2.6-1.5-4.4-1.5c-2,0.1-3.7,0.7-4.9,1.7c-1.2,1-2.1,2.2-2.7,3.7
			c-0.6,1.5-1,3.2-1.2,5c-0.2,1.8-0.3,3.6-0.3,5.3v9.6C657.1,70.8,656.8,71.4,656.4,71.8z"/>
		<path class="st5" d="M690.1,64.9c0.9,0.9,2.2,1.6,4,2.1c1.7,0.5,3.5,0.7,5.2,0.7c1.7-0.1,3.3-0.4,4.6-1.1c1.3-0.7,2-1.7,2-3.1
			c0-1.3-0.4-2.3-1.3-3.1c-0.9-0.7-2-1.3-3.3-1.8c-1.3-0.4-2.8-0.8-4.3-1.2c-1.6-0.3-3-0.8-4.4-1.3c-1.3-0.5-2.5-1.3-3.5-2.2
			c-1-0.9-1.5-2.2-1.7-3.8c-0.1-1.7,0.1-3.1,0.7-4.4c0.6-1.3,1.4-2.3,2.5-3.2c1-0.9,2.2-1.5,3.6-2c1.3-0.4,2.7-0.7,4.2-0.9
			c2-0.1,4,0.2,5.7,1s3.2,1.9,4.1,3.3c0.4,0.5,0.5,1.1,0.4,1.6c-0.1,0.5-0.4,0.9-0.8,1.2c-0.4,0.3-0.9,0.4-1.4,0.4
			c-0.5-0.1-1-0.4-1.5-0.9c-0.8-0.8-1.8-1.5-3.1-1.9c-1.3-0.4-2.5-0.6-3.9-0.5c-1.7,0.2-3.1,0.7-4.4,1.6c-1.3,0.9-1.9,2.1-1.8,3.6
			c0,1,0.5,1.8,1.4,2.3c0.9,0.5,2.1,1,3.5,1.4c1.4,0.4,2.9,0.8,4.5,1.3c1.6,0.4,3.1,1,4.4,1.8c1.4,0.7,2.5,1.7,3.3,3
			c0.9,1.2,1.3,2.9,1.2,4.9c-0.1,1.6-0.6,3-1.5,4.1c-0.9,1.1-2.1,2-3.5,2.7c-1.4,0.7-3,1.1-4.7,1.3c-1.7,0.2-3.5,0.3-5.2,0.1
			c-1.7-0.2-3.3-0.6-4.8-1.1c-1.5-0.6-2.7-1.3-3.6-2.3c-0.5-0.5-0.8-1.1-0.7-1.8c0.1-0.7,0.3-1.2,0.7-1.7c0.4-0.4,0.9-0.7,1.5-0.8
			C689,64.2,689.6,64.4,690.1,64.9z"/>
		<path class="st5" d="M741.4,52c-0.7,0-1.3-0.2-1.7-0.7s-0.6-0.9-0.6-1.5c0-0.5,0.2-1,0.5-1.5c0.4-0.5,0.9-0.7,1.7-0.7l17.2-0.4
			c0.7,0,1.2,0.2,1.5,0.7c0.4,0.4,0.6,1,0.6,1.5c0,0.6-0.1,1.1-0.4,1.5s-0.9,0.7-1.6,0.7L741.4,52z"/>
		<path class="st5" d="M793.7,71.8c-0.7,0-1.3-0.2-1.7-0.4s-0.7-0.8-0.7-1.6l0.4-48.8c0-0.8,0.2-1.3,0.7-1.7c0.5-0.4,1-0.5,1.6-0.5
			c0.5,0,1.1,0.3,1.5,0.7c0.5,0.4,0.7,1,0.7,1.8l-0.4,46.2l23-0.3c0.7,0,1.2,0.2,1.5,0.7c0.4,0.4,0.6,1,0.6,1.5
			c0,0.6-0.1,1.1-0.4,1.5c-0.3,0.4-0.9,0.7-1.6,0.7L793.7,71.8z"/>
		<path class="st5" d="M844.6,39.4c0.1-0.8,0.3-1.3,0.8-1.7s0.9-0.5,1.5-0.5c0.5,0,1,0.2,1.4,0.5c0.4,0.4,0.7,0.9,0.7,1.7
			c0.2,5.1,0.3,10.2,0.4,15.3c0.1,5.1,0.3,10.4,0.6,15.8c-0.1,0.6-0.3,1.1-0.8,1.4c-0.4,0.3-0.9,0.5-1.4,0.5c-0.5,0-1-0.2-1.4-0.4
			c-0.4-0.3-0.7-0.8-0.8-1.4l-0.3-4.4c-1.4,1.3-3.1,2.2-5.1,2.7c-2,0.5-4.4,0.5-7.1-0.2c-1.6-0.4-3-1-4.1-1.9
			c-1.1-0.9-2.1-1.9-2.8-3.1c-0.7-1.2-1.2-2.5-1.6-4c-0.3-1.4-0.4-2.9-0.3-4.4c0.1-1.7,0.5-3.4,1.1-5.1c0.6-1.6,1.5-3.1,2.6-4.4
			c1.1-1.3,2.5-2.3,4-3.1c1.6-0.7,3.4-1.1,5.3-1.1c1.4,0.1,2.8,0.4,4,0.9c1.2,0.6,2.3,1.3,3.3,2.2c-0.1-0.8-0.1-1.7-0.1-2.6
			C844.6,41.2,844.6,40.3,844.6,39.4z M834.3,64.3c1.2,0.5,2.4,0.6,3.5,0.4c1.2-0.2,2.2-0.6,3.2-1.3c1-0.7,1.8-1.5,2.5-2.5
			c0.7-1,1.2-2.1,1.5-3.2l-0.2-5c-0.5-1.7-1.2-3-2.2-4c-1-1-2.1-1.7-3.3-2.1c-1.2-0.4-2.4-0.5-3.7-0.3c-1.3,0.2-2.4,0.7-3.5,1.5
			c-1,0.8-1.9,1.9-2.5,3.3c-0.7,1.4-1,3.1-0.9,5.1c0.1,1.7,0.5,3.4,1.4,4.9C831,62.4,832.4,63.5,834.3,64.3z"/>
		<path class="st5" d="M893.2,39.1c1.3-0.2,2.6-0.1,4,0.1c1.3,0.2,2.6,0.7,3.7,1.4c1.1,0.7,2.1,1.6,3,2.7c0.9,1.1,1.5,2.5,1.9,4.1
			c0.2,0.7,0.1,1.2-0.2,1.6c-0.3,0.4-0.7,0.7-1.2,0.8c-0.5,0.1-1,0.1-1.5-0.2c-0.5-0.2-0.9-0.7-1-1.3c-0.7-1.9-1.8-3.4-3.1-4.4
			c-1.4-1-3.1-1.3-5.1-0.9c-1.4,0.2-2.5,0.7-3.4,1.5c-0.9,0.7-1.6,1.6-2.2,2.7c-0.6,1-1,2.2-1.2,3.5c-0.2,1.3-0.3,2.6-0.3,3.9
			c0.1,1.6,0.3,3.1,0.7,4.5c0.4,1.5,1,2.8,1.8,4c0.8,1.2,1.7,2.1,2.8,2.8s2.3,1.1,3.7,1.1c1.8,0.1,3.7-0.4,5.7-1.3
			c2-0.9,3.9-2.4,5.8-4.5c0.5-0.5,1-0.8,1.6-0.9c0.6,0,1.1,0.1,1.5,0.4c0.4,0.3,0.7,0.7,0.8,1.3c0.1,0.5,0,1-0.4,1.6
			c-1,1.4-2.2,2.6-3.4,3.5c-1.3,1-2.6,1.8-3.9,2.4c-1.3,0.6-2.7,1.1-4,1.4c-1.3,0.3-2.5,0.5-3.7,0.5c-2.2,0-4.1-0.5-5.7-1.5
			c-1.6-1-3-2.2-4.1-3.8c-1.1-1.5-1.9-3.3-2.5-5.3s-0.8-4-0.8-6.1c0-1.8,0.2-3.6,0.6-5.3c0.4-1.8,1-3.4,1.9-4.9
			c0.9-1.5,2-2.7,3.4-3.7C889.5,40.1,891.2,39.4,893.2,39.1z"/>
		<path class="st5" d="M935.7,39.4c0.1-0.8,0.3-1.3,0.8-1.7s0.9-0.5,1.5-0.5c0.5,0,1,0.2,1.4,0.5c0.4,0.4,0.7,0.9,0.7,1.7
			c0.2,5.1,0.3,10.2,0.4,15.3c0.1,5.1,0.3,10.4,0.6,15.8c-0.1,0.6-0.3,1.1-0.8,1.4c-0.4,0.3-0.9,0.5-1.4,0.5c-0.5,0-1-0.2-1.4-0.4
			c-0.4-0.3-0.7-0.8-0.8-1.4l-0.3-4.4c-1.4,1.3-3.1,2.2-5.1,2.7c-2,0.5-4.4,0.5-7.1-0.2c-1.6-0.4-3-1-4.1-1.9
			c-1.1-0.9-2.1-1.9-2.8-3.1c-0.7-1.2-1.2-2.5-1.6-4c-0.3-1.4-0.4-2.9-0.3-4.4c0.1-1.7,0.5-3.4,1.1-5.1c0.6-1.6,1.5-3.1,2.6-4.4
			c1.1-1.3,2.5-2.3,4-3.1c1.6-0.7,3.4-1.1,5.3-1.1c1.4,0.1,2.8,0.4,4,0.9c1.2,0.6,2.3,1.3,3.3,2.2c-0.1-0.8-0.1-1.7-0.1-2.6
			C935.8,41.2,935.7,40.3,935.7,39.4z M925.5,64.3c1.2,0.5,2.4,0.6,3.5,0.4c1.2-0.2,2.2-0.6,3.2-1.3c1-0.7,1.8-1.5,2.5-2.5
			c0.7-1,1.2-2.1,1.5-3.2l-0.2-5c-0.5-1.7-1.2-3-2.2-4c-1-1-2.1-1.7-3.3-2.1c-1.2-0.4-2.4-0.5-3.7-0.3c-1.3,0.2-2.4,0.7-3.5,1.5
			c-1,0.8-1.9,1.9-2.5,3.3c-0.7,1.4-1,3.1-0.9,5.1c0.1,1.7,0.5,3.4,1.4,4.9C922.2,62.4,923.6,63.5,925.5,64.3z"/>
		<path class="st5" d="M950.1,41c0-0.8,0.2-1.3,0.7-1.7c0.4-0.4,0.9-0.5,1.5-0.5c0.6,0,1.1,0.2,1.5,0.5c0.4,0.4,0.7,0.9,0.7,1.7
			l0,4.1c1-0.9,2-1.6,3.3-2.1c1.2-0.5,2.5-0.8,3.7-0.8c1.3,0,2.5,0.3,3.7,0.9c1.2,0.6,2.3,1.5,3.2,2.8c0.4,0.7,0.6,1.3,0.5,1.9
			c-0.1,0.6-0.3,1.1-0.6,1.4c-0.4,0.3-0.8,0.5-1.4,0.4c-0.6-0.1-1.1-0.4-1.7-1.1c-1.3-1.7-2.9-2.4-4.8-2.2c-1.9,0.2-3.4,1.4-4.5,3.5
			c-0.5,1-0.8,2.2-1,3.6c-0.2,1.4-0.3,2.8-0.4,4.4l0.1,12.3c0,0.7-0.2,1.1-0.7,1.4c-0.5,0.3-1,0.4-1.5,0.4c-0.5,0-1-0.2-1.5-0.4
			s-0.7-0.8-0.7-1.4L950.1,41z"/>
		<path class="st5" d="M984.3,44.5l0.4,26c-0.1,0.7-0.3,1.1-0.7,1.4c-0.4,0.3-0.9,0.4-1.4,0.4c-0.5,0-1-0.2-1.5-0.4
			c-0.5-0.3-0.7-0.8-0.8-1.4l-0.4-25.8l-6.6,0.1c-0.7,0-1.3-0.2-1.7-0.6c-0.4-0.4-0.7-0.8-0.7-1.3c-0.1-0.5,0.1-0.9,0.4-1.4
			c0.4-0.4,0.9-0.7,1.7-0.7l6.7-0.2l-0.2-15.9c0-0.8,0.2-1.3,0.7-1.7c0.4-0.4,0.9-0.5,1.5-0.5s1,0.2,1.5,0.5
			c0.5,0.4,0.7,0.9,0.7,1.7l0.2,15.8l7.5-0.2c0.7,0,1.2,0.2,1.5,0.6c0.4,0.4,0.6,0.8,0.6,1.3c0.1,0.5-0.1,1-0.4,1.4
			c-0.3,0.4-0.8,0.6-1.4,0.6L984.3,44.5z"/>
		<path class="st5" d="M1025.4,53c-0.8,0.5-2.3,0.9-4.4,1.3c-2.1,0.4-4.3,0.8-6.7,1.2c-2.4,0.4-4.7,0.7-7,0.9
			c-2.3,0.2-4,0.4-5.3,0.4c0.1,1.7,0.5,3.2,1.1,4.6c0.6,1.4,1.4,2.6,2.3,3.5c1,0.9,2.1,1.6,3.4,2.1c1.3,0.4,2.8,0.5,4.3,0.2
			c1.9-0.3,3.5-1,5-2c1.5-1,3-2.5,4.5-4.5c0.5-0.5,1-0.8,1.6-0.9c0.6-0.1,1.1,0.1,1.6,0.4c0.4,0.3,0.8,0.7,0.9,1.2s0.1,1.1-0.2,1.7
			c-2,2.6-4.1,4.6-6.2,5.8c-2.1,1.3-4.1,2.1-6.2,2.5c-2.2,0.4-4.3,0.3-6.3-0.2c-2-0.6-3.8-1.6-5.3-3c-1.5-1.4-2.7-3.2-3.6-5.3
			c-0.9-2.2-1.3-4.6-1.3-7.4c0-2,0.2-3.9,0.7-5.8c0.4-1.9,1.2-3.7,2.1-5.3c1-1.6,2.2-2.9,3.7-4c1.5-1.1,3.4-1.8,5.6-2.1
			c1.9-0.2,3.7-0.1,5.6,0.3c1.9,0.4,3.5,1.2,5,2.3c1.5,1.1,2.8,2.5,3.8,4.1c1,1.7,1.7,3.6,2,5.8C1026.2,52,1026,52.7,1025.4,53z
			 M1009.6,42.9c-1.2,0.2-2.2,0.7-3.1,1.3c-0.9,0.6-1.6,1.4-2.2,2.2c-0.6,0.8-1.1,1.8-1.4,2.8c-0.3,1-0.6,2.1-0.7,3.3
			c3.4,0,6.7-0.3,9.7-0.8c3.1-0.5,6.3-1.2,9.6-1.9c-0.2-1.1-0.7-2.2-1.4-3.2s-1.6-1.8-2.6-2.5c-1-0.7-2.2-1.1-3.6-1.3
			C1012.6,42.6,1011.1,42.6,1009.6,42.9z"/>
	</g>
	<g>
		<path d="M49.7,19c0.7,0,1.2,0.2,1.5,0.7c0.3,0.4,0.4,1,0.4,1.5c0,0.6-0.2,1.1-0.5,1.5c-0.4,0.4-0.9,0.7-1.5,0.7l-11.9,0.1
			l-0.4,46.3c0,0.8-0.2,1.4-0.7,1.8c-0.5,0.4-1,0.7-1.5,0.8c-0.6,0.1-1.1-0.1-1.5-0.4c-0.5-0.3-0.7-0.9-0.7-1.7l0.4-46.8l-11.7,0.1
			c-0.8-0.1-1.3-0.3-1.7-0.8c-0.4-0.5-0.5-1-0.5-1.5c0-0.5,0.2-1,0.6-1.5c0.4-0.4,1-0.7,1.7-0.7L49.7,19z"/>
		<path d="M53.4,41c0-0.8,0.2-1.3,0.7-1.7c0.4-0.4,0.9-0.5,1.5-0.5c0.6,0,1.1,0.2,1.5,0.5c0.4,0.4,0.7,0.9,0.7,1.7l0,4.1
			c1-0.9,2-1.6,3.3-2.1c1.2-0.5,2.5-0.8,3.7-0.8s2.5,0.3,3.7,0.9c1.2,0.6,2.3,1.5,3.2,2.8c0.4,0.7,0.6,1.3,0.5,1.9
			c-0.1,0.6-0.3,1.1-0.6,1.4c-0.4,0.3-0.8,0.5-1.4,0.4c-0.6-0.1-1.1-0.4-1.7-1.1c-1.3-1.7-2.9-2.4-4.8-2.2c-1.9,0.2-3.4,1.4-4.5,3.5
			c-0.5,1-0.8,2.2-1,3.6c-0.2,1.4-0.3,2.8-0.4,4.4l0.1,12.3c0,0.7-0.2,1.1-0.7,1.4s-1,0.4-1.5,0.4c-0.5,0-1-0.2-1.5-0.4
			s-0.7-0.8-0.7-1.4L53.4,41z"/>
		<path d="M90.1,70.3c-2.4,0.1-4.5-0.3-6.3-1.1s-3.3-1.8-4.4-3.2c-1.2-1.4-2-2.9-2.6-4.6c-0.5-1.7-0.8-3.5-0.8-5.3
			c0-1.8,0.3-3.5,0.9-5.2c0.6-1.7,1.5-3.2,2.6-4.5c1.2-1.3,2.6-2.4,4.3-3.2s3.7-1.2,6-1.3c2.3,0,4.3,0.4,6,1.2
			c1.7,0.8,3.2,1.9,4.3,3.2c1.1,1.4,2,2.9,2.5,4.6c0.5,1.7,0.8,3.5,0.8,5.3c0,1.7-0.3,3.4-0.9,5.1c-0.6,1.7-1.4,3.1-2.5,4.5
			c-1.1,1.3-2.5,2.4-4.2,3.2C94.3,69.9,92.3,70.3,90.1,70.3z M90.2,66.1c1.5,0,2.8-0.3,3.9-0.8c1.1-0.5,2-1.3,2.8-2.2
			c0.7-0.9,1.3-2,1.7-3.2c0.4-1.2,0.5-2.4,0.5-3.7c0-1.3-0.2-2.5-0.6-3.7c-0.4-1.2-1-2.3-1.8-3.2c-0.8-0.9-1.8-1.7-3-2.2
			c-1.2-0.5-2.5-0.8-4-0.8c-1.5,0.1-2.8,0.4-4,1c-1.1,0.6-2.1,1.4-2.8,2.3c-0.7,0.9-1.3,2-1.7,3.1c-0.4,1.2-0.6,2.4-0.6,3.6
			c0.1,2.5,0.9,4.7,2.5,6.6C84.8,64.9,87.1,65.9,90.2,66.1z"/>
		<path d="M111.7,32.5c0-0.7,0.2-1.2,0.6-1.6c0.4-0.4,0.9-0.6,1.5-0.6c0.7,0,1.2,0.2,1.6,0.6c0.4,0.4,0.6,1,0.6,1.6
			c0,0.6-0.2,1.1-0.6,1.5c-0.4,0.4-1,0.6-1.6,0.6c-0.6,0-1.1-0.2-1.5-0.6C111.9,33.6,111.7,33.1,111.7,32.5z M111.7,41.5
			c0-0.8,0.2-1.3,0.7-1.7c0.5-0.4,1-0.5,1.6-0.5c0.6,0,1.1,0.2,1.6,0.5c0.5,0.4,0.7,0.9,0.7,1.7c0,2.7,0,5.2,0,7.6
			c0,2.4,0.1,4.8,0.1,7.1c0.1,2.3,0.1,4.7,0.1,7.1c0,2.4,0,4.9,0,7.6c0,0.7-0.2,1.2-0.7,1.5c-0.5,0.3-1,0.5-1.6,0.5
			c-0.6,0-1.1-0.2-1.6-0.5c-0.5-0.3-0.7-0.8-0.7-1.5c0-2.7,0-5.2,0-7.6c0-2.4-0.1-4.8-0.1-7.1c0-2.3-0.1-4.7-0.1-7.1
			C111.7,46.8,111.7,44.2,111.7,41.5z"/>
		<path d="M128.7,64.9c0.9,0.9,2.2,1.6,4,2.1c1.7,0.5,3.5,0.7,5.2,0.7c1.7-0.1,3.3-0.4,4.6-1.1c1.3-0.7,2-1.7,2-3.1
			c0-1.3-0.4-2.3-1.3-3.1c-0.9-0.7-2-1.3-3.3-1.8c-1.3-0.4-2.8-0.8-4.3-1.2c-1.6-0.3-3-0.8-4.4-1.3c-1.3-0.5-2.5-1.3-3.5-2.2
			c-1-0.9-1.5-2.2-1.7-3.8c-0.1-1.7,0.1-3.1,0.7-4.4c0.6-1.3,1.4-2.3,2.5-3.2c1-0.9,2.2-1.5,3.6-2s2.7-0.7,4.2-0.9
			c2-0.1,4,0.2,5.7,1s3.2,1.9,4.1,3.3c0.4,0.5,0.5,1.1,0.4,1.6c-0.1,0.5-0.4,0.9-0.8,1.2c-0.4,0.3-0.9,0.4-1.4,0.4
			c-0.5-0.1-1-0.4-1.5-0.9c-0.8-0.8-1.8-1.5-3.1-1.9c-1.3-0.4-2.5-0.6-3.9-0.5c-1.7,0.2-3.1,0.7-4.4,1.6c-1.3,0.9-1.9,2.1-1.8,3.6
			c0,1,0.5,1.8,1.4,2.3c0.9,0.5,2.1,1,3.5,1.4c1.4,0.4,2.9,0.8,4.5,1.3c1.6,0.4,3.1,1,4.4,1.8c1.4,0.7,2.5,1.7,3.3,3
			c0.9,1.2,1.3,2.9,1.2,4.9c-0.1,1.6-0.6,3-1.5,4.1c-0.9,1.1-2.1,2-3.5,2.7c-1.4,0.7-3,1.1-4.7,1.3c-1.7,0.2-3.5,0.3-5.2,0.1
			c-1.7-0.2-3.3-0.6-4.8-1.1c-1.5-0.6-2.7-1.3-3.6-2.3c-0.5-0.5-0.8-1.1-0.7-1.8c0.1-0.7,0.3-1.2,0.7-1.7c0.4-0.4,0.9-0.7,1.5-0.8
			C127.6,64.2,128.2,64.4,128.7,64.9z"/>
		<path d="M185.8,47.6c1.1-2.1,2.4-3.8,4.1-5.2c1.6-1.4,3.7-2.1,6.2-2.2c1.6,0,2.9,0.4,4,1.1c1.1,0.7,2.1,1.6,2.9,2.8
			c0.8,1.1,1.5,2.4,2,3.8c0.5,1.4,1,2.8,1.3,4.1c0.2-1,0.6-2.1,1.2-3.4c0.6-1.3,1.3-2.5,2.2-3.7c0.9-1.2,1.9-2.2,3.1-3
			c1.2-0.8,2.4-1.3,3.8-1.3c2-0.1,3.7,0.3,5,1.1c1.4,0.8,2.5,1.9,3.4,3.4s1.6,3.1,2.1,5.1c0.5,1.9,0.9,4,1.2,6.2
			c0.3,2.2,0.4,4.4,0.5,6.7c0.1,2.3,0.1,4.6,0.1,6.8c0,0.7-0.2,1.1-0.7,1.4c-0.4,0.3-1,0.4-1.5,0.4c-0.6,0-1.1-0.2-1.5-0.4
			s-0.7-0.8-0.7-1.4c-0.1-2.7-0.1-5.5-0.2-8.5c-0.1-3-0.4-5.7-0.8-8.1c-0.4-2.5-1.2-4.5-2.1-6.1c-1-1.6-2.3-2.4-4.1-2.3
			c-1.6,0.1-2.9,0.7-4,2.1c-1.1,1.3-2.1,3.1-2.8,5.4c-0.7,2.3-1.3,5-1.6,8.1c-0.3,3.1-0.4,6.5-0.2,10.1c0,0.5-0.2,1-0.7,1.3
			c-0.4,0.3-0.9,0.5-1.5,0.6c-0.5,0.1-1-0.1-1.5-0.4c-0.5-0.3-0.7-0.9-0.7-1.6c-0.2-2.9-0.4-5.9-0.6-9c-0.2-3.1-0.6-5.9-1.1-8.4
			c-0.5-2.5-1.3-4.6-2.3-6.2c-1-1.6-2.4-2.3-4.2-2.3c-1.5,0-2.8,0.5-3.8,1.4c-1,1-1.9,2.2-2.6,3.7c-0.7,1.5-1.2,3.2-1.6,5.2
			c-0.4,1.9-0.6,3.9-0.8,5.8s-0.3,3.9-0.3,5.7c0,1.8,0,3.4,0,4.7c-0.1,0.5-0.4,0.8-0.9,1.1c-0.5,0.2-1,0.4-1.5,0.4
			c-0.5,0-1-0.1-1.5-0.4c-0.4-0.2-0.7-0.6-0.7-1.1c-0.4-4.4-0.6-9.2-0.6-14.2c-0.1-5-0.2-10.2-0.5-15.4c0.1-0.8,0.3-1.3,0.8-1.7
			c0.4-0.4,0.9-0.5,1.5-0.5c0.5,0,1,0.2,1.4,0.5c0.4,0.4,0.7,0.9,0.7,1.7L185.8,47.6z"/>
		<path d="M249.4,70.3c-2.4,0.1-4.5-0.3-6.3-1.1s-3.3-1.8-4.4-3.2c-1.2-1.4-2-2.9-2.6-4.6c-0.5-1.7-0.8-3.5-0.8-5.3
			c0-1.8,0.3-3.5,0.9-5.2c0.6-1.7,1.5-3.2,2.6-4.5c1.2-1.3,2.6-2.4,4.3-3.2s3.7-1.2,6-1.3c2.3,0,4.3,0.4,6,1.2
			c1.7,0.8,3.2,1.9,4.3,3.2c1.1,1.4,2,2.9,2.5,4.6c0.5,1.7,0.8,3.5,0.8,5.3c0,1.7-0.3,3.4-0.9,5.1c-0.6,1.7-1.4,3.1-2.5,4.5
			c-1.1,1.3-2.5,2.4-4.2,3.2C253.6,69.9,251.7,70.3,249.4,70.3z M249.5,66.1c1.5,0,2.8-0.3,3.9-0.8c1.1-0.5,2-1.3,2.8-2.2
			c0.7-0.9,1.3-2,1.7-3.2c0.4-1.2,0.5-2.4,0.5-3.7c0-1.3-0.2-2.5-0.6-3.7c-0.4-1.2-1-2.3-1.8-3.2c-0.8-0.9-1.8-1.7-3-2.2
			c-1.2-0.5-2.5-0.8-4-0.8c-1.5,0.1-2.8,0.4-4,1c-1.1,0.6-2.1,1.4-2.8,2.3c-0.7,0.9-1.3,2-1.7,3.1c-0.4,1.2-0.6,2.4-0.6,3.6
			c0.1,2.5,0.9,4.7,2.5,6.6C244.1,64.9,246.4,65.9,249.5,66.1z"/>
		<path d="M271,32.5c0-0.7,0.2-1.2,0.6-1.6c0.4-0.4,0.9-0.6,1.5-0.6c0.7,0,1.2,0.2,1.6,0.6c0.4,0.4,0.6,1,0.6,1.6
			c0,0.6-0.2,1.1-0.6,1.5c-0.4,0.4-1,0.6-1.6,0.6c-0.6,0-1.1-0.2-1.5-0.6C271.3,33.6,271,33.1,271,32.5z M271,41.5
			c0-0.8,0.2-1.3,0.7-1.7c0.5-0.4,1-0.5,1.6-0.5c0.6,0,1.1,0.2,1.6,0.5c0.5,0.4,0.7,0.9,0.7,1.7c0,2.7,0,5.2,0,7.6
			c0,2.4,0.1,4.8,0.1,7.1c0.1,2.3,0.1,4.7,0.1,7.1c0,2.4,0,4.9,0,7.6c0,0.7-0.2,1.2-0.7,1.5c-0.5,0.3-1,0.5-1.6,0.5
			c-0.6,0-1.1-0.2-1.6-0.5c-0.5-0.3-0.7-0.8-0.7-1.5c0-2.7,0-5.2,0-7.6c0-2.4-0.1-4.8-0.1-7.1c0-2.3-0.1-4.7-0.1-7.1
			C271.1,46.8,271,44.2,271,41.5z"/>
		<path d="M288,64.9c0.9,0.9,2.2,1.6,4,2.1c1.7,0.5,3.5,0.7,5.2,0.7c1.7-0.1,3.3-0.4,4.6-1.1c1.3-0.7,2-1.7,2-3.1
			c0-1.3-0.4-2.3-1.3-3.1c-0.9-0.7-2-1.3-3.3-1.8c-1.3-0.4-2.8-0.8-4.3-1.2c-1.6-0.3-3-0.8-4.4-1.3c-1.3-0.5-2.5-1.3-3.5-2.2
			c-1-0.9-1.5-2.2-1.7-3.8c-0.1-1.7,0.1-3.1,0.7-4.4c0.6-1.3,1.4-2.3,2.5-3.2c1-0.9,2.2-1.5,3.6-2s2.7-0.7,4.2-0.9
			c2-0.1,4,0.2,5.7,1s3.2,1.9,4.1,3.3c0.4,0.5,0.5,1.1,0.4,1.6c-0.1,0.5-0.4,0.9-0.8,1.2c-0.4,0.3-0.9,0.4-1.4,0.4
			c-0.5-0.1-1-0.4-1.5-0.9c-0.8-0.8-1.8-1.5-3.1-1.9c-1.3-0.4-2.5-0.6-3.9-0.5c-1.7,0.2-3.1,0.7-4.4,1.6c-1.3,0.9-1.9,2.1-1.8,3.6
			c0,1,0.5,1.8,1.4,2.3c0.9,0.5,2.1,1,3.5,1.4c1.4,0.4,2.9,0.8,4.5,1.3c1.6,0.4,3.1,1,4.4,1.8c1.4,0.7,2.5,1.7,3.3,3
			c0.9,1.2,1.3,2.9,1.2,4.9c-0.1,1.6-0.6,3-1.5,4.1c-0.9,1.1-2.1,2-3.5,2.7c-1.4,0.7-3,1.1-4.7,1.3c-1.7,0.2-3.5,0.3-5.2,0.1
			c-1.7-0.2-3.3-0.6-4.8-1.1c-1.5-0.6-2.7-1.3-3.6-2.3c-0.5-0.5-0.8-1.1-0.7-1.8c0.1-0.7,0.3-1.2,0.7-1.7c0.4-0.4,0.9-0.7,1.5-0.8
			C286.9,64.2,287.5,64.4,288,64.9z"/>
		<path d="M316.9,66.1c1.3,1.3,2.1,2.6,2.6,4.1s0.6,3,0.4,4.4c-0.2,1.5-0.7,2.8-1.6,4.1c-0.9,1.3-2,2.3-3.5,3.1
			c-0.5,0.4-1,0.4-1.5,0.3c-0.5-0.2-0.9-0.5-1.1-0.9c-0.3-0.4-0.4-0.9-0.3-1.4c0.1-0.5,0.4-0.9,0.9-1.2c1-0.5,1.7-1.2,2.2-2
			c0.5-0.8,0.8-1.7,0.9-2.6c0.1-0.9,0-1.8-0.3-2.6c-0.3-0.9-0.7-1.7-1.3-2.4c-0.5-0.5-0.7-1-0.6-1.5c0.1-0.5,0.3-1,0.7-1.3
			s0.8-0.6,1.3-0.6C315.9,65.5,316.4,65.6,316.9,66.1z"/>
		<path d="M373.7,21.2c0.1-0.8,0.3-1.4,0.7-1.8c0.4-0.4,0.9-0.6,1.4-0.6s1,0.2,1.5,0.6c0.4,0.4,0.7,1,0.8,1.8
			c-0.2,4.4-0.3,8.5-0.4,12.5c-0.1,4-0.1,7.9,0,11.8c0,3.9,0.1,7.8,0.1,11.8c0.1,4,0.1,8.2,0.2,12.5c-0.1,0.7-0.4,1.2-0.8,1.5
			c-0.4,0.3-0.9,0.5-1.4,0.5c-0.5,0-1-0.2-1.4-0.5c-0.4-0.3-0.7-0.8-0.8-1.5c0-0.7,0-1.3,0-2c0-0.7,0-1.3,0-2
			c-1.9,1.9-4.2,3.1-7,3.7c-2.7,0.6-5.4,0.5-7.9-0.3c-2.5-0.8-4.8-2.3-6.6-4.4c-1.9-2.2-3-5.2-3.3-8.9c-0.2-4.2,0.6-7.6,2.3-10.1
			c1.7-2.5,3.9-4.3,6.5-5.3c2.6-1,5.3-1.2,8.2-0.6c2.9,0.6,5.4,1.9,7.5,4c-0.1-3.7,0-7.3,0-11C373.4,29.3,373.5,25.4,373.7,21.2z
			 M373.3,55.6c-0.1-2.7-0.6-4.9-1.8-6.7c-1.1-1.8-2.4-3.1-4-3.9c-1.6-0.8-3.2-1.2-5-1.1c-1.8,0.1-3.4,0.6-4.8,1.6
			c-1.4,1-2.6,2.4-3.5,4.2c-0.9,1.8-1.2,4.1-0.9,6.8c0.2,2.3,0.9,4.1,2,5.5c1.1,1.4,2.4,2.4,3.9,3c1.5,0.6,3,0.8,4.7,0.7
			c1.7-0.1,3.2-0.6,4.6-1.4c1.4-0.8,2.5-1.9,3.4-3.4C372.8,59.3,373.3,57.6,373.3,55.6z"/>
		<path d="M413,53c-0.8,0.5-2.3,0.9-4.4,1.3c-2.1,0.4-4.3,0.8-6.7,1.2c-2.4,0.4-4.7,0.7-7,0.9c-2.3,0.2-4,0.4-5.3,0.4
			c0.1,1.7,0.5,3.2,1.1,4.6c0.6,1.4,1.4,2.6,2.3,3.5c1,0.9,2.1,1.6,3.4,2.1c1.3,0.4,2.8,0.5,4.3,0.2c1.9-0.3,3.5-1,5-2
			c1.5-1,3-2.5,4.5-4.5c0.5-0.5,1-0.8,1.6-0.9c0.6-0.1,1.1,0.1,1.6,0.4c0.4,0.3,0.8,0.7,0.9,1.2s0.1,1.1-0.2,1.7
			c-2,2.6-4.1,4.6-6.2,5.8c-2.1,1.3-4.1,2.1-6.2,2.5c-2.2,0.4-4.3,0.3-6.3-0.2c-2-0.6-3.8-1.6-5.3-3c-1.5-1.4-2.7-3.2-3.6-5.3
			c-0.9-2.2-1.3-4.6-1.3-7.4c0-2,0.2-3.9,0.7-5.8c0.4-1.9,1.2-3.7,2.1-5.3c1-1.6,2.2-2.9,3.7-4c1.5-1.1,3.4-1.8,5.6-2.1
			c1.9-0.2,3.7-0.1,5.6,0.3c1.9,0.4,3.5,1.2,5,2.3c1.5,1.1,2.8,2.5,3.8,4.1c1,1.7,1.7,3.6,2,5.8C413.9,52,413.6,52.7,413,53z
			 M397.2,42.9c-1.2,0.2-2.2,0.7-3.1,1.3c-0.9,0.6-1.6,1.4-2.2,2.2c-0.6,0.8-1.1,1.8-1.4,2.8c-0.3,1-0.6,2.1-0.7,3.3
			c3.4,0,6.7-0.3,9.7-0.8c3.1-0.5,6.3-1.2,9.6-1.9c-0.2-1.1-0.7-2.2-1.4-3.2s-1.6-1.8-2.6-2.5c-1-0.7-2.2-1.1-3.6-1.3
			C400.2,42.6,398.8,42.6,397.2,42.9z"/>
		<path d="M447.5,42.2c0.1,2.8,0.1,5.1,0.1,6.8c0,1.7,0.1,3.2,0.1,4.4c0,1.2,0,2.2,0,3.1c0,0.9,0,2,0,3.1c0,1.1,0,2.5,0,4.2
			c0,1.6,0,3.8,0,6.5c0,0.7-0.2,1.3-0.7,1.6c-0.5,0.4-1,0.5-1.6,0.5c-0.6,0-1.1-0.2-1.6-0.5c-0.5-0.3-0.7-0.8-0.7-1.5v-4.6
			c-1.1,1.7-2.4,3-4,4c-1.6,1-3.6,1.4-5.9,1.4c-2,0.1-3.8-0.3-5.2-1.1c-1.4-0.8-2.6-1.9-3.5-3.3c-0.9-1.4-1.6-3.1-2.1-4.9
			c-0.5-1.9-0.8-3.9-1.1-6c-0.2-2.1-0.4-4.3-0.4-6.5c0-2.2,0-4.4,0-6.5c0-0.7,0.2-1.2,0.7-1.5c0.4-0.4,0.9-0.6,1.5-0.6
			c0.5,0,1,0.1,1.5,0.4c0.5,0.3,0.7,0.9,0.7,1.6c0.1,2.6,0.1,5.4,0.2,8.2c0.1,2.8,0.3,5.5,0.8,7.9c0.4,2.4,1.2,4.4,2.3,6
			c1.1,1.6,2.7,2.3,4.9,2.3c3.4,0,5.7-1.8,7.2-5.5c1.4-3.7,2.2-8.8,2.2-15.4v-3.8c0-0.7,0.2-1.2,0.7-1.5s0.9-0.6,1.5-0.6
			c0.5-0.1,1,0.1,1.5,0.4C447.2,41,447.5,41.5,447.5,42.2z"/>
		<path d="M466.4,51.1l6.6-10.1c0.4-0.7,0.9-1,1.5-1.2c0.6-0.1,1.1,0,1.6,0.2c0.4,0.3,0.7,0.7,0.9,1.2c0.1,0.5,0,1.1-0.4,1.8
			L469,54.8l10.7,15.4c0.4,0.5,0.4,1.1,0.3,1.6s-0.5,1-1,1.3c-0.5,0.3-1,0.5-1.6,0.4c-0.6,0-1.1-0.3-1.5-0.9l-9.4-13.7l-8.2,12.7
			c-0.4,0.6-0.8,0.9-1.4,0.9c-0.6,0-1.1-0.1-1.6-0.4c-0.5-0.3-0.8-0.7-1-1.2c-0.2-0.5-0.1-1.1,0.3-1.7l9.3-14.2l-8.2-12
			c-0.5-0.7-0.6-1.3-0.4-1.8c0.2-0.5,0.5-0.9,0.9-1.2c0.4-0.3,1-0.3,1.6-0.2c0.6,0.1,1.1,0.5,1.6,1.1L466.4,51.1z"/>
		<path d="M513.7,64.9c0.9,0.9,2.2,1.6,4,2.1c1.7,0.5,3.5,0.7,5.2,0.7c1.7-0.1,3.3-0.4,4.6-1.1c1.3-0.7,2-1.7,2-3.1
			c0-1.3-0.4-2.3-1.3-3.1c-0.9-0.7-2-1.3-3.3-1.8c-1.3-0.4-2.8-0.8-4.3-1.2c-1.6-0.3-3-0.8-4.4-1.3c-1.3-0.5-2.5-1.3-3.5-2.2
			c-1-0.9-1.5-2.2-1.7-3.8c-0.1-1.7,0.1-3.1,0.7-4.4c0.6-1.3,1.4-2.3,2.5-3.2c1-0.9,2.2-1.5,3.6-2c1.3-0.4,2.7-0.7,4.2-0.9
			c2-0.1,4,0.2,5.7,1s3.2,1.9,4.1,3.3c0.4,0.5,0.5,1.1,0.4,1.6c-0.1,0.5-0.4,0.9-0.8,1.2c-0.4,0.3-0.9,0.4-1.4,0.4
			c-0.5-0.1-1-0.4-1.5-0.9c-0.8-0.8-1.8-1.5-3.1-1.9c-1.3-0.4-2.5-0.6-3.9-0.5c-1.7,0.2-3.1,0.7-4.4,1.6c-1.3,0.9-1.9,2.1-1.8,3.6
			c0,1,0.5,1.8,1.4,2.3c0.9,0.5,2.1,1,3.5,1.4c1.4,0.4,2.9,0.8,4.5,1.3c1.6,0.4,3.1,1,4.4,1.8c1.4,0.7,2.5,1.7,3.3,3
			c0.9,1.2,1.3,2.9,1.2,4.9c-0.1,1.6-0.6,3-1.5,4.1c-0.9,1.1-2.1,2-3.5,2.7c-1.4,0.7-3,1.1-4.7,1.3c-1.7,0.2-3.5,0.3-5.2,0.1
			c-1.7-0.2-3.3-0.6-4.8-1.1c-1.5-0.6-2.7-1.3-3.6-2.3c-0.5-0.5-0.8-1.1-0.7-1.8c0.1-0.7,0.3-1.2,0.7-1.7c0.4-0.4,0.9-0.7,1.5-0.8
			C512.6,64.2,513.2,64.4,513.7,64.9z"/>
		<path d="M559.5,39.4c0.1-0.8,0.3-1.3,0.8-1.7s0.9-0.5,1.5-0.5c0.5,0,1,0.2,1.4,0.5c0.4,0.4,0.7,0.9,0.7,1.7
			c0.2,5.1,0.3,10.2,0.4,15.3c0.1,5.1,0.3,10.4,0.6,15.8c-0.1,0.6-0.3,1.1-0.8,1.4c-0.4,0.3-0.9,0.5-1.4,0.5c-0.5,0-1-0.2-1.4-0.4
			c-0.4-0.3-0.7-0.8-0.8-1.4l-0.3-4.4c-1.4,1.3-3.1,2.2-5.1,2.7c-2,0.5-4.4,0.5-7.1-0.2c-1.6-0.4-3-1-4.1-1.9
			c-1.1-0.9-2.1-1.9-2.8-3.1c-0.7-1.2-1.2-2.5-1.6-4c-0.3-1.4-0.4-2.9-0.3-4.4c0.1-1.7,0.5-3.4,1.1-5.1c0.6-1.6,1.5-3.1,2.6-4.4
			c1.1-1.3,2.5-2.3,4-3.1c1.6-0.7,3.4-1.1,5.3-1.1c1.4,0.1,2.8,0.4,4,0.9c1.2,0.6,2.3,1.3,3.3,2.2c-0.1-0.8-0.1-1.7-0.1-2.6
			C559.5,41.2,559.5,40.3,559.5,39.4z M549.3,64.3c1.2,0.5,2.4,0.6,3.5,0.4c1.2-0.2,2.2-0.6,3.2-1.3c1-0.7,1.8-1.5,2.5-2.5
			c0.7-1,1.2-2.1,1.5-3.2l-0.2-5c-0.5-1.7-1.2-3-2.2-4c-1-1-2.1-1.7-3.3-2.1c-1.2-0.4-2.4-0.5-3.7-0.3c-1.3,0.2-2.4,0.7-3.5,1.5
			c-1,0.8-1.9,1.9-2.5,3.3c-0.7,1.4-1,3.1-0.9,5.1c0.1,1.7,0.5,3.4,1.4,4.9C546,62.4,547.3,63.5,549.3,64.3z"/>
		<path d="M574.8,32.5c0-0.7,0.2-1.2,0.6-1.6c0.4-0.4,0.9-0.6,1.5-0.6c0.7,0,1.2,0.2,1.6,0.6c0.4,0.4,0.6,1,0.6,1.6
			c0,0.6-0.2,1.1-0.6,1.5c-0.4,0.4-1,0.6-1.6,0.6c-0.6,0-1.1-0.2-1.5-0.6C575,33.6,574.8,33.1,574.8,32.5z M574.8,41.5
			c0-0.8,0.2-1.3,0.7-1.7c0.5-0.4,1-0.5,1.6-0.5c0.6,0,1.1,0.2,1.6,0.5c0.5,0.4,0.7,0.9,0.7,1.7c0,2.7,0,5.2,0,7.6
			c0,2.4,0.1,4.8,0.1,7.1c0.1,2.3,0.1,4.7,0.1,7.1c0,2.4,0,4.9,0,7.6c0,0.7-0.2,1.2-0.7,1.5c-0.5,0.3-1,0.5-1.6,0.5
			c-0.6,0-1.1-0.2-1.6-0.5c-0.5-0.3-0.7-0.8-0.7-1.5c0-2.7,0-5.2,0-7.6c0-2.4-0.1-4.8-0.1-7.1c0-2.3-0.1-4.7-0.1-7.1
			C574.8,46.8,574.8,44.2,574.8,41.5z"/>
		<path d="M591.8,64.9c0.9,0.9,2.2,1.6,4,2.1c1.7,0.5,3.5,0.7,5.2,0.7c1.7-0.1,3.3-0.4,4.6-1.1c1.3-0.7,2-1.7,2-3.1
			c0-1.3-0.4-2.3-1.3-3.1c-0.9-0.7-2-1.3-3.3-1.8c-1.3-0.4-2.8-0.8-4.3-1.2c-1.6-0.3-3-0.8-4.4-1.3c-1.3-0.5-2.5-1.3-3.5-2.2
			c-1-0.9-1.5-2.2-1.7-3.8c-0.1-1.7,0.1-3.1,0.7-4.4c0.6-1.3,1.4-2.3,2.5-3.2c1-0.9,2.2-1.5,3.6-2c1.3-0.4,2.7-0.7,4.2-0.9
			c2-0.1,4,0.2,5.7,1s3.2,1.9,4.1,3.3c0.4,0.5,0.5,1.1,0.4,1.6c-0.1,0.5-0.4,0.9-0.8,1.2c-0.4,0.3-0.9,0.4-1.4,0.4
			c-0.5-0.1-1-0.4-1.5-0.9c-0.8-0.8-1.8-1.5-3.1-1.9c-1.3-0.4-2.5-0.6-3.9-0.5c-1.7,0.2-3.1,0.7-4.4,1.6c-1.3,0.9-1.9,2.1-1.8,3.6
			c0,1,0.5,1.8,1.4,2.3c0.9,0.5,2.1,1,3.5,1.4c1.4,0.4,2.9,0.8,4.5,1.3c1.6,0.4,3.1,1,4.4,1.8c1.4,0.7,2.5,1.7,3.3,3
			c0.9,1.2,1.3,2.9,1.2,4.9c-0.1,1.6-0.6,3-1.5,4.1c-0.9,1.1-2.1,2-3.5,2.7c-1.4,0.7-3,1.1-4.7,1.3c-1.7,0.2-3.5,0.3-5.2,0.1
			c-1.7-0.2-3.3-0.6-4.8-1.1c-1.5-0.6-2.7-1.3-3.6-2.3c-0.5-0.5-0.8-1.1-0.7-1.8c0.1-0.7,0.3-1.2,0.7-1.7c0.4-0.4,0.9-0.7,1.5-0.8
			C590.7,64.2,591.2,64.4,591.8,64.9z"/>
		<path d="M631.4,70.3c-2.4,0.1-4.5-0.3-6.3-1.1c-1.8-0.8-3.3-1.8-4.4-3.2s-2-2.9-2.6-4.6c-0.5-1.7-0.8-3.5-0.8-5.3
			c0-1.8,0.3-3.5,0.9-5.2c0.6-1.7,1.5-3.2,2.6-4.5c1.2-1.3,2.6-2.4,4.3-3.2c1.7-0.8,3.7-1.2,6-1.3c2.3,0,4.3,0.4,6,1.2
			c1.7,0.8,3.2,1.9,4.3,3.2c1.1,1.4,2,2.9,2.5,4.6c0.5,1.7,0.8,3.5,0.8,5.3c0,1.7-0.3,3.4-0.9,5.1c-0.6,1.7-1.4,3.1-2.5,4.5
			c-1.1,1.3-2.5,2.4-4.2,3.2C635.6,69.9,633.6,70.3,631.4,70.3z M631.5,66.1c1.5,0,2.8-0.3,3.9-0.8c1.1-0.5,2-1.3,2.8-2.2
			c0.7-0.9,1.3-2,1.7-3.2c0.4-1.2,0.5-2.4,0.5-3.7c0-1.3-0.2-2.5-0.6-3.7c-0.4-1.2-1-2.3-1.8-3.2c-0.8-0.9-1.8-1.7-3-2.2
			c-1.2-0.5-2.5-0.8-4-0.8c-1.5,0.1-2.8,0.4-4,1c-1.1,0.6-2.1,1.4-2.8,2.3c-0.8,0.9-1.3,2-1.7,3.1c-0.4,1.2-0.6,2.4-0.6,3.6
			c0.1,2.5,0.9,4.7,2.5,6.6C626.1,64.9,628.4,65.9,631.5,66.1z"/>
		<path d="M656.4,71.8c-0.4,0.4-1,0.6-1.5,0.6c-0.6,0-1.1-0.2-1.5-0.6s-0.7-0.9-0.7-1.7c0-5.2-0.1-10.2-0.3-15
			c-0.2-4.8-0.3-9.6-0.3-14.4c0-0.7,0.2-1.3,0.7-1.7c0.4-0.4,0.9-0.6,1.5-0.6s1,0.2,1.5,0.6c0.5,0.4,0.7,0.9,0.7,1.7l0.1,4.4
			c1-1.4,2.2-2.5,3.7-3.3c1.4-0.8,3.2-1.3,5.3-1.4c2.6-0.1,4.8,0.5,6.6,1.7c1.7,1.2,3.1,2.7,4.2,4.5c1.1,1.8,1.9,3.9,2.4,6.1
			c0.5,2.2,0.8,4.4,0.9,6.6c0.1,1.9,0.2,3.8,0.2,5.6c0,1.8,0,3.5-0.1,4.9c0,0.8-0.2,1.3-0.7,1.7s-0.9,0.6-1.5,0.6
			c-0.5,0-1-0.1-1.5-0.4c-0.4-0.3-0.7-0.8-0.7-1.5c-0.1-1.5-0.1-3.2,0-5c0.1-1.9,0-3.7-0.1-5.7c-0.1-1.3-0.2-2.7-0.5-4.4
			c-0.3-1.7-0.8-3.3-1.5-4.9c-0.7-1.5-1.6-2.8-2.8-3.9c-1.2-1-2.6-1.5-4.4-1.5c-2,0.1-3.7,0.7-4.9,1.7c-1.2,1-2.1,2.2-2.7,3.7
			c-0.6,1.5-1,3.2-1.2,5c-0.2,1.8-0.3,3.6-0.3,5.3v9.6C657.1,70.8,656.8,71.4,656.4,71.8z"/>
		<path d="M690.1,64.9c0.9,0.9,2.2,1.6,4,2.1c1.7,0.5,3.5,0.7,5.2,0.7c1.7-0.1,3.3-0.4,4.6-1.1c1.3-0.7,2-1.7,2-3.1
			c0-1.3-0.4-2.3-1.3-3.1c-0.9-0.7-2-1.3-3.3-1.8c-1.3-0.4-2.8-0.8-4.3-1.2c-1.6-0.3-3-0.8-4.4-1.3c-1.3-0.5-2.5-1.3-3.5-2.2
			c-1-0.9-1.5-2.2-1.7-3.8c-0.1-1.7,0.1-3.1,0.7-4.4c0.6-1.3,1.4-2.3,2.5-3.2c1-0.9,2.2-1.5,3.6-2c1.3-0.4,2.7-0.7,4.2-0.9
			c2-0.1,4,0.2,5.7,1s3.2,1.9,4.1,3.3c0.4,0.5,0.5,1.1,0.4,1.6c-0.1,0.5-0.4,0.9-0.8,1.2c-0.4,0.3-0.9,0.4-1.4,0.4
			c-0.5-0.1-1-0.4-1.5-0.9c-0.8-0.8-1.8-1.5-3.1-1.9c-1.3-0.4-2.5-0.6-3.9-0.5c-1.7,0.2-3.1,0.7-4.4,1.6c-1.3,0.9-1.9,2.1-1.8,3.6
			c0,1,0.5,1.8,1.4,2.3c0.9,0.5,2.1,1,3.5,1.4c1.4,0.4,2.9,0.8,4.5,1.3c1.6,0.4,3.1,1,4.4,1.8c1.4,0.7,2.5,1.7,3.3,3
			c0.9,1.2,1.3,2.9,1.2,4.9c-0.1,1.6-0.6,3-1.5,4.1c-0.9,1.1-2.1,2-3.5,2.7c-1.4,0.7-3,1.1-4.7,1.3c-1.7,0.2-3.5,0.3-5.2,0.1
			c-1.7-0.2-3.3-0.6-4.8-1.1c-1.5-0.6-2.7-1.3-3.6-2.3c-0.5-0.5-0.8-1.1-0.7-1.8c0.1-0.7,0.3-1.2,0.7-1.7c0.4-0.4,0.9-0.7,1.5-0.8
			C689,64.2,689.6,64.4,690.1,64.9z"/>
		<path d="M741.4,52c-0.7,0-1.3-0.2-1.7-0.7s-0.6-0.9-0.6-1.5c0-0.5,0.2-1,0.5-1.5c0.4-0.5,0.9-0.7,1.7-0.7l17.2-0.4
			c0.7,0,1.2,0.2,1.5,0.7c0.4,0.4,0.6,1,0.6,1.5c0,0.6-0.1,1.1-0.4,1.5s-0.9,0.7-1.6,0.7L741.4,52z"/>
		<path d="M793.7,71.8c-0.7,0-1.3-0.2-1.7-0.4s-0.7-0.8-0.7-1.6l0.4-48.8c0-0.8,0.2-1.3,0.7-1.7c0.5-0.4,1-0.5,1.6-0.5
			c0.5,0,1.1,0.3,1.5,0.7c0.5,0.4,0.7,1,0.7,1.8l-0.4,46.2l23-0.3c0.7,0,1.2,0.2,1.5,0.7c0.4,0.4,0.6,1,0.6,1.5
			c0,0.6-0.1,1.1-0.4,1.5c-0.3,0.4-0.9,0.7-1.6,0.7L793.7,71.8z"/>
		<path d="M844.6,39.4c0.1-0.8,0.3-1.3,0.8-1.7s0.9-0.5,1.5-0.5c0.5,0,1,0.2,1.4,0.5c0.4,0.4,0.7,0.9,0.7,1.7
			c0.2,5.1,0.3,10.2,0.4,15.3c0.1,5.1,0.3,10.4,0.6,15.8c-0.1,0.6-0.3,1.1-0.8,1.4c-0.4,0.3-0.9,0.5-1.4,0.5c-0.5,0-1-0.2-1.4-0.4
			c-0.4-0.3-0.7-0.8-0.8-1.4l-0.3-4.4c-1.4,1.3-3.1,2.2-5.1,2.7c-2,0.5-4.4,0.5-7.1-0.2c-1.6-0.4-3-1-4.1-1.9
			c-1.1-0.9-2.1-1.9-2.8-3.1c-0.7-1.2-1.2-2.5-1.6-4c-0.3-1.4-0.4-2.9-0.3-4.4c0.1-1.7,0.5-3.4,1.1-5.1c0.6-1.6,1.5-3.1,2.6-4.4
			c1.1-1.3,2.5-2.3,4-3.1c1.6-0.7,3.4-1.1,5.3-1.1c1.4,0.1,2.8,0.4,4,0.9c1.2,0.6,2.3,1.3,3.3,2.2c-0.1-0.8-0.1-1.7-0.1-2.6
			C844.6,41.2,844.6,40.3,844.6,39.4z M834.3,64.3c1.2,0.5,2.4,0.6,3.5,0.4c1.2-0.2,2.2-0.6,3.2-1.3c1-0.7,1.8-1.5,2.5-2.5
			c0.7-1,1.2-2.1,1.5-3.2l-0.2-5c-0.5-1.7-1.2-3-2.2-4c-1-1-2.1-1.7-3.3-2.1c-1.2-0.4-2.4-0.5-3.7-0.3c-1.3,0.2-2.4,0.7-3.5,1.5
			c-1,0.8-1.9,1.9-2.5,3.3c-0.7,1.4-1,3.1-0.9,5.1c0.1,1.7,0.5,3.4,1.4,4.9C831,62.4,832.4,63.5,834.3,64.3z"/>
		<path d="M893.2,39.1c1.3-0.2,2.6-0.1,4,0.1c1.3,0.2,2.6,0.7,3.7,1.4c1.1,0.7,2.1,1.6,3,2.7c0.9,1.1,1.5,2.5,1.9,4.1
			c0.2,0.7,0.1,1.2-0.2,1.6c-0.3,0.4-0.7,0.7-1.2,0.8c-0.5,0.1-1,0.1-1.5-0.2c-0.5-0.2-0.9-0.7-1-1.3c-0.7-1.9-1.8-3.4-3.1-4.4
			c-1.4-1-3.1-1.3-5.1-0.9c-1.4,0.2-2.5,0.7-3.4,1.5c-0.9,0.7-1.6,1.6-2.2,2.7c-0.6,1-1,2.2-1.2,3.5c-0.2,1.3-0.3,2.6-0.3,3.9
			c0.1,1.6,0.3,3.1,0.7,4.5c0.4,1.5,1,2.8,1.8,4c0.8,1.2,1.7,2.1,2.8,2.8s2.3,1.1,3.7,1.1c1.8,0.1,3.7-0.4,5.7-1.3
			c2-0.9,3.9-2.4,5.8-4.5c0.5-0.5,1-0.8,1.6-0.9c0.6,0,1.1,0.1,1.5,0.4c0.4,0.3,0.7,0.7,0.8,1.3c0.1,0.5,0,1-0.4,1.6
			c-1,1.4-2.2,2.6-3.4,3.5c-1.3,1-2.6,1.8-3.9,2.4c-1.3,0.6-2.7,1.1-4,1.4c-1.3,0.3-2.5,0.5-3.7,0.5c-2.2,0-4.1-0.5-5.7-1.5
			c-1.6-1-3-2.2-4.1-3.8c-1.1-1.5-1.9-3.3-2.5-5.3s-0.8-4-0.8-6.1c0-1.8,0.2-3.6,0.6-5.3c0.4-1.8,1-3.4,1.9-4.9
			c0.9-1.5,2-2.7,3.4-3.7C889.5,40.1,891.2,39.4,893.2,39.1z"/>
		<path d="M935.7,39.4c0.1-0.8,0.3-1.3,0.8-1.7s0.9-0.5,1.5-0.5c0.5,0,1,0.2,1.4,0.5c0.4,0.4,0.7,0.9,0.7,1.7
			c0.2,5.1,0.3,10.2,0.4,15.3c0.1,5.1,0.3,10.4,0.6,15.8c-0.1,0.6-0.3,1.1-0.8,1.4c-0.4,0.3-0.9,0.5-1.4,0.5c-0.5,0-1-0.2-1.4-0.4
			c-0.4-0.3-0.7-0.8-0.8-1.4l-0.3-4.4c-1.4,1.3-3.1,2.2-5.1,2.7c-2,0.5-4.4,0.5-7.1-0.2c-1.6-0.4-3-1-4.1-1.9
			c-1.1-0.9-2.1-1.9-2.8-3.1c-0.7-1.2-1.2-2.5-1.6-4c-0.3-1.4-0.4-2.9-0.3-4.4c0.1-1.7,0.5-3.4,1.1-5.1c0.6-1.6,1.5-3.1,2.6-4.4
			c1.1-1.3,2.5-2.3,4-3.1c1.6-0.7,3.4-1.1,5.3-1.1c1.4,0.1,2.8,0.4,4,0.9c1.2,0.6,2.3,1.3,3.3,2.2c-0.1-0.8-0.1-1.7-0.1-2.6
			C935.8,41.2,935.7,40.3,935.7,39.4z M925.5,64.3c1.2,0.5,2.4,0.6,3.5,0.4c1.2-0.2,2.2-0.6,3.2-1.3c1-0.7,1.8-1.5,2.5-2.5
			c0.7-1,1.2-2.1,1.5-3.2l-0.2-5c-0.5-1.7-1.2-3-2.2-4c-1-1-2.1-1.7-3.3-2.1c-1.2-0.4-2.4-0.5-3.7-0.3c-1.3,0.2-2.4,0.7-3.5,1.5
			c-1,0.8-1.9,1.9-2.5,3.3c-0.7,1.4-1,3.1-0.9,5.1c0.1,1.7,0.5,3.4,1.4,4.9C922.2,62.4,923.6,63.5,925.5,64.3z"/>
		<path d="M950.1,41c0-0.8,0.2-1.3,0.7-1.7c0.4-0.4,0.9-0.5,1.5-0.5c0.6,0,1.1,0.2,1.5,0.5c0.4,0.4,0.7,0.9,0.7,1.7l0,4.1
			c1-0.9,2-1.6,3.3-2.1c1.2-0.5,2.5-0.8,3.7-0.8c1.3,0,2.5,0.3,3.7,0.9c1.2,0.6,2.3,1.5,3.2,2.8c0.4,0.7,0.6,1.3,0.5,1.9
			c-0.1,0.6-0.3,1.1-0.6,1.4c-0.4,0.3-0.8,0.5-1.4,0.4c-0.6-0.1-1.1-0.4-1.7-1.1c-1.3-1.7-2.9-2.4-4.8-2.2c-1.9,0.2-3.4,1.4-4.5,3.5
			c-0.5,1-0.8,2.2-1,3.6c-0.2,1.4-0.3,2.8-0.4,4.4l0.1,12.3c0,0.7-0.2,1.1-0.7,1.4c-0.5,0.3-1,0.4-1.5,0.4c-0.5,0-1-0.2-1.5-0.4
			s-0.7-0.8-0.7-1.4L950.1,41z"/>
		<path d="M984.3,44.5l0.4,26c-0.1,0.7-0.3,1.1-0.7,1.4c-0.4,0.3-0.9,0.4-1.4,0.4c-0.5,0-1-0.2-1.5-0.4c-0.5-0.3-0.7-0.8-0.8-1.4
			l-0.4-25.8l-6.6,0.1c-0.7,0-1.3-0.2-1.7-0.6c-0.4-0.4-0.7-0.8-0.7-1.3c-0.1-0.5,0.1-0.9,0.4-1.4c0.4-0.4,0.9-0.7,1.7-0.7l6.7-0.2
			l-0.2-15.9c0-0.8,0.2-1.3,0.7-1.7c0.4-0.4,0.9-0.5,1.5-0.5s1,0.2,1.5,0.5c0.5,0.4,0.7,0.9,0.7,1.7l0.2,15.8l7.5-0.2
			c0.7,0,1.2,0.2,1.5,0.6c0.4,0.4,0.6,0.8,0.6,1.3c0.1,0.5-0.1,1-0.4,1.4c-0.3,0.4-0.8,0.6-1.4,0.6L984.3,44.5z"/>
		<path d="M1025.4,53c-0.8,0.5-2.3,0.9-4.4,1.3c-2.1,0.4-4.3,0.8-6.7,1.2c-2.4,0.4-4.7,0.7-7,0.9c-2.3,0.2-4,0.4-5.3,0.4
			c0.1,1.7,0.5,3.2,1.1,4.6c0.6,1.4,1.4,2.6,2.3,3.5c1,0.9,2.1,1.6,3.4,2.1c1.3,0.4,2.8,0.5,4.3,0.2c1.9-0.3,3.5-1,5-2
			c1.5-1,3-2.5,4.5-4.5c0.5-0.5,1-0.8,1.6-0.9c0.6-0.1,1.1,0.1,1.6,0.4c0.4,0.3,0.8,0.7,0.9,1.2s0.1,1.1-0.2,1.7
			c-2,2.6-4.1,4.6-6.2,5.8c-2.1,1.3-4.1,2.1-6.2,2.5c-2.2,0.4-4.3,0.3-6.3-0.2c-2-0.6-3.8-1.6-5.3-3c-1.5-1.4-2.7-3.2-3.6-5.3
			c-0.9-2.2-1.3-4.6-1.3-7.4c0-2,0.2-3.9,0.7-5.8c0.4-1.9,1.2-3.7,2.1-5.3c1-1.6,2.2-2.9,3.7-4c1.5-1.1,3.4-1.8,5.6-2.1
			c1.9-0.2,3.7-0.1,5.6,0.3c1.9,0.4,3.5,1.2,5,2.3c1.5,1.1,2.8,2.5,3.8,4.1c1,1.7,1.7,3.6,2,5.8C1026.2,52,1026,52.7,1025.4,53z
			 M1009.6,42.9c-1.2,0.2-2.2,0.7-3.1,1.3c-0.9,0.6-1.6,1.4-2.2,2.2c-0.6,0.8-1.1,1.8-1.4,2.8c-0.3,1-0.6,2.1-0.7,3.3
			c3.4,0,6.7-0.3,9.7-0.8c3.1-0.5,6.3-1.2,9.6-1.9c-0.2-1.1-0.7-2.2-1.4-3.2s-1.6-1.8-2.6-2.5c-1-0.7-2.2-1.1-3.6-1.3
			C1012.6,42.6,1011.1,42.6,1009.6,42.9z"/>
	</g>
</g>
</svg>
