<?xml version="1.0" encoding="utf-8"?>
<!-- Generator: Adobe Illustrator 27.4.1, SVG Export Plug-In . SVG Version: 6.00 Build 0)  -->
<svg version="1.1" id="Calque_1" xmlns="http://www.w3.org/2000/svg" xmlns:xlink="http://www.w3.org/1999/xlink" x="0px" y="0px"
	 viewBox="0 0 1039 101" style="enable-background:new 0 0 1039 101;" xml:space="preserve">
<style type="text/css">
	.st0{stroke:#FFFFFF;stroke-width:9.7212;stroke-miterlimit:10;}
</style>
<g>
	<path class="st0" d="M45.7,22.4c0.7,0,1.2,0.2,1.5,0.7c0.3,0.4,0.4,1,0.4,1.5c0,0.6-0.2,1.1-0.5,1.5c-0.4,0.4-0.9,0.7-1.5,0.7
		l-11.8,0.1L33.4,73c0,0.8-0.2,1.4-0.7,1.8c-0.5,0.4-1,0.7-1.5,0.8c-0.5,0.1-1.1-0.1-1.5-0.4c-0.5-0.3-0.7-0.9-0.7-1.7l0.4-46.6
		l-11.6,0.1c-0.8-0.1-1.3-0.3-1.7-0.8c-0.4-0.5-0.5-1-0.5-1.5c0-0.5,0.2-1,0.6-1.5c0.4-0.4,1-0.7,1.7-0.7L45.7,22.4z"/>
	<path class="st0" d="M49.5,44.3c0-0.8,0.2-1.3,0.7-1.7c0.4-0.4,0.9-0.5,1.5-0.5c0.6,0,1.1,0.2,1.5,0.5c0.4,0.4,0.7,0.9,0.7,1.7
		l0,4.1c1-0.9,2-1.6,3.3-2.1c1.2-0.5,2.5-0.8,3.7-0.8c1.3,0,2.5,0.3,3.7,0.9c1.2,0.6,2.3,1.5,3.2,2.8c0.4,0.7,0.6,1.3,0.5,1.9
		c-0.1,0.6-0.3,1.1-0.6,1.4c-0.4,0.3-0.8,0.5-1.4,0.4c-0.6-0.1-1.1-0.4-1.7-1.1c-1.3-1.7-2.9-2.4-4.7-2.2c-1.9,0.2-3.3,1.4-4.5,3.4
		c-0.5,1-0.8,2.2-1,3.6c-0.2,1.4-0.3,2.8-0.4,4.4L54,73.3c0,0.7-0.2,1.1-0.7,1.4c-0.5,0.3-1,0.4-1.5,0.4s-1-0.1-1.5-0.4
		c-0.5-0.3-0.7-0.8-0.7-1.4L49.5,44.3z"/>
	<path class="st0" d="M86.1,73.5c-2.4,0.1-4.5-0.3-6.2-1.1c-1.8-0.8-3.3-1.8-4.4-3.2c-1.2-1.3-2-2.9-2.5-4.6
		c-0.5-1.7-0.8-3.5-0.8-5.3c0-1.8,0.3-3.5,0.9-5.2c0.6-1.7,1.5-3.2,2.6-4.5c1.2-1.3,2.6-2.4,4.3-3.2c1.7-0.8,3.7-1.2,5.9-1.3
		c2.3,0,4.3,0.4,6,1.2c1.7,0.8,3.2,1.9,4.3,3.2c1.1,1.3,2,2.9,2.5,4.6c0.5,1.7,0.8,3.5,0.8,5.3c0,1.7-0.3,3.4-0.8,5.1
		c-0.6,1.6-1.4,3.1-2.5,4.4c-1.1,1.3-2.5,2.4-4.2,3.2C90.2,73.1,88.3,73.5,86.1,73.5z M86.1,69.3c1.5,0,2.8-0.3,3.9-0.8
		c1.1-0.5,2-1.3,2.8-2.2c0.7-0.9,1.3-2,1.7-3.2c0.4-1.2,0.5-2.4,0.5-3.7c0-1.3-0.2-2.5-0.6-3.7c-0.4-1.2-1-2.3-1.8-3.2
		c-0.8-0.9-1.8-1.7-3-2.2c-1.2-0.5-2.5-0.8-4-0.8c-1.5,0.1-2.8,0.4-3.9,1c-1.1,0.6-2.1,1.4-2.8,2.3c-0.7,0.9-1.3,2-1.7,3.1
		c-0.4,1.2-0.6,2.4-0.6,3.6c0.1,2.4,0.9,4.6,2.5,6.6C80.7,68.1,83.1,69.2,86.1,69.3z"/>
	<path class="st0" d="M107.6,35.8c0-0.7,0.2-1.2,0.6-1.6c0.4-0.4,0.9-0.6,1.5-0.6c0.7,0,1.2,0.2,1.6,0.6c0.4,0.4,0.6,1,0.6,1.6
		c0,0.6-0.2,1.1-0.6,1.5c-0.4,0.4-1,0.6-1.6,0.6c-0.6,0-1.1-0.2-1.5-0.6C107.8,36.9,107.6,36.4,107.6,35.8z M107.6,44.9
		c0-0.8,0.2-1.3,0.7-1.7c0.5-0.4,1-0.5,1.6-0.5c0.6,0,1.1,0.2,1.6,0.5c0.5,0.4,0.7,0.9,0.7,1.7c0,2.7,0,5.2,0,7.6
		c0,2.4,0.1,4.7,0.1,7.1c0.1,2.3,0.1,4.7,0.1,7.1c0,2.4,0,4.9,0,7.6c0,0.7-0.2,1.1-0.7,1.5c-0.5,0.3-1,0.5-1.6,0.5
		c-0.6,0-1.1-0.2-1.6-0.5c-0.5-0.3-0.7-0.8-0.7-1.5c0-2.7,0-5.2,0-7.6c0-2.4-0.1-4.7-0.1-7.1c0-2.3-0.1-4.7-0.1-7.1
		C107.6,50.1,107.6,47.5,107.6,44.9z"/>
	<path class="st0" d="M124.5,68.1c0.9,0.9,2.2,1.6,3.9,2.1c1.7,0.5,3.5,0.7,5.2,0.7c1.7-0.1,3.3-0.4,4.6-1.1c1.3-0.7,2-1.7,2-3.1
		c0-1.3-0.4-2.3-1.3-3c-0.9-0.7-2-1.3-3.3-1.7c-1.3-0.4-2.7-0.8-4.3-1.2c-1.6-0.3-3-0.8-4.3-1.3c-1.3-0.5-2.5-1.3-3.5-2.1
		c-1-0.9-1.5-2.1-1.7-3.8c-0.1-1.7,0.1-3.1,0.7-4.4c0.6-1.3,1.4-2.3,2.5-3.2c1-0.9,2.2-1.5,3.6-2c1.3-0.4,2.7-0.7,4.2-0.9
		c2-0.1,3.9,0.2,5.7,1c1.8,0.8,3.2,1.9,4.1,3.3c0.4,0.5,0.5,1.1,0.4,1.6c-0.1,0.5-0.4,0.9-0.8,1.2c-0.4,0.3-0.9,0.4-1.4,0.4
		c-0.5-0.1-1-0.4-1.5-0.9c-0.8-0.8-1.8-1.5-3-1.9c-1.3-0.4-2.5-0.6-3.8-0.5c-1.7,0.2-3.1,0.7-4.4,1.6c-1.3,0.9-1.9,2.1-1.8,3.6
		c0,1,0.5,1.8,1.4,2.3c0.9,0.5,2.1,1,3.5,1.4c1.4,0.4,2.9,0.8,4.5,1.3c1.6,0.4,3.1,1,4.4,1.7c1.3,0.7,2.5,1.7,3.3,3
		c0.9,1.2,1.3,2.8,1.2,4.9c-0.1,1.6-0.6,3-1.5,4.1c-0.9,1.1-2.1,2-3.5,2.7c-1.4,0.7-3,1.1-4.7,1.3c-1.7,0.2-3.5,0.3-5.2,0.1
		c-1.7-0.2-3.3-0.6-4.8-1.1c-1.5-0.6-2.7-1.3-3.6-2.3c-0.5-0.5-0.8-1.1-0.7-1.8c0.1-0.7,0.3-1.2,0.7-1.7c0.4-0.4,0.9-0.7,1.5-0.8
		C123.4,67.5,124,67.7,124.5,68.1z"/>
	<path class="st0" d="M181.5,50.9c1.1-2.1,2.4-3.8,4.1-5.2c1.6-1.4,3.7-2.1,6.2-2.1c1.6,0,2.9,0.4,4,1.1c1.1,0.7,2.1,1.6,2.9,2.8
		c0.8,1.1,1.5,2.4,2,3.8c0.5,1.4,1,2.8,1.3,4.1c0.2-1,0.6-2.1,1.2-3.4c0.6-1.3,1.3-2.5,2.1-3.7c0.9-1.2,1.9-2.2,3-3
		c1.2-0.8,2.4-1.3,3.8-1.3c2-0.1,3.6,0.3,5,1.1c1.4,0.8,2.5,1.9,3.4,3.4c0.9,1.4,1.6,3.1,2.1,5.1c0.5,1.9,0.9,4,1.2,6.2
		c0.3,2.2,0.4,4.4,0.5,6.7c0.1,2.3,0.1,4.6,0.1,6.8c0,0.7-0.2,1.1-0.7,1.4c-0.4,0.3-1,0.4-1.5,0.4c-0.6,0-1.1-0.1-1.5-0.4
		c-0.4-0.3-0.7-0.8-0.7-1.4c-0.1-2.7-0.1-5.5-0.2-8.5c-0.1-3-0.4-5.7-0.8-8.1c-0.4-2.4-1.1-4.5-2.1-6.1c-1-1.6-2.3-2.4-4.1-2.3
		c-1.6,0.1-2.9,0.7-4,2.1c-1.1,1.3-2.1,3.1-2.8,5.4c-0.7,2.3-1.3,5-1.6,8.1c-0.3,3.1-0.4,6.4-0.2,10c0,0.5-0.2,1-0.7,1.3
		c-0.4,0.3-0.9,0.5-1.5,0.6c-0.5,0.1-1-0.1-1.5-0.4c-0.5-0.3-0.7-0.9-0.7-1.6c-0.2-2.9-0.4-5.9-0.6-9c-0.2-3.1-0.6-5.9-1.1-8.4
		c-0.5-2.5-1.3-4.6-2.3-6.1c-1-1.6-2.4-2.3-4.2-2.3c-1.5,0-2.8,0.5-3.8,1.4c-1,1-1.9,2.2-2.6,3.7c-0.7,1.5-1.2,3.2-1.6,5.1
		c-0.4,1.9-0.6,3.9-0.8,5.8c-0.2,2-0.3,3.9-0.3,5.7c0,1.8,0,3.4,0,4.7c-0.1,0.5-0.4,0.8-0.9,1.1c-0.5,0.2-1,0.4-1.5,0.4
		c-0.5,0-1-0.1-1.5-0.4c-0.4-0.2-0.7-0.6-0.7-1.1c-0.4-4.4-0.6-9.1-0.6-14.1c-0.1-5-0.2-10.1-0.5-15.4c0.1-0.8,0.3-1.3,0.8-1.7
		c0.4-0.4,0.9-0.5,1.5-0.5s1,0.2,1.4,0.5c0.4,0.4,0.7,0.9,0.7,1.7L181.5,50.9z"/>
	<path class="st0" d="M244.9,73.5c-2.4,0.1-4.5-0.3-6.2-1.1c-1.8-0.8-3.3-1.8-4.4-3.2c-1.2-1.3-2-2.9-2.5-4.6
		c-0.5-1.7-0.8-3.5-0.8-5.3c0-1.8,0.3-3.5,0.9-5.2c0.6-1.7,1.5-3.2,2.6-4.5c1.2-1.3,2.6-2.4,4.3-3.2c1.7-0.8,3.7-1.2,5.9-1.3
		c2.3,0,4.3,0.4,6,1.2c1.7,0.8,3.2,1.9,4.3,3.2c1.1,1.3,2,2.9,2.5,4.6c0.5,1.7,0.8,3.5,0.8,5.3c0,1.7-0.3,3.4-0.8,5.1
		c-0.6,1.6-1.4,3.1-2.5,4.4c-1.1,1.3-2.5,2.4-4.2,3.2C249,73.1,247.1,73.5,244.9,73.5z M245,69.3c1.5,0,2.8-0.3,3.9-0.8
		c1.1-0.5,2-1.3,2.8-2.2c0.7-0.9,1.3-2,1.7-3.2c0.4-1.2,0.5-2.4,0.5-3.7c0-1.3-0.2-2.5-0.6-3.7c-0.4-1.2-1-2.3-1.8-3.2
		c-0.8-0.9-1.8-1.7-3-2.2c-1.2-0.5-2.5-0.8-4-0.8c-1.5,0.1-2.8,0.4-3.9,1c-1.1,0.6-2.1,1.4-2.8,2.3c-0.7,0.9-1.3,2-1.7,3.1
		c-0.4,1.2-0.6,2.4-0.6,3.6c0.1,2.4,0.9,4.6,2.5,6.6C239.6,68.1,241.9,69.2,245,69.3z"/>
	<path class="st0" d="M266.4,35.8c0-0.7,0.2-1.2,0.6-1.6c0.4-0.4,0.9-0.6,1.5-0.6c0.7,0,1.2,0.2,1.6,0.6c0.4,0.4,0.6,1,0.6,1.6
		c0,0.6-0.2,1.1-0.6,1.5c-0.4,0.4-1,0.6-1.6,0.6c-0.6,0-1.1-0.2-1.5-0.6C266.6,36.9,266.4,36.4,266.4,35.8z M266.4,44.9
		c0-0.8,0.2-1.3,0.7-1.7c0.5-0.4,1-0.5,1.6-0.5c0.6,0,1.1,0.2,1.6,0.5c0.5,0.4,0.7,0.9,0.7,1.7c0,2.7,0,5.2,0,7.6
		c0,2.4,0.1,4.7,0.1,7.1c0.1,2.3,0.1,4.7,0.1,7.1c0,2.4,0,4.9,0,7.6c0,0.7-0.2,1.1-0.7,1.5c-0.5,0.3-1,0.5-1.6,0.5
		c-0.6,0-1.1-0.2-1.6-0.5c-0.5-0.3-0.7-0.8-0.7-1.5c0-2.7,0-5.2,0-7.6c0-2.4-0.1-4.7-0.1-7.1c0-2.3-0.1-4.7-0.1-7.1
		C266.5,50.1,266.4,47.5,266.4,44.9z"/>
	<path class="st0" d="M283.4,68.1c0.9,0.9,2.2,1.6,3.9,2.1c1.7,0.5,3.5,0.7,5.2,0.7c1.7-0.1,3.3-0.4,4.6-1.1c1.3-0.7,2-1.7,2-3.1
		c0-1.3-0.4-2.3-1.3-3c-0.9-0.7-2-1.3-3.3-1.7c-1.3-0.4-2.7-0.8-4.3-1.2c-1.6-0.3-3-0.8-4.3-1.3c-1.3-0.5-2.5-1.3-3.5-2.1
		c-1-0.9-1.5-2.1-1.7-3.8c-0.1-1.7,0.1-3.1,0.7-4.4c0.6-1.3,1.4-2.3,2.5-3.2c1-0.9,2.2-1.5,3.6-2c1.3-0.4,2.7-0.7,4.2-0.9
		c2-0.1,3.9,0.2,5.7,1c1.8,0.8,3.2,1.9,4.1,3.3c0.4,0.5,0.5,1.1,0.4,1.6c-0.1,0.5-0.4,0.9-0.8,1.2c-0.4,0.3-0.9,0.4-1.4,0.4
		c-0.5-0.1-1-0.4-1.5-0.9c-0.8-0.8-1.8-1.5-3-1.9c-1.3-0.4-2.5-0.6-3.8-0.5c-1.7,0.2-3.1,0.7-4.4,1.6c-1.3,0.9-1.9,2.1-1.8,3.6
		c0,1,0.5,1.8,1.4,2.3c0.9,0.5,2.1,1,3.5,1.4c1.4,0.4,2.9,0.8,4.5,1.3c1.6,0.4,3.1,1,4.4,1.7c1.3,0.7,2.5,1.7,3.3,3
		c0.9,1.2,1.3,2.8,1.2,4.9c-0.1,1.6-0.6,3-1.5,4.1c-0.9,1.1-2.1,2-3.5,2.7c-1.4,0.7-3,1.1-4.7,1.3c-1.7,0.2-3.5,0.3-5.2,0.1
		c-1.7-0.2-3.3-0.6-4.8-1.1c-1.5-0.6-2.7-1.3-3.6-2.3c-0.5-0.5-0.8-1.1-0.7-1.8c0.1-0.7,0.3-1.2,0.7-1.7c0.4-0.4,0.9-0.7,1.5-0.8
		C282.3,67.5,282.8,67.7,283.4,68.1z"/>
	<path class="st0" d="M312.1,69.3c1.3,1.3,2.1,2.6,2.6,4.1c0.4,1.5,0.6,3,0.4,4.4c-0.2,1.5-0.7,2.8-1.6,4.1c-0.9,1.3-2,2.3-3.4,3.1
		c-0.5,0.4-1,0.4-1.5,0.3c-0.5-0.2-0.9-0.5-1.1-0.9c-0.3-0.4-0.4-0.9-0.3-1.4c0.1-0.5,0.4-0.9,0.9-1.2c1-0.5,1.7-1.2,2.1-2
		c0.5-0.8,0.8-1.7,0.9-2.6s0-1.8-0.3-2.6c-0.3-0.9-0.7-1.7-1.3-2.4c-0.5-0.5-0.7-1-0.6-1.5c0.1-0.5,0.3-1,0.7-1.3
		c0.4-0.4,0.8-0.6,1.3-0.6C311.1,68.7,311.6,68.9,312.1,69.3z"/>
	<path class="st0" d="M368.8,24.6c0.1-0.8,0.3-1.4,0.7-1.7c0.4-0.4,0.9-0.6,1.4-0.6s1,0.2,1.5,0.6c0.4,0.4,0.7,1,0.8,1.7
		c-0.2,4.4-0.3,8.5-0.4,12.4c-0.1,3.9-0.1,7.9,0,11.7c0,3.9,0.1,7.8,0.1,11.8c0.1,4,0.1,8.1,0.2,12.5c-0.1,0.7-0.4,1.1-0.8,1.5
		c-0.4,0.3-0.9,0.5-1.4,0.5c-0.5,0-1-0.2-1.4-0.5c-0.4-0.3-0.7-0.8-0.8-1.5c0-0.7,0-1.3,0-2c0-0.7,0-1.3,0-2
		c-1.9,1.8-4.2,3.1-6.9,3.7c-2.7,0.6-5.3,0.5-7.9-0.3c-2.5-0.8-4.7-2.3-6.6-4.4c-1.9-2.2-3-5.1-3.3-8.9c-0.2-4.2,0.6-7.5,2.3-10.1
		c1.7-2.5,3.9-4.3,6.5-5.2c2.6-1,5.3-1.1,8.2-0.6c2.9,0.6,5.3,1.9,7.4,4c-0.1-3.6,0-7.3,0-11C368.5,32.6,368.6,28.7,368.8,24.6z
		 M368.3,58.9c-0.1-2.7-0.6-4.9-1.7-6.7c-1.1-1.8-2.4-3.1-4-3.9c-1.6-0.8-3.2-1.2-5-1.1c-1.8,0.1-3.4,0.6-4.8,1.6
		c-1.4,1-2.6,2.3-3.4,4.2c-0.9,1.8-1.1,4.1-0.9,6.8c0.2,2.3,0.9,4.1,2,5.5c1.1,1.4,2.4,2.4,3.9,3c1.5,0.6,3,0.8,4.7,0.7
		c1.7-0.1,3.2-0.6,4.6-1.4c1.4-0.8,2.5-1.9,3.4-3.4C367.9,62.6,368.3,60.9,368.3,58.9z"/>
	<path class="st0" d="M408,56.3c-0.8,0.5-2.3,0.9-4.3,1.3c-2.1,0.4-4.3,0.8-6.7,1.2c-2.4,0.4-4.7,0.7-7,0.9c-2.3,0.2-4,0.4-5.3,0.4
		c0.1,1.7,0.5,3.2,1.1,4.6c0.6,1.4,1.4,2.6,2.3,3.5c1,0.9,2.1,1.6,3.4,2.1c1.3,0.4,2.7,0.5,4.3,0.2c1.8-0.3,3.5-1,5-2
		c1.5-1,3-2.5,4.5-4.5c0.5-0.5,1-0.8,1.6-0.9c0.6-0.1,1.1,0.1,1.6,0.4c0.4,0.3,0.8,0.7,0.9,1.2c0.2,0.5,0.1,1.1-0.2,1.7
		c-2,2.6-4.1,4.6-6.1,5.8c-2.1,1.3-4.1,2.1-6.2,2.5c-2.2,0.4-4.3,0.3-6.3-0.2c-2-0.6-3.8-1.6-5.3-3c-1.5-1.4-2.7-3.2-3.6-5.3
		c-0.9-2.1-1.3-4.6-1.3-7.3c0-2,0.2-3.9,0.7-5.8c0.4-1.9,1.1-3.7,2.1-5.2c1-1.6,2.2-2.9,3.7-4c1.5-1.1,3.4-1.8,5.6-2.1
		c1.9-0.2,3.7-0.1,5.6,0.3c1.8,0.4,3.5,1.2,5,2.3c1.5,1.1,2.7,2.4,3.8,4.1c1,1.7,1.7,3.6,2,5.8C408.8,55.3,408.6,56,408,56.3z
		 M392.2,46.2c-1.2,0.2-2.2,0.7-3.1,1.3c-0.9,0.6-1.6,1.4-2.2,2.2c-0.6,0.8-1.1,1.8-1.4,2.8c-0.3,1-0.6,2.1-0.7,3.3
		c3.4,0,6.6-0.3,9.7-0.8c3.1-0.5,6.3-1.2,9.5-1.9c-0.2-1.1-0.7-2.2-1.4-3.2c-0.7-1-1.6-1.8-2.6-2.5c-1-0.7-2.2-1.1-3.6-1.3
		C395.2,45.9,393.8,45.9,392.2,46.2z"/>
	<path class="st0" d="M442.4,45.5c0.1,2.8,0.1,5.1,0.1,6.8c0,1.7,0.1,3.2,0.1,4.3c0,1.2,0,2.2,0,3.1c0,0.9,0,2,0,3.1
		c0,1.1,0,2.5,0,4.2c0,1.6,0,3.8,0,6.5c0,0.7-0.2,1.3-0.7,1.6c-0.5,0.4-1,0.5-1.6,0.5c-0.6,0-1.1-0.2-1.6-0.5
		c-0.5-0.3-0.7-0.8-0.7-1.5v-4.6c-1.1,1.7-2.4,3-4,3.9c-1.6,1-3.6,1.4-5.9,1.4c-2,0.1-3.8-0.3-5.2-1.1c-1.4-0.8-2.6-1.9-3.5-3.3
		c-0.9-1.4-1.6-3-2.1-4.9c-0.5-1.9-0.8-3.9-1.1-6c-0.2-2.1-0.4-4.3-0.4-6.5c0-2.2,0-4.4,0-6.4c0-0.7,0.2-1.2,0.7-1.5
		c0.4-0.4,0.9-0.6,1.5-0.6c0.5,0,1,0.1,1.5,0.4c0.5,0.3,0.7,0.9,0.7,1.6c0.1,2.6,0.1,5.4,0.2,8.2c0.1,2.8,0.3,5.5,0.8,7.9
		c0.4,2.4,1.2,4.4,2.3,6c1.1,1.6,2.7,2.3,4.9,2.3c3.3,0,5.7-1.8,7.2-5.5c1.4-3.6,2.2-8.8,2.2-15.4v-3.8c0-0.7,0.2-1.2,0.7-1.5
		c0.4-0.4,0.9-0.6,1.5-0.6c0.5-0.1,1,0.1,1.5,0.4C442.1,44.3,442.3,44.8,442.4,45.5z"/>
	<path class="st0" d="M461.2,54.3l6.6-10.1c0.4-0.7,0.9-1,1.5-1.2c0.6-0.1,1.1,0,1.6,0.2c0.4,0.3,0.7,0.7,0.9,1.2
		c0.1,0.5,0,1.1-0.4,1.8l-7.6,11.8l10.7,15.3c0.4,0.5,0.4,1.1,0.3,1.6c-0.2,0.5-0.5,1-1,1.3c-0.5,0.3-1,0.5-1.6,0.4
		c-0.6,0-1.1-0.3-1.5-0.9l-9.4-13.7l-8.1,12.6c-0.4,0.6-0.8,0.9-1.4,0.9c-0.6,0-1.1-0.1-1.6-0.4c-0.5-0.3-0.8-0.7-1-1.2
		c-0.2-0.5-0.1-1.1,0.3-1.7l9.2-14.1l-8.1-12c-0.5-0.7-0.6-1.3-0.4-1.8c0.2-0.5,0.5-0.9,0.9-1.2c0.4-0.3,1-0.3,1.6-0.2
		c0.6,0.1,1.1,0.5,1.6,1.1L461.2,54.3z"/>
	<path class="st0" d="M508.4,68.1c0.9,0.9,2.2,1.6,3.9,2.1c1.7,0.5,3.5,0.7,5.2,0.7c1.7-0.1,3.3-0.4,4.6-1.1c1.3-0.7,2-1.7,2-3.1
		c0-1.3-0.4-2.3-1.3-3c-0.9-0.7-2-1.3-3.3-1.7c-1.3-0.4-2.7-0.8-4.3-1.2c-1.6-0.3-3-0.8-4.3-1.3c-1.3-0.5-2.5-1.3-3.5-2.1
		c-1-0.9-1.5-2.1-1.7-3.8c-0.1-1.7,0.1-3.1,0.7-4.4c0.6-1.3,1.4-2.3,2.5-3.2c1-0.9,2.2-1.5,3.6-2c1.3-0.4,2.7-0.7,4.2-0.9
		c2-0.1,3.9,0.2,5.7,1c1.8,0.8,3.2,1.9,4.1,3.3c0.4,0.5,0.5,1.1,0.4,1.6c-0.1,0.5-0.4,0.9-0.8,1.2c-0.4,0.3-0.9,0.4-1.4,0.4
		c-0.5-0.1-1-0.4-1.5-0.9c-0.8-0.8-1.8-1.5-3-1.9c-1.3-0.4-2.5-0.6-3.8-0.5c-1.7,0.2-3.1,0.7-4.4,1.6c-1.3,0.9-1.9,2.1-1.8,3.6
		c0,1,0.5,1.8,1.4,2.3c0.9,0.5,2.1,1,3.5,1.4c1.4,0.4,2.9,0.8,4.5,1.3c1.6,0.4,3.1,1,4.4,1.7c1.3,0.7,2.5,1.7,3.3,3
		c0.9,1.2,1.3,2.8,1.2,4.9c-0.1,1.6-0.6,3-1.5,4.1c-0.9,1.1-2.1,2-3.5,2.7c-1.4,0.7-3,1.1-4.7,1.3c-1.7,0.2-3.5,0.3-5.2,0.1
		c-1.7-0.2-3.3-0.6-4.8-1.1c-1.5-0.6-2.7-1.3-3.6-2.3c-0.5-0.5-0.8-1.1-0.7-1.8c0.1-0.7,0.3-1.2,0.7-1.7c0.4-0.4,0.9-0.7,1.5-0.8
		C507.3,67.5,507.8,67.7,508.4,68.1z"/>
	<path class="st0" d="M554,42.7c0.1-0.8,0.3-1.3,0.8-1.7c0.4-0.4,0.9-0.5,1.5-0.5c0.5,0,1,0.2,1.4,0.5c0.4,0.4,0.7,0.9,0.7,1.7
		c0.2,5.1,0.3,10.1,0.4,15.2c0.1,5.1,0.3,10.3,0.6,15.8c-0.1,0.6-0.3,1.1-0.8,1.4c-0.4,0.3-0.9,0.5-1.4,0.5c-0.5,0-1-0.1-1.4-0.4
		c-0.4-0.3-0.7-0.8-0.8-1.4l-0.3-4.4c-1.4,1.3-3.1,2.1-5.1,2.7c-2,0.5-4.3,0.5-7-0.2c-1.6-0.4-3-1-4.1-1.9c-1.1-0.9-2.1-1.9-2.8-3.1
		c-0.7-1.2-1.2-2.5-1.6-3.9c-0.3-1.4-0.4-2.9-0.3-4.4c0.1-1.7,0.5-3.4,1.1-5.1c0.6-1.6,1.5-3.1,2.6-4.4c1.1-1.3,2.4-2.3,4-3
		c1.6-0.7,3.4-1.1,5.3-1.1c1.4,0.1,2.7,0.4,3.9,0.9c1.2,0.6,2.3,1.3,3.3,2.2c-0.1-0.8-0.1-1.7-0.1-2.6C554,44.5,554,43.6,554,42.7z
		 M543.8,67.5c1.2,0.5,2.4,0.6,3.5,0.4c1.2-0.2,2.2-0.6,3.2-1.3c0.9-0.7,1.8-1.5,2.5-2.5c0.7-1,1.2-2.1,1.5-3.2l-0.2-5
		c-0.5-1.7-1.2-3-2.2-4c-1-1-2.1-1.7-3.3-2.1c-1.2-0.4-2.4-0.5-3.7-0.3c-1.3,0.2-2.4,0.7-3.5,1.5c-1,0.8-1.9,1.9-2.5,3.3
		c-0.7,1.4-1,3.1-0.9,5.1c0.1,1.7,0.5,3.4,1.4,4.9C540.5,65.7,541.9,66.8,543.8,67.5z"/>
	<path class="st0" d="M569.3,35.8c0-0.7,0.2-1.2,0.6-1.6c0.4-0.4,0.9-0.6,1.5-0.6c0.7,0,1.2,0.2,1.6,0.6c0.4,0.4,0.6,1,0.6,1.6
		c0,0.6-0.2,1.1-0.6,1.5c-0.4,0.4-1,0.6-1.6,0.6c-0.6,0-1.1-0.2-1.5-0.6C569.5,36.9,569.3,36.4,569.3,35.8z M569.3,44.9
		c0-0.8,0.2-1.3,0.7-1.7c0.5-0.4,1-0.5,1.6-0.5s1.1,0.2,1.6,0.5c0.5,0.4,0.7,0.9,0.7,1.7c0,2.7,0,5.2,0,7.6c0,2.4,0.1,4.7,0.1,7.1
		c0.1,2.3,0.1,4.7,0.1,7.1c0,2.4,0,4.9,0,7.6c0,0.7-0.2,1.1-0.7,1.5c-0.5,0.3-1,0.5-1.6,0.5s-1.1-0.2-1.6-0.5
		c-0.5-0.3-0.7-0.8-0.7-1.5c0-2.7,0-5.2,0-7.6c0-2.4-0.1-4.7-0.1-7.1c0-2.3-0.1-4.7-0.1-7.1C569.3,50.1,569.3,47.5,569.3,44.9z"/>
	<path class="st0" d="M586.2,68.1c0.9,0.9,2.2,1.6,3.9,2.1c1.7,0.5,3.5,0.7,5.2,0.7c1.7-0.1,3.3-0.4,4.6-1.1c1.3-0.7,2-1.7,2-3.1
		c0-1.3-0.4-2.3-1.3-3s-2-1.3-3.3-1.7c-1.3-0.4-2.7-0.8-4.3-1.2c-1.6-0.3-3-0.8-4.3-1.3c-1.3-0.5-2.5-1.3-3.5-2.1
		c-1-0.9-1.5-2.1-1.7-3.8c-0.1-1.7,0.1-3.1,0.7-4.4c0.6-1.3,1.4-2.3,2.5-3.2c1-0.9,2.2-1.5,3.6-2c1.3-0.4,2.7-0.7,4.2-0.9
		c2-0.1,3.9,0.2,5.7,1c1.8,0.8,3.2,1.9,4.1,3.3c0.4,0.5,0.5,1.1,0.4,1.6c-0.1,0.5-0.4,0.9-0.8,1.2c-0.4,0.3-0.9,0.4-1.4,0.4
		c-0.5-0.1-1-0.4-1.5-0.9c-0.8-0.8-1.8-1.5-3-1.9c-1.3-0.4-2.5-0.6-3.8-0.5c-1.7,0.2-3.1,0.7-4.4,1.6c-1.3,0.9-1.8,2.1-1.8,3.6
		c0,1,0.5,1.8,1.4,2.3c0.9,0.5,2.1,1,3.5,1.4c1.4,0.4,2.9,0.8,4.5,1.3c1.6,0.4,3.1,1,4.4,1.7c1.3,0.7,2.5,1.7,3.3,3
		c0.9,1.2,1.3,2.8,1.2,4.9c-0.1,1.6-0.6,3-1.5,4.1c-0.9,1.1-2.1,2-3.5,2.7c-1.4,0.7-3,1.1-4.7,1.3c-1.7,0.2-3.5,0.3-5.2,0.1
		c-1.7-0.2-3.3-0.6-4.8-1.1c-1.5-0.6-2.7-1.3-3.6-2.3c-0.5-0.5-0.8-1.1-0.7-1.8c0.1-0.7,0.3-1.2,0.7-1.7c0.4-0.4,0.9-0.7,1.5-0.8
		C585.1,67.5,585.6,67.7,586.2,68.1z"/>
	<path class="st0" d="M625.7,73.5c-2.4,0.1-4.5-0.3-6.2-1.1c-1.8-0.8-3.3-1.8-4.4-3.2c-1.2-1.3-2-2.9-2.5-4.6
		c-0.5-1.7-0.8-3.5-0.8-5.3c0-1.8,0.3-3.5,0.9-5.2c0.6-1.7,1.5-3.2,2.6-4.5c1.2-1.3,2.6-2.4,4.3-3.2c1.7-0.8,3.7-1.2,5.9-1.3
		c2.3,0,4.3,0.4,6,1.2c1.7,0.8,3.2,1.9,4.3,3.2c1.1,1.3,2,2.9,2.5,4.6c0.5,1.7,0.8,3.5,0.8,5.3c0,1.7-0.3,3.4-0.8,5.1
		c-0.6,1.6-1.4,3.1-2.5,4.4c-1.1,1.3-2.5,2.4-4.2,3.2C629.8,73.1,627.9,73.5,625.7,73.5z M625.8,69.3c1.5,0,2.8-0.3,3.9-0.8
		c1.1-0.5,2-1.3,2.8-2.2c0.7-0.9,1.3-2,1.7-3.2c0.4-1.2,0.5-2.4,0.5-3.7c0-1.3-0.2-2.5-0.6-3.7c-0.4-1.2-1-2.3-1.8-3.2
		c-0.8-0.9-1.8-1.7-3-2.2c-1.2-0.5-2.5-0.8-4-0.8c-1.5,0.1-2.8,0.4-3.9,1c-1.1,0.6-2.1,1.4-2.8,2.3c-0.7,0.9-1.3,2-1.7,3.1
		s-0.6,2.4-0.6,3.6c0.1,2.4,0.9,4.6,2.5,6.6C620.4,68.1,622.7,69.2,625.8,69.3z"/>
	<path class="st0" d="M650.6,75c-0.4,0.4-1,0.6-1.5,0.6c-0.6,0-1.1-0.2-1.5-0.6c-0.4-0.4-0.7-0.9-0.7-1.7c0-5.2-0.1-10.2-0.3-14.9
		c-0.2-4.7-0.3-9.5-0.3-14.4c0-0.7,0.2-1.3,0.7-1.7c0.4-0.4,0.9-0.6,1.5-0.6c0.5,0,1,0.2,1.5,0.6c0.5,0.4,0.7,0.9,0.7,1.7l0.1,4.4
		c1-1.4,2.2-2.5,3.7-3.3c1.4-0.8,3.2-1.3,5.3-1.4c2.6-0.1,4.8,0.5,6.5,1.6c1.7,1.2,3.1,2.6,4.2,4.5c1.1,1.8,1.9,3.9,2.4,6.1
		c0.5,2.2,0.8,4.4,0.9,6.6c0.1,1.9,0.2,3.8,0.2,5.6c0,1.8,0,3.4-0.1,4.9c0,0.8-0.2,1.3-0.7,1.7c-0.4,0.4-0.9,0.6-1.5,0.6
		c-0.5,0-1-0.1-1.5-0.4c-0.4-0.3-0.7-0.8-0.7-1.5c-0.1-1.5-0.1-3.2,0-5c0.1-1.8,0-3.7-0.1-5.6c-0.1-1.3-0.2-2.7-0.5-4.4
		c-0.3-1.7-0.8-3.3-1.5-4.8c-0.7-1.5-1.6-2.8-2.8-3.8c-1.2-1-2.6-1.5-4.4-1.5c-2,0.1-3.6,0.7-4.8,1.7c-1.2,1-2.1,2.2-2.7,3.7
		c-0.6,1.5-1,3.1-1.2,5c-0.2,1.8-0.3,3.6-0.3,5.3v9.6C651.3,74,651,74.6,650.6,75z"/>
	<path class="st0" d="M684.2,68.1c0.9,0.9,2.2,1.6,3.9,2.1c1.7,0.5,3.5,0.7,5.2,0.7c1.7-0.1,3.3-0.4,4.6-1.1s2-1.7,2-3.1
		c0-1.3-0.4-2.3-1.3-3c-0.9-0.7-2-1.3-3.3-1.7c-1.3-0.4-2.7-0.8-4.3-1.2c-1.6-0.3-3-0.8-4.3-1.3c-1.3-0.5-2.5-1.3-3.5-2.1
		c-1-0.9-1.5-2.1-1.7-3.8c-0.1-1.7,0.1-3.1,0.7-4.4c0.6-1.3,1.4-2.3,2.5-3.2c1-0.9,2.2-1.5,3.6-2c1.3-0.4,2.7-0.7,4.2-0.9
		c2-0.1,3.9,0.2,5.7,1c1.8,0.8,3.2,1.9,4.1,3.3c0.4,0.5,0.5,1.1,0.4,1.6c-0.1,0.5-0.4,0.9-0.8,1.2c-0.4,0.3-0.9,0.4-1.4,0.4
		c-0.5-0.1-1-0.4-1.5-0.9c-0.8-0.8-1.8-1.5-3-1.9c-1.3-0.4-2.5-0.6-3.8-0.5c-1.7,0.2-3.1,0.7-4.4,1.6c-1.3,0.9-1.9,2.1-1.8,3.6
		c0,1,0.5,1.8,1.4,2.3c0.9,0.5,2.1,1,3.5,1.4c1.4,0.4,2.9,0.8,4.5,1.3c1.6,0.4,3.1,1,4.4,1.7c1.3,0.7,2.5,1.7,3.3,3s1.3,2.8,1.2,4.9
		c-0.1,1.6-0.6,3-1.5,4.1c-0.9,1.1-2.1,2-3.5,2.7c-1.4,0.7-3,1.1-4.7,1.3c-1.7,0.2-3.5,0.3-5.2,0.1c-1.7-0.2-3.3-0.6-4.8-1.1
		c-1.5-0.6-2.7-1.3-3.6-2.3c-0.5-0.5-0.8-1.1-0.7-1.8c0.1-0.7,0.3-1.2,0.7-1.7c0.4-0.4,0.9-0.7,1.5-0.8S683.7,67.7,684.2,68.1z"/>
	<path class="st0" d="M735.3,55.2c-0.7,0-1.3-0.2-1.7-0.7c-0.4-0.4-0.6-0.9-0.6-1.5c0-0.5,0.2-1,0.5-1.5c0.4-0.5,0.9-0.7,1.7-0.7
		l17.2-0.4c0.7,0,1.2,0.2,1.5,0.7c0.4,0.4,0.6,1,0.6,1.5c0,0.6-0.1,1.1-0.4,1.5c-0.3,0.4-0.9,0.7-1.6,0.7L735.3,55.2z"/>
	<path class="st0" d="M787.5,75c-0.7,0-1.3-0.1-1.7-0.4c-0.5-0.3-0.7-0.8-0.7-1.6l0.4-48.6c0-0.8,0.2-1.3,0.7-1.7
		c0.5-0.4,1-0.5,1.6-0.5c0.5,0,1,0.3,1.5,0.7c0.5,0.4,0.7,1,0.7,1.8l-0.4,46l22.9-0.3c0.7,0,1.2,0.2,1.5,0.7c0.4,0.4,0.6,1,0.6,1.5
		c0,0.6-0.1,1.1-0.4,1.5c-0.3,0.4-0.9,0.7-1.6,0.7L787.5,75z"/>
	<path class="st0" d="M838.2,42.7c0.1-0.8,0.3-1.3,0.8-1.7c0.4-0.4,0.9-0.5,1.5-0.5c0.5,0,1,0.2,1.4,0.5c0.4,0.4,0.7,0.9,0.7,1.7
		c0.2,5.1,0.3,10.1,0.4,15.2c0.1,5.1,0.3,10.3,0.6,15.8c-0.1,0.6-0.3,1.1-0.8,1.4c-0.4,0.3-0.9,0.5-1.4,0.5c-0.5,0-1-0.1-1.4-0.4
		c-0.4-0.3-0.7-0.8-0.8-1.4l-0.3-4.4c-1.4,1.3-3.1,2.1-5.1,2.7c-2,0.5-4.3,0.5-7-0.2c-1.6-0.4-3-1-4.1-1.9c-1.1-0.9-2.1-1.9-2.8-3.1
		c-0.7-1.2-1.2-2.5-1.6-3.9c-0.3-1.4-0.4-2.9-0.3-4.4c0.1-1.7,0.5-3.4,1.1-5.1c0.6-1.6,1.5-3.1,2.6-4.4c1.1-1.3,2.4-2.3,4-3
		c1.6-0.7,3.4-1.1,5.3-1.1c1.4,0.1,2.7,0.4,3.9,0.9c1.2,0.6,2.3,1.3,3.3,2.2c-0.1-0.8-0.1-1.7-0.1-2.6
		C838.2,44.5,838.2,43.6,838.2,42.7z M828,67.5c1.2,0.5,2.4,0.6,3.5,0.4c1.2-0.2,2.2-0.6,3.2-1.3c0.9-0.7,1.8-1.5,2.5-2.5
		c0.7-1,1.2-2.1,1.5-3.2l-0.2-5c-0.5-1.7-1.2-3-2.2-4c-1-1-2.1-1.7-3.3-2.1c-1.2-0.4-2.4-0.5-3.7-0.3c-1.3,0.2-2.4,0.7-3.5,1.5
		c-1,0.8-1.9,1.9-2.5,3.3c-0.7,1.4-1,3.1-0.9,5.1c0.1,1.7,0.5,3.4,1.4,4.9C824.7,65.7,826.1,66.8,828,67.5z"/>
	<path class="st0" d="M886.7,42.4c1.3-0.2,2.6-0.1,4,0.1c1.3,0.2,2.6,0.7,3.7,1.4c1.1,0.7,2.1,1.6,3,2.7c0.9,1.1,1.5,2.5,1.9,4.1
		c0.2,0.7,0.1,1.2-0.2,1.6c-0.3,0.4-0.7,0.7-1.2,0.8c-0.5,0.1-1,0.1-1.5-0.2c-0.5-0.2-0.9-0.7-1-1.3c-0.7-1.9-1.8-3.4-3.1-4.3
		c-1.4-1-3.1-1.3-5.1-0.9c-1.4,0.2-2.5,0.7-3.4,1.5c-0.9,0.7-1.6,1.6-2.2,2.7c-0.6,1-1,2.2-1.2,3.5c-0.2,1.3-0.3,2.6-0.3,3.9
		c0.1,1.6,0.3,3.1,0.7,4.5c0.4,1.5,1,2.8,1.8,3.9c0.8,1.2,1.7,2.1,2.8,2.8c1.1,0.7,2.3,1.1,3.7,1.1c1.8,0.1,3.7-0.4,5.6-1.3
		c2-0.9,3.9-2.4,5.8-4.5c0.5-0.5,1-0.8,1.6-0.9c0.6,0,1.1,0.1,1.5,0.4c0.4,0.3,0.7,0.7,0.8,1.3c0.1,0.5,0,1-0.4,1.6
		c-1,1.4-2.1,2.5-3.4,3.5c-1.3,1-2.6,1.8-3.9,2.4c-1.3,0.6-2.7,1.1-4,1.4c-1.3,0.3-2.5,0.5-3.7,0.5c-2.1,0-4-0.5-5.7-1.5
		c-1.6-1-3-2.2-4.1-3.8c-1.1-1.5-1.9-3.3-2.5-5.3c-0.5-2-0.8-4-0.8-6.1c0-1.8,0.2-3.6,0.6-5.3c0.4-1.8,1-3.4,1.9-4.8
		c0.9-1.5,2-2.7,3.4-3.7C883,43.4,884.7,42.7,886.7,42.4z"/>
	<path class="st0" d="M929.1,42.7c0.1-0.8,0.3-1.3,0.8-1.7c0.4-0.4,0.9-0.5,1.5-0.5c0.5,0,1,0.2,1.4,0.5c0.4,0.4,0.7,0.9,0.7,1.7
		c0.2,5.1,0.3,10.1,0.4,15.2c0.1,5.1,0.3,10.3,0.6,15.8c-0.1,0.6-0.3,1.1-0.8,1.4c-0.4,0.3-0.9,0.5-1.4,0.5c-0.5,0-1-0.1-1.4-0.4
		c-0.4-0.3-0.7-0.8-0.8-1.4l-0.3-4.4c-1.4,1.3-3.1,2.1-5.1,2.7c-2,0.5-4.3,0.5-7-0.2c-1.6-0.4-3-1-4.1-1.9c-1.1-0.9-2.1-1.9-2.8-3.1
		c-0.7-1.2-1.2-2.5-1.6-3.9c-0.3-1.4-0.4-2.9-0.3-4.4c0.1-1.7,0.5-3.4,1.1-5.1c0.6-1.6,1.5-3.1,2.6-4.4c1.1-1.3,2.4-2.3,4-3
		c1.6-0.7,3.4-1.1,5.3-1.1c1.4,0.1,2.7,0.4,3.9,0.9c1.2,0.6,2.3,1.3,3.3,2.2c-0.1-0.8-0.1-1.7-0.1-2.6
		C929.1,44.5,929.1,43.6,929.1,42.7z M918.9,67.5c1.2,0.5,2.4,0.6,3.5,0.4s2.2-0.6,3.2-1.3c0.9-0.7,1.8-1.5,2.5-2.5
		c0.7-1,1.2-2.1,1.5-3.2l-0.2-5c-0.5-1.7-1.2-3-2.2-4c-1-1-2.1-1.7-3.3-2.1c-1.2-0.4-2.4-0.5-3.7-0.3c-1.3,0.2-2.4,0.7-3.5,1.5
		c-1,0.8-1.9,1.9-2.5,3.3c-0.7,1.4-1,3.1-0.9,5.1c0.1,1.7,0.5,3.4,1.4,4.9C915.6,65.7,917,66.8,918.9,67.5z"/>
	<path class="st0" d="M943.4,44.3c0-0.8,0.2-1.3,0.7-1.7c0.4-0.4,0.9-0.5,1.5-0.5c0.6,0,1.1,0.2,1.5,0.5c0.4,0.4,0.7,0.9,0.7,1.7
		l0,4.1c1-0.9,2-1.6,3.3-2.1c1.2-0.5,2.5-0.8,3.7-0.8s2.5,0.3,3.7,0.9c1.2,0.6,2.3,1.5,3.2,2.8c0.4,0.7,0.6,1.3,0.5,1.9
		c-0.1,0.6-0.3,1.1-0.6,1.4c-0.4,0.3-0.8,0.5-1.4,0.4c-0.6-0.1-1.1-0.4-1.7-1.1c-1.3-1.7-2.9-2.4-4.7-2.2c-1.8,0.2-3.3,1.4-4.5,3.4
		c-0.5,1-0.8,2.2-1,3.6c-0.2,1.4-0.3,2.8-0.4,4.4l0.1,12.3c0,0.7-0.2,1.1-0.7,1.4c-0.5,0.3-1,0.4-1.5,0.4c-0.5,0-1-0.1-1.5-0.4
		c-0.5-0.3-0.7-0.8-0.7-1.4L943.4,44.3z"/>
	<path class="st0" d="M977.5,47.8l0.4,25.9c-0.1,0.7-0.3,1.1-0.7,1.4c-0.4,0.3-0.9,0.4-1.4,0.4c-0.5,0-1-0.1-1.5-0.4
		c-0.5-0.3-0.7-0.8-0.8-1.4L973.2,48l-6.5,0.1c-0.7,0-1.3-0.2-1.7-0.6c-0.4-0.4-0.7-0.8-0.7-1.3c-0.1-0.5,0.1-0.9,0.4-1.4
		c0.4-0.4,0.9-0.7,1.7-0.7l6.7-0.2l-0.2-15.8c0-0.8,0.2-1.3,0.7-1.7c0.4-0.4,0.9-0.5,1.5-0.5c0.5,0,1,0.2,1.5,0.5
		c0.5,0.4,0.7,0.9,0.7,1.7l0.2,15.8l7.5-0.2c0.7,0,1.2,0.2,1.5,0.6c0.4,0.4,0.6,0.8,0.6,1.3c0.1,0.5-0.1,1-0.4,1.4
		c-0.3,0.4-0.8,0.6-1.4,0.6L977.5,47.8z"/>
	<path class="st0" d="M1018.5,56.3c-0.8,0.5-2.3,0.9-4.3,1.3c-2.1,0.4-4.3,0.8-6.7,1.2c-2.4,0.4-4.7,0.7-7,0.9
		c-2.3,0.2-4,0.4-5.3,0.4c0.1,1.7,0.5,3.2,1.1,4.6c0.6,1.4,1.4,2.6,2.3,3.5s2.1,1.6,3.4,2.1c1.3,0.4,2.7,0.5,4.3,0.2
		c1.8-0.3,3.5-1,5-2c1.5-1,3-2.5,4.5-4.5c0.5-0.5,1-0.8,1.6-0.9c0.6-0.1,1.1,0.1,1.6,0.4s0.8,0.7,0.9,1.2c0.2,0.5,0.1,1.1-0.2,1.7
		c-2,2.6-4.1,4.6-6.1,5.8c-2.1,1.3-4.1,2.1-6.2,2.5c-2.2,0.4-4.3,0.3-6.3-0.2c-2-0.6-3.8-1.6-5.3-3c-1.5-1.4-2.7-3.2-3.6-5.3
		c-0.9-2.1-1.3-4.6-1.3-7.3c0-2,0.2-3.9,0.7-5.8c0.4-1.9,1.1-3.7,2.1-5.2c1-1.6,2.2-2.9,3.7-4c1.5-1.1,3.4-1.8,5.6-2.1
		c1.9-0.2,3.7-0.1,5.6,0.3c1.8,0.4,3.5,1.2,5,2.3c1.5,1.1,2.7,2.4,3.8,4.1c1,1.7,1.7,3.6,2,5.8C1019.3,55.3,1019.1,56,1018.5,56.3z
		 M1002.7,46.2c-1.2,0.2-2.2,0.7-3.1,1.3c-0.9,0.6-1.6,1.4-2.2,2.2c-0.6,0.8-1.1,1.8-1.4,2.8s-0.6,2.1-0.7,3.3
		c3.4,0,6.6-0.3,9.7-0.8c3.1-0.5,6.3-1.2,9.5-1.9c-0.2-1.1-0.7-2.2-1.4-3.2c-0.7-1-1.6-1.8-2.6-2.5c-1-0.7-2.2-1.1-3.6-1.3
		C1005.7,45.9,1004.3,45.9,1002.7,46.2z"/>
</g>
<g>
	<path d="M45.7,22.4c0.7,0,1.2,0.2,1.5,0.7c0.3,0.4,0.4,1,0.4,1.5c0,0.6-0.2,1.1-0.5,1.5c-0.4,0.4-0.9,0.7-1.5,0.7l-11.8,0.1
		L33.4,73c0,0.8-0.2,1.4-0.7,1.8c-0.5,0.4-1,0.7-1.5,0.8c-0.5,0.1-1.1-0.1-1.5-0.4c-0.5-0.3-0.7-0.9-0.7-1.7l0.4-46.6l-11.6,0.1
		c-0.8-0.1-1.3-0.3-1.7-0.8c-0.4-0.5-0.5-1-0.5-1.5c0-0.5,0.2-1,0.6-1.5c0.4-0.4,1-0.7,1.7-0.7L45.7,22.4z"/>
	<path d="M49.5,44.3c0-0.8,0.2-1.3,0.7-1.7c0.4-0.4,0.9-0.5,1.5-0.5c0.6,0,1.1,0.2,1.5,0.5c0.4,0.4,0.7,0.9,0.7,1.7l0,4.1
		c1-0.9,2-1.6,3.3-2.1c1.2-0.5,2.5-0.8,3.7-0.8c1.3,0,2.5,0.3,3.7,0.9c1.2,0.6,2.3,1.5,3.2,2.8c0.4,0.7,0.6,1.3,0.5,1.9
		c-0.1,0.6-0.3,1.1-0.6,1.4c-0.4,0.3-0.8,0.5-1.4,0.4c-0.6-0.1-1.1-0.4-1.7-1.1c-1.3-1.7-2.9-2.4-4.7-2.2c-1.9,0.2-3.3,1.4-4.5,3.4
		c-0.5,1-0.8,2.2-1,3.6c-0.2,1.4-0.3,2.8-0.4,4.4L54,73.3c0,0.7-0.2,1.1-0.7,1.4c-0.5,0.3-1,0.4-1.5,0.4s-1-0.1-1.5-0.4
		c-0.5-0.3-0.7-0.8-0.7-1.4L49.5,44.3z"/>
	<path d="M86.1,73.5c-2.4,0.1-4.5-0.3-6.2-1.1c-1.8-0.8-3.3-1.8-4.4-3.2c-1.2-1.3-2-2.9-2.5-4.6c-0.5-1.7-0.8-3.5-0.8-5.3
		c0-1.8,0.3-3.5,0.9-5.2c0.6-1.7,1.5-3.2,2.6-4.5c1.2-1.3,2.6-2.4,4.3-3.2c1.7-0.8,3.7-1.2,5.9-1.3c2.3,0,4.3,0.4,6,1.2
		c1.7,0.8,3.2,1.9,4.3,3.2c1.1,1.3,2,2.9,2.5,4.6c0.5,1.7,0.8,3.5,0.8,5.3c0,1.7-0.3,3.4-0.8,5.1c-0.6,1.6-1.4,3.1-2.5,4.4
		c-1.1,1.3-2.5,2.4-4.2,3.2C90.2,73.1,88.3,73.5,86.1,73.5z M86.1,69.3c1.5,0,2.8-0.3,3.9-0.8c1.1-0.5,2-1.3,2.8-2.2
		c0.7-0.9,1.3-2,1.7-3.2c0.4-1.2,0.5-2.4,0.5-3.7c0-1.3-0.2-2.5-0.6-3.7c-0.4-1.2-1-2.3-1.8-3.2c-0.8-0.9-1.8-1.7-3-2.2
		c-1.2-0.5-2.5-0.8-4-0.8c-1.5,0.1-2.8,0.4-3.9,1c-1.1,0.6-2.1,1.4-2.8,2.3c-0.7,0.9-1.3,2-1.7,3.1c-0.4,1.2-0.6,2.4-0.6,3.6
		c0.1,2.4,0.9,4.6,2.5,6.6C80.7,68.1,83.1,69.2,86.1,69.3z"/>
	<path d="M107.6,35.8c0-0.7,0.2-1.2,0.6-1.6c0.4-0.4,0.9-0.6,1.5-0.6c0.7,0,1.2,0.2,1.6,0.6c0.4,0.4,0.6,1,0.6,1.6
		c0,0.6-0.2,1.1-0.6,1.5c-0.4,0.4-1,0.6-1.6,0.6c-0.6,0-1.1-0.2-1.5-0.6C107.8,36.9,107.6,36.4,107.6,35.8z M107.6,44.9
		c0-0.8,0.2-1.3,0.7-1.7c0.5-0.4,1-0.5,1.6-0.5c0.6,0,1.1,0.2,1.6,0.5c0.5,0.4,0.7,0.9,0.7,1.7c0,2.7,0,5.2,0,7.6
		c0,2.4,0.1,4.7,0.1,7.1c0.1,2.3,0.1,4.7,0.1,7.1c0,2.4,0,4.9,0,7.6c0,0.7-0.2,1.1-0.7,1.5c-0.5,0.3-1,0.5-1.6,0.5
		c-0.6,0-1.1-0.2-1.6-0.5c-0.5-0.3-0.7-0.8-0.7-1.5c0-2.7,0-5.2,0-7.6c0-2.4-0.1-4.7-0.1-7.1c0-2.3-0.1-4.7-0.1-7.1
		C107.6,50.1,107.6,47.5,107.6,44.9z"/>
	<path d="M124.5,68.1c0.9,0.9,2.2,1.6,3.9,2.1c1.7,0.5,3.5,0.7,5.2,0.7c1.7-0.1,3.3-0.4,4.6-1.1c1.3-0.7,2-1.7,2-3.1
		c0-1.3-0.4-2.3-1.3-3c-0.9-0.7-2-1.3-3.3-1.7c-1.3-0.4-2.7-0.8-4.3-1.2c-1.6-0.3-3-0.8-4.3-1.3c-1.3-0.5-2.5-1.3-3.5-2.1
		c-1-0.9-1.5-2.1-1.7-3.8c-0.1-1.7,0.1-3.1,0.7-4.4c0.6-1.3,1.4-2.3,2.5-3.2c1-0.9,2.2-1.5,3.6-2c1.3-0.4,2.7-0.7,4.2-0.9
		c2-0.1,3.9,0.2,5.7,1c1.8,0.8,3.2,1.9,4.1,3.3c0.4,0.5,0.5,1.1,0.4,1.6c-0.1,0.5-0.4,0.9-0.8,1.2c-0.4,0.3-0.9,0.4-1.4,0.4
		c-0.5-0.1-1-0.4-1.5-0.9c-0.8-0.8-1.8-1.5-3-1.9c-1.3-0.4-2.5-0.6-3.8-0.5c-1.7,0.2-3.1,0.7-4.4,1.6c-1.3,0.9-1.9,2.1-1.8,3.6
		c0,1,0.5,1.8,1.4,2.3c0.9,0.5,2.1,1,3.5,1.4c1.4,0.4,2.9,0.8,4.5,1.3c1.6,0.4,3.1,1,4.4,1.7c1.3,0.7,2.5,1.7,3.3,3
		c0.9,1.2,1.3,2.8,1.2,4.9c-0.1,1.6-0.6,3-1.5,4.1c-0.9,1.1-2.1,2-3.5,2.7c-1.4,0.7-3,1.1-4.7,1.3c-1.7,0.2-3.5,0.3-5.2,0.1
		c-1.7-0.2-3.3-0.6-4.8-1.1c-1.5-0.6-2.7-1.3-3.6-2.3c-0.5-0.5-0.8-1.1-0.7-1.8c0.1-0.7,0.3-1.2,0.7-1.7c0.4-0.4,0.9-0.7,1.5-0.8
		C123.4,67.5,124,67.7,124.5,68.1z"/>
	<path d="M181.5,50.9c1.1-2.1,2.4-3.8,4.1-5.2c1.6-1.4,3.7-2.1,6.2-2.1c1.6,0,2.9,0.4,4,1.1c1.1,0.7,2.1,1.6,2.9,2.8
		c0.8,1.1,1.5,2.4,2,3.8c0.5,1.4,1,2.8,1.3,4.1c0.2-1,0.6-2.1,1.2-3.4c0.6-1.3,1.3-2.5,2.1-3.7c0.9-1.2,1.9-2.2,3-3
		c1.2-0.8,2.4-1.3,3.8-1.3c2-0.1,3.6,0.3,5,1.1c1.4,0.8,2.5,1.9,3.4,3.4c0.9,1.4,1.6,3.1,2.1,5.1c0.5,1.9,0.9,4,1.2,6.2
		c0.3,2.2,0.4,4.4,0.5,6.7c0.1,2.3,0.1,4.6,0.1,6.8c0,0.7-0.2,1.1-0.7,1.4c-0.4,0.3-1,0.4-1.5,0.4c-0.6,0-1.1-0.1-1.5-0.4
		c-0.4-0.3-0.7-0.8-0.7-1.4c-0.1-2.7-0.1-5.5-0.2-8.5c-0.1-3-0.4-5.7-0.8-8.1c-0.4-2.4-1.1-4.5-2.1-6.1c-1-1.6-2.3-2.4-4.1-2.3
		c-1.6,0.1-2.9,0.7-4,2.1c-1.1,1.3-2.1,3.1-2.8,5.4c-0.7,2.3-1.3,5-1.6,8.1c-0.3,3.1-0.4,6.4-0.2,10c0,0.5-0.2,1-0.7,1.3
		c-0.4,0.3-0.9,0.5-1.5,0.6c-0.5,0.1-1-0.1-1.5-0.4c-0.5-0.3-0.7-0.9-0.7-1.6c-0.2-2.9-0.4-5.9-0.6-9c-0.2-3.1-0.6-5.9-1.1-8.4
		c-0.5-2.5-1.3-4.6-2.3-6.1c-1-1.6-2.4-2.3-4.2-2.3c-1.5,0-2.8,0.5-3.8,1.4c-1,1-1.9,2.2-2.6,3.7c-0.7,1.5-1.2,3.2-1.6,5.1
		c-0.4,1.9-0.6,3.9-0.8,5.8c-0.2,2-0.3,3.9-0.3,5.7c0,1.8,0,3.4,0,4.7c-0.1,0.5-0.4,0.8-0.9,1.1c-0.5,0.2-1,0.4-1.5,0.4
		c-0.5,0-1-0.1-1.5-0.4c-0.4-0.2-0.7-0.6-0.7-1.1c-0.4-4.4-0.6-9.1-0.6-14.1c-0.1-5-0.2-10.1-0.5-15.4c0.1-0.8,0.3-1.3,0.8-1.7
		c0.4-0.4,0.9-0.5,1.5-0.5s1,0.2,1.4,0.5c0.4,0.4,0.7,0.9,0.7,1.7L181.5,50.9z"/>
	<path d="M244.9,73.5c-2.4,0.1-4.5-0.3-6.2-1.1c-1.8-0.8-3.3-1.8-4.4-3.2c-1.2-1.3-2-2.9-2.5-4.6c-0.5-1.7-0.8-3.5-0.8-5.3
		c0-1.8,0.3-3.5,0.9-5.2c0.6-1.7,1.5-3.2,2.6-4.5c1.2-1.3,2.6-2.4,4.3-3.2c1.7-0.8,3.7-1.2,5.9-1.3c2.3,0,4.3,0.4,6,1.2
		c1.7,0.8,3.2,1.9,4.3,3.2c1.1,1.3,2,2.9,2.5,4.6c0.5,1.7,0.8,3.5,0.8,5.3c0,1.7-0.3,3.4-0.8,5.1c-0.6,1.6-1.4,3.1-2.5,4.4
		c-1.1,1.3-2.5,2.4-4.2,3.2C249,73.1,247.1,73.5,244.9,73.5z M245,69.3c1.5,0,2.8-0.3,3.9-0.8c1.1-0.5,2-1.3,2.8-2.2
		c0.7-0.9,1.3-2,1.7-3.2c0.4-1.2,0.5-2.4,0.5-3.7c0-1.3-0.2-2.5-0.6-3.7c-0.4-1.2-1-2.3-1.8-3.2c-0.8-0.9-1.8-1.7-3-2.2
		c-1.2-0.5-2.5-0.8-4-0.8c-1.5,0.1-2.8,0.4-3.9,1c-1.1,0.6-2.1,1.4-2.8,2.3c-0.7,0.9-1.3,2-1.7,3.1c-0.4,1.2-0.6,2.4-0.6,3.6
		c0.1,2.4,0.9,4.6,2.5,6.6C239.6,68.1,241.9,69.2,245,69.3z"/>
	<path d="M266.4,35.8c0-0.7,0.2-1.2,0.6-1.6c0.4-0.4,0.9-0.6,1.5-0.6c0.7,0,1.2,0.2,1.6,0.6c0.4,0.4,0.6,1,0.6,1.6
		c0,0.6-0.2,1.1-0.6,1.5c-0.4,0.4-1,0.6-1.6,0.6c-0.6,0-1.1-0.2-1.5-0.6C266.6,36.9,266.4,36.4,266.4,35.8z M266.4,44.9
		c0-0.8,0.2-1.3,0.7-1.7c0.5-0.4,1-0.5,1.6-0.5c0.6,0,1.1,0.2,1.6,0.5c0.5,0.4,0.7,0.9,0.7,1.7c0,2.7,0,5.2,0,7.6
		c0,2.4,0.1,4.7,0.1,7.1c0.1,2.3,0.1,4.7,0.1,7.1c0,2.4,0,4.9,0,7.6c0,0.7-0.2,1.1-0.7,1.5c-0.5,0.3-1,0.5-1.6,0.5
		c-0.6,0-1.1-0.2-1.6-0.5c-0.5-0.3-0.7-0.8-0.7-1.5c0-2.7,0-5.2,0-7.6c0-2.4-0.1-4.7-0.1-7.1c0-2.3-0.1-4.7-0.1-7.1
		C266.5,50.1,266.4,47.5,266.4,44.9z"/>
	<path d="M283.4,68.1c0.9,0.9,2.2,1.6,3.9,2.1c1.7,0.5,3.5,0.7,5.2,0.7c1.7-0.1,3.3-0.4,4.6-1.1c1.3-0.7,2-1.7,2-3.1
		c0-1.3-0.4-2.3-1.3-3c-0.9-0.7-2-1.3-3.3-1.7c-1.3-0.4-2.7-0.8-4.3-1.2c-1.6-0.3-3-0.8-4.3-1.3c-1.3-0.5-2.5-1.3-3.5-2.1
		c-1-0.9-1.5-2.1-1.7-3.8c-0.1-1.7,0.1-3.1,0.7-4.4c0.6-1.3,1.4-2.3,2.5-3.2c1-0.9,2.2-1.5,3.6-2c1.3-0.4,2.7-0.7,4.2-0.9
		c2-0.1,3.9,0.2,5.7,1c1.8,0.8,3.2,1.9,4.1,3.3c0.4,0.5,0.5,1.1,0.4,1.6c-0.1,0.5-0.4,0.9-0.8,1.2c-0.4,0.3-0.9,0.4-1.4,0.4
		c-0.5-0.1-1-0.4-1.5-0.9c-0.8-0.8-1.8-1.5-3-1.9c-1.3-0.4-2.5-0.6-3.8-0.5c-1.7,0.2-3.1,0.7-4.4,1.6c-1.3,0.9-1.9,2.1-1.8,3.6
		c0,1,0.5,1.8,1.4,2.3c0.9,0.5,2.1,1,3.5,1.4c1.4,0.4,2.9,0.8,4.5,1.3c1.6,0.4,3.1,1,4.4,1.7c1.3,0.7,2.5,1.7,3.3,3
		c0.9,1.2,1.3,2.8,1.2,4.9c-0.1,1.6-0.6,3-1.5,4.1c-0.9,1.1-2.1,2-3.5,2.7c-1.4,0.7-3,1.1-4.7,1.3c-1.7,0.2-3.5,0.3-5.2,0.1
		c-1.7-0.2-3.3-0.6-4.8-1.1c-1.5-0.6-2.7-1.3-3.6-2.3c-0.5-0.5-0.8-1.1-0.7-1.8c0.1-0.7,0.3-1.2,0.7-1.7c0.4-0.4,0.9-0.7,1.5-0.8
		C282.3,67.5,282.8,67.7,283.4,68.1z"/>
	<path d="M312.1,69.3c1.3,1.3,2.1,2.6,2.6,4.1c0.4,1.5,0.6,3,0.4,4.4c-0.2,1.5-0.7,2.8-1.6,4.1c-0.9,1.3-2,2.3-3.4,3.1
		c-0.5,0.4-1,0.4-1.5,0.3c-0.5-0.2-0.9-0.5-1.1-0.9c-0.3-0.4-0.4-0.9-0.3-1.4c0.1-0.5,0.4-0.9,0.9-1.2c1-0.5,1.7-1.2,2.1-2
		c0.5-0.8,0.8-1.7,0.9-2.6s0-1.8-0.3-2.6c-0.3-0.9-0.7-1.7-1.3-2.4c-0.5-0.5-0.7-1-0.6-1.5c0.1-0.5,0.3-1,0.7-1.3
		c0.4-0.4,0.8-0.6,1.3-0.6C311.1,68.7,311.6,68.9,312.1,69.3z"/>
	<path d="M368.8,24.6c0.1-0.8,0.3-1.4,0.7-1.7c0.4-0.4,0.9-0.6,1.4-0.6s1,0.2,1.5,0.6c0.4,0.4,0.7,1,0.8,1.7
		c-0.2,4.4-0.3,8.5-0.4,12.4c-0.1,3.9-0.1,7.9,0,11.7c0,3.9,0.1,7.8,0.1,11.8c0.1,4,0.1,8.1,0.2,12.5c-0.1,0.7-0.4,1.1-0.8,1.5
		c-0.4,0.3-0.9,0.5-1.4,0.5c-0.5,0-1-0.2-1.4-0.5c-0.4-0.3-0.7-0.8-0.8-1.5c0-0.7,0-1.3,0-2c0-0.7,0-1.3,0-2
		c-1.9,1.8-4.2,3.1-6.9,3.7c-2.7,0.6-5.3,0.5-7.9-0.3c-2.5-0.8-4.7-2.3-6.6-4.4c-1.9-2.2-3-5.1-3.3-8.9c-0.2-4.2,0.6-7.5,2.3-10.1
		c1.7-2.5,3.9-4.3,6.5-5.2c2.6-1,5.3-1.1,8.2-0.6c2.9,0.6,5.3,1.9,7.4,4c-0.1-3.6,0-7.3,0-11C368.5,32.6,368.6,28.7,368.8,24.6z
		 M368.3,58.9c-0.1-2.7-0.6-4.9-1.7-6.7c-1.1-1.8-2.4-3.1-4-3.9c-1.6-0.8-3.2-1.2-5-1.1c-1.8,0.1-3.4,0.6-4.8,1.6
		c-1.4,1-2.6,2.3-3.4,4.2c-0.9,1.8-1.1,4.1-0.9,6.8c0.2,2.3,0.9,4.1,2,5.5c1.1,1.4,2.4,2.4,3.9,3c1.5,0.6,3,0.8,4.7,0.7
		c1.7-0.1,3.2-0.6,4.6-1.4c1.4-0.8,2.5-1.9,3.4-3.4C367.9,62.6,368.3,60.9,368.3,58.9z"/>
	<path d="M408,56.3c-0.8,0.5-2.3,0.9-4.3,1.3c-2.1,0.4-4.3,0.8-6.7,1.2c-2.4,0.4-4.7,0.7-7,0.9c-2.3,0.2-4,0.4-5.3,0.4
		c0.1,1.7,0.5,3.2,1.1,4.6c0.6,1.4,1.4,2.6,2.3,3.5c1,0.9,2.1,1.6,3.4,2.1c1.3,0.4,2.7,0.5,4.3,0.2c1.8-0.3,3.5-1,5-2
		c1.5-1,3-2.5,4.5-4.5c0.5-0.5,1-0.8,1.6-0.9c0.6-0.1,1.1,0.1,1.6,0.4c0.4,0.3,0.8,0.7,0.9,1.2c0.2,0.5,0.1,1.1-0.2,1.7
		c-2,2.6-4.1,4.6-6.1,5.8c-2.1,1.3-4.1,2.1-6.2,2.5c-2.2,0.4-4.3,0.3-6.3-0.2c-2-0.6-3.8-1.6-5.3-3c-1.5-1.4-2.7-3.2-3.6-5.3
		c-0.9-2.1-1.3-4.6-1.3-7.3c0-2,0.2-3.9,0.7-5.8c0.4-1.9,1.1-3.7,2.1-5.2c1-1.6,2.2-2.9,3.7-4c1.5-1.1,3.4-1.8,5.6-2.1
		c1.9-0.2,3.7-0.1,5.6,0.3c1.8,0.4,3.5,1.2,5,2.3c1.5,1.1,2.7,2.4,3.8,4.1c1,1.7,1.7,3.6,2,5.8C408.8,55.3,408.6,56,408,56.3z
		 M392.2,46.2c-1.2,0.2-2.2,0.7-3.1,1.3c-0.9,0.6-1.6,1.4-2.2,2.2c-0.6,0.8-1.1,1.8-1.4,2.8c-0.3,1-0.6,2.1-0.7,3.3
		c3.4,0,6.6-0.3,9.7-0.8c3.1-0.5,6.3-1.2,9.5-1.9c-0.2-1.1-0.7-2.2-1.4-3.2c-0.7-1-1.6-1.8-2.6-2.5c-1-0.7-2.2-1.1-3.6-1.3
		C395.2,45.9,393.8,45.9,392.2,46.2z"/>
	<path d="M442.4,45.5c0.1,2.8,0.1,5.1,0.1,6.8c0,1.7,0.1,3.2,0.1,4.3c0,1.2,0,2.2,0,3.1c0,0.9,0,2,0,3.1c0,1.1,0,2.5,0,4.2
		c0,1.6,0,3.8,0,6.5c0,0.7-0.2,1.3-0.7,1.6c-0.5,0.4-1,0.5-1.6,0.5c-0.6,0-1.1-0.2-1.6-0.5c-0.5-0.3-0.7-0.8-0.7-1.5v-4.6
		c-1.1,1.7-2.4,3-4,3.9c-1.6,1-3.6,1.4-5.9,1.4c-2,0.1-3.8-0.3-5.2-1.1c-1.4-0.8-2.6-1.9-3.5-3.3c-0.9-1.4-1.6-3-2.1-4.9
		c-0.5-1.9-0.8-3.9-1.1-6c-0.2-2.1-0.4-4.3-0.4-6.5c0-2.2,0-4.4,0-6.4c0-0.7,0.2-1.2,0.7-1.5c0.4-0.4,0.9-0.6,1.5-0.6
		c0.5,0,1,0.1,1.5,0.4c0.5,0.3,0.7,0.9,0.7,1.6c0.1,2.6,0.1,5.4,0.2,8.2c0.1,2.8,0.3,5.5,0.8,7.9c0.4,2.4,1.2,4.4,2.3,6
		c1.1,1.6,2.7,2.3,4.9,2.3c3.3,0,5.7-1.8,7.2-5.5c1.4-3.6,2.2-8.8,2.2-15.4v-3.8c0-0.7,0.2-1.2,0.7-1.5c0.4-0.4,0.9-0.6,1.5-0.6
		c0.5-0.1,1,0.1,1.5,0.4C442.1,44.3,442.3,44.8,442.4,45.5z"/>
	<path d="M461.2,54.3l6.6-10.1c0.4-0.7,0.9-1,1.5-1.2c0.6-0.1,1.1,0,1.6,0.2c0.4,0.3,0.7,0.7,0.9,1.2c0.1,0.5,0,1.1-0.4,1.8
		l-7.6,11.8l10.7,15.3c0.4,0.5,0.4,1.1,0.3,1.6c-0.2,0.5-0.5,1-1,1.3c-0.5,0.3-1,0.5-1.6,0.4c-0.6,0-1.1-0.3-1.5-0.9l-9.4-13.7
		l-8.1,12.6c-0.4,0.6-0.8,0.9-1.4,0.9c-0.6,0-1.1-0.1-1.6-0.4c-0.5-0.3-0.8-0.7-1-1.2c-0.2-0.5-0.1-1.1,0.3-1.7l9.2-14.1l-8.1-12
		c-0.5-0.7-0.6-1.3-0.4-1.8c0.2-0.5,0.5-0.9,0.9-1.2c0.4-0.3,1-0.3,1.6-0.2c0.6,0.1,1.1,0.5,1.6,1.1L461.2,54.3z"/>
	<path d="M508.4,68.1c0.9,0.9,2.2,1.6,3.9,2.1c1.7,0.5,3.5,0.7,5.2,0.7c1.7-0.1,3.3-0.4,4.6-1.1c1.3-0.7,2-1.7,2-3.1
		c0-1.3-0.4-2.3-1.3-3c-0.9-0.7-2-1.3-3.3-1.7c-1.3-0.4-2.7-0.8-4.3-1.2c-1.6-0.3-3-0.8-4.3-1.3c-1.3-0.5-2.5-1.3-3.5-2.1
		c-1-0.9-1.5-2.1-1.7-3.8c-0.1-1.7,0.1-3.1,0.7-4.4c0.6-1.3,1.4-2.3,2.5-3.2c1-0.9,2.2-1.5,3.6-2c1.3-0.4,2.7-0.7,4.2-0.9
		c2-0.1,3.9,0.2,5.7,1c1.8,0.8,3.2,1.9,4.1,3.3c0.4,0.5,0.5,1.1,0.4,1.6c-0.1,0.5-0.4,0.9-0.8,1.2c-0.4,0.3-0.9,0.4-1.4,0.4
		c-0.5-0.1-1-0.4-1.5-0.9c-0.8-0.8-1.8-1.5-3-1.9c-1.3-0.4-2.5-0.6-3.8-0.5c-1.7,0.2-3.1,0.7-4.4,1.6c-1.3,0.9-1.9,2.1-1.8,3.6
		c0,1,0.5,1.8,1.4,2.3c0.9,0.5,2.1,1,3.5,1.4c1.4,0.4,2.9,0.8,4.5,1.3c1.6,0.4,3.1,1,4.4,1.7c1.3,0.7,2.5,1.7,3.3,3
		c0.9,1.2,1.3,2.8,1.2,4.9c-0.1,1.6-0.6,3-1.5,4.1c-0.9,1.1-2.1,2-3.5,2.7c-1.4,0.7-3,1.1-4.7,1.3c-1.7,0.2-3.5,0.3-5.2,0.1
		c-1.7-0.2-3.3-0.6-4.8-1.1c-1.5-0.6-2.7-1.3-3.6-2.3c-0.5-0.5-0.8-1.1-0.7-1.8c0.1-0.7,0.3-1.2,0.7-1.7c0.4-0.4,0.9-0.7,1.5-0.8
		C507.3,67.5,507.8,67.7,508.4,68.1z"/>
	<path d="M554,42.7c0.1-0.8,0.3-1.3,0.8-1.7c0.4-0.4,0.9-0.5,1.5-0.5c0.5,0,1,0.2,1.4,0.5c0.4,0.4,0.7,0.9,0.7,1.7
		c0.2,5.1,0.3,10.1,0.4,15.2c0.1,5.1,0.3,10.3,0.6,15.8c-0.1,0.6-0.3,1.1-0.8,1.4c-0.4,0.3-0.9,0.5-1.4,0.5c-0.5,0-1-0.1-1.4-0.4
		c-0.4-0.3-0.7-0.8-0.8-1.4l-0.3-4.4c-1.4,1.3-3.1,2.1-5.1,2.7c-2,0.5-4.3,0.5-7-0.2c-1.6-0.4-3-1-4.1-1.9c-1.1-0.9-2.1-1.9-2.8-3.1
		c-0.7-1.2-1.2-2.5-1.6-3.9c-0.3-1.4-0.4-2.9-0.3-4.4c0.1-1.7,0.5-3.4,1.1-5.1c0.6-1.6,1.5-3.1,2.6-4.4c1.1-1.3,2.4-2.3,4-3
		c1.6-0.7,3.4-1.1,5.3-1.1c1.4,0.1,2.7,0.4,3.9,0.9c1.2,0.6,2.3,1.3,3.3,2.2c-0.1-0.8-0.1-1.7-0.1-2.6C554,44.5,554,43.6,554,42.7z
		 M543.8,67.5c1.2,0.5,2.4,0.6,3.5,0.4c1.2-0.2,2.2-0.6,3.2-1.3c0.9-0.7,1.8-1.5,2.5-2.5c0.7-1,1.2-2.1,1.5-3.2l-0.2-5
		c-0.5-1.7-1.2-3-2.2-4c-1-1-2.1-1.7-3.3-2.1c-1.2-0.4-2.4-0.5-3.7-0.3c-1.3,0.2-2.4,0.7-3.5,1.5c-1,0.8-1.9,1.9-2.5,3.3
		c-0.7,1.4-1,3.1-0.9,5.1c0.1,1.7,0.5,3.4,1.4,4.9C540.5,65.7,541.9,66.8,543.8,67.5z"/>
	<path d="M569.3,35.8c0-0.7,0.2-1.2,0.6-1.6c0.4-0.4,0.9-0.6,1.5-0.6c0.7,0,1.2,0.2,1.6,0.6c0.4,0.4,0.6,1,0.6,1.6
		c0,0.6-0.2,1.1-0.6,1.5c-0.4,0.4-1,0.6-1.6,0.6c-0.6,0-1.1-0.2-1.5-0.6C569.5,36.9,569.3,36.4,569.3,35.8z M569.3,44.9
		c0-0.8,0.2-1.3,0.7-1.7c0.5-0.4,1-0.5,1.6-0.5s1.1,0.2,1.6,0.5c0.5,0.4,0.7,0.9,0.7,1.7c0,2.7,0,5.2,0,7.6c0,2.4,0.1,4.7,0.1,7.1
		c0.1,2.3,0.1,4.7,0.1,7.1c0,2.4,0,4.9,0,7.6c0,0.7-0.2,1.1-0.7,1.5c-0.5,0.3-1,0.5-1.6,0.5s-1.1-0.2-1.6-0.5
		c-0.5-0.3-0.7-0.8-0.7-1.5c0-2.7,0-5.2,0-7.6c0-2.4-0.1-4.7-0.1-7.1c0-2.3-0.1-4.7-0.1-7.1C569.3,50.1,569.3,47.5,569.3,44.9z"/>
	<path d="M586.2,68.1c0.9,0.9,2.2,1.6,3.9,2.1c1.7,0.5,3.5,0.7,5.2,0.7c1.7-0.1,3.3-0.4,4.6-1.1c1.3-0.7,2-1.7,2-3.1
		c0-1.3-0.4-2.3-1.3-3s-2-1.3-3.3-1.7c-1.3-0.4-2.7-0.8-4.3-1.2c-1.6-0.3-3-0.8-4.3-1.3c-1.3-0.5-2.5-1.3-3.5-2.1
		c-1-0.9-1.5-2.1-1.7-3.8c-0.1-1.7,0.1-3.1,0.7-4.4c0.6-1.3,1.4-2.3,2.5-3.2c1-0.9,2.2-1.5,3.6-2c1.3-0.4,2.7-0.7,4.2-0.9
		c2-0.1,3.9,0.2,5.7,1c1.8,0.8,3.2,1.9,4.1,3.3c0.4,0.5,0.5,1.1,0.4,1.6c-0.1,0.5-0.4,0.9-0.8,1.2c-0.4,0.3-0.9,0.4-1.4,0.4
		c-0.5-0.1-1-0.4-1.5-0.9c-0.8-0.8-1.8-1.5-3-1.9c-1.3-0.4-2.5-0.6-3.8-0.5c-1.7,0.2-3.1,0.7-4.4,1.6c-1.3,0.9-1.8,2.1-1.8,3.6
		c0,1,0.5,1.8,1.4,2.3c0.9,0.5,2.1,1,3.5,1.4c1.4,0.4,2.9,0.8,4.5,1.3c1.6,0.4,3.1,1,4.4,1.7c1.3,0.7,2.5,1.7,3.3,3
		c0.9,1.2,1.3,2.8,1.2,4.9c-0.1,1.6-0.6,3-1.5,4.1c-0.9,1.1-2.1,2-3.5,2.7c-1.4,0.7-3,1.1-4.7,1.3c-1.7,0.2-3.5,0.3-5.2,0.1
		c-1.7-0.2-3.3-0.6-4.8-1.1c-1.5-0.6-2.7-1.3-3.6-2.3c-0.5-0.5-0.8-1.1-0.7-1.8c0.1-0.7,0.3-1.2,0.7-1.7c0.4-0.4,0.9-0.7,1.5-0.8
		C585.1,67.5,585.6,67.7,586.2,68.1z"/>
	<path d="M625.7,73.5c-2.4,0.1-4.5-0.3-6.2-1.1c-1.8-0.8-3.3-1.8-4.4-3.2c-1.2-1.3-2-2.9-2.5-4.6c-0.5-1.7-0.8-3.5-0.8-5.3
		c0-1.8,0.3-3.5,0.9-5.2c0.6-1.7,1.5-3.2,2.6-4.5c1.2-1.3,2.6-2.4,4.3-3.2c1.7-0.8,3.7-1.2,5.9-1.3c2.3,0,4.3,0.4,6,1.2
		c1.7,0.8,3.2,1.9,4.3,3.2c1.1,1.3,2,2.9,2.5,4.6c0.5,1.7,0.8,3.5,0.8,5.3c0,1.7-0.3,3.4-0.8,5.1c-0.6,1.6-1.4,3.1-2.5,4.4
		c-1.1,1.3-2.5,2.4-4.2,3.2C629.8,73.1,627.9,73.5,625.7,73.5z M625.8,69.3c1.5,0,2.8-0.3,3.9-0.8c1.1-0.5,2-1.3,2.8-2.2
		c0.7-0.9,1.3-2,1.7-3.2c0.4-1.2,0.5-2.4,0.5-3.7c0-1.3-0.2-2.5-0.6-3.7c-0.4-1.2-1-2.3-1.8-3.2c-0.8-0.9-1.8-1.7-3-2.2
		c-1.2-0.5-2.5-0.8-4-0.8c-1.5,0.1-2.8,0.4-3.9,1c-1.1,0.6-2.1,1.4-2.8,2.3c-0.7,0.9-1.3,2-1.7,3.1s-0.6,2.4-0.6,3.6
		c0.1,2.4,0.9,4.6,2.5,6.6C620.4,68.1,622.7,69.2,625.8,69.3z"/>
	<path d="M650.6,75c-0.4,0.4-1,0.6-1.5,0.6c-0.6,0-1.1-0.2-1.5-0.6c-0.4-0.4-0.7-0.9-0.7-1.7c0-5.2-0.1-10.2-0.3-14.9
		c-0.2-4.7-0.3-9.5-0.3-14.4c0-0.7,0.2-1.3,0.7-1.7c0.4-0.4,0.9-0.6,1.5-0.6c0.5,0,1,0.2,1.5,0.6c0.5,0.4,0.7,0.9,0.7,1.7l0.1,4.4
		c1-1.4,2.2-2.5,3.7-3.3c1.4-0.8,3.2-1.3,5.3-1.4c2.6-0.1,4.8,0.5,6.5,1.6c1.7,1.2,3.1,2.6,4.2,4.5c1.1,1.8,1.9,3.9,2.4,6.1
		c0.5,2.2,0.8,4.4,0.9,6.6c0.1,1.9,0.2,3.8,0.2,5.6c0,1.8,0,3.4-0.1,4.9c0,0.8-0.2,1.3-0.7,1.7c-0.4,0.4-0.9,0.6-1.5,0.6
		c-0.5,0-1-0.1-1.5-0.4c-0.4-0.3-0.7-0.8-0.7-1.5c-0.1-1.5-0.1-3.2,0-5c0.1-1.8,0-3.7-0.1-5.6c-0.1-1.3-0.2-2.7-0.5-4.4
		c-0.3-1.7-0.8-3.3-1.5-4.8c-0.7-1.5-1.6-2.8-2.8-3.8c-1.2-1-2.6-1.5-4.4-1.5c-2,0.1-3.6,0.7-4.8,1.7c-1.2,1-2.1,2.2-2.7,3.7
		c-0.6,1.5-1,3.1-1.2,5c-0.2,1.8-0.3,3.6-0.3,5.3v9.6C651.3,74,651,74.6,650.6,75z"/>
	<path d="M684.2,68.1c0.9,0.9,2.2,1.6,3.9,2.1c1.7,0.5,3.5,0.7,5.2,0.7c1.7-0.1,3.3-0.4,4.6-1.1s2-1.7,2-3.1c0-1.3-0.4-2.3-1.3-3
		c-0.9-0.7-2-1.3-3.3-1.7c-1.3-0.4-2.7-0.8-4.3-1.2c-1.6-0.3-3-0.8-4.3-1.3c-1.3-0.5-2.5-1.3-3.5-2.1c-1-0.9-1.5-2.1-1.7-3.8
		c-0.1-1.7,0.1-3.1,0.7-4.4c0.6-1.3,1.4-2.3,2.5-3.2c1-0.9,2.2-1.5,3.6-2c1.3-0.4,2.7-0.7,4.2-0.9c2-0.1,3.9,0.2,5.7,1
		c1.8,0.8,3.2,1.9,4.1,3.3c0.4,0.5,0.5,1.1,0.4,1.6c-0.1,0.5-0.4,0.9-0.8,1.2c-0.4,0.3-0.9,0.4-1.4,0.4c-0.5-0.1-1-0.4-1.5-0.9
		c-0.8-0.8-1.8-1.5-3-1.9c-1.3-0.4-2.5-0.6-3.8-0.5c-1.7,0.2-3.1,0.7-4.4,1.6c-1.3,0.9-1.9,2.1-1.8,3.6c0,1,0.5,1.8,1.4,2.3
		c0.9,0.5,2.1,1,3.5,1.4c1.4,0.4,2.9,0.8,4.5,1.3c1.6,0.4,3.1,1,4.4,1.7c1.3,0.7,2.5,1.7,3.3,3s1.3,2.8,1.2,4.9
		c-0.1,1.6-0.6,3-1.5,4.1c-0.9,1.1-2.1,2-3.5,2.7c-1.4,0.7-3,1.1-4.7,1.3c-1.7,0.2-3.5,0.3-5.2,0.1c-1.7-0.2-3.3-0.6-4.8-1.1
		c-1.5-0.6-2.7-1.3-3.6-2.3c-0.5-0.5-0.8-1.1-0.7-1.8c0.1-0.7,0.3-1.2,0.7-1.7c0.4-0.4,0.9-0.7,1.5-0.8S683.7,67.7,684.2,68.1z"/>
	<path d="M735.3,55.2c-0.7,0-1.3-0.2-1.7-0.7c-0.4-0.4-0.6-0.9-0.6-1.5c0-0.5,0.2-1,0.5-1.5c0.4-0.5,0.9-0.7,1.7-0.7l17.2-0.4
		c0.7,0,1.2,0.2,1.5,0.7c0.4,0.4,0.6,1,0.6,1.5c0,0.6-0.1,1.1-0.4,1.5c-0.3,0.4-0.9,0.7-1.6,0.7L735.3,55.2z"/>
	<path d="M787.5,75c-0.7,0-1.3-0.1-1.7-0.4c-0.5-0.3-0.7-0.8-0.7-1.6l0.4-48.6c0-0.8,0.2-1.3,0.7-1.7c0.5-0.4,1-0.5,1.6-0.5
		c0.5,0,1,0.3,1.5,0.7c0.5,0.4,0.7,1,0.7,1.8l-0.4,46l22.9-0.3c0.7,0,1.2,0.2,1.5,0.7c0.4,0.4,0.6,1,0.6,1.5c0,0.6-0.1,1.1-0.4,1.5
		c-0.3,0.4-0.9,0.7-1.6,0.7L787.5,75z"/>
	<path d="M838.2,42.7c0.1-0.8,0.3-1.3,0.8-1.7c0.4-0.4,0.9-0.5,1.5-0.5c0.5,0,1,0.2,1.4,0.5c0.4,0.4,0.7,0.9,0.7,1.7
		c0.2,5.1,0.3,10.1,0.4,15.2c0.1,5.1,0.3,10.3,0.6,15.8c-0.1,0.6-0.3,1.1-0.8,1.4c-0.4,0.3-0.9,0.5-1.4,0.5c-0.5,0-1-0.1-1.4-0.4
		c-0.4-0.3-0.7-0.8-0.8-1.4l-0.3-4.4c-1.4,1.3-3.1,2.1-5.1,2.7c-2,0.5-4.3,0.5-7-0.2c-1.6-0.4-3-1-4.1-1.9c-1.1-0.9-2.1-1.9-2.8-3.1
		c-0.7-1.2-1.2-2.5-1.6-3.9c-0.3-1.4-0.4-2.9-0.3-4.4c0.1-1.7,0.5-3.4,1.1-5.1c0.6-1.6,1.5-3.1,2.6-4.4c1.1-1.3,2.4-2.3,4-3
		c1.6-0.7,3.4-1.1,5.3-1.1c1.4,0.1,2.7,0.4,3.9,0.9c1.2,0.6,2.3,1.3,3.3,2.2c-0.1-0.8-0.1-1.7-0.1-2.6
		C838.2,44.5,838.2,43.6,838.2,42.7z M828,67.5c1.2,0.5,2.4,0.6,3.5,0.4c1.2-0.2,2.2-0.6,3.2-1.3c0.9-0.7,1.8-1.5,2.5-2.5
		c0.7-1,1.2-2.1,1.5-3.2l-0.2-5c-0.5-1.7-1.2-3-2.2-4c-1-1-2.1-1.7-3.3-2.1c-1.2-0.4-2.4-0.5-3.7-0.3c-1.3,0.2-2.4,0.7-3.5,1.5
		c-1,0.8-1.9,1.9-2.5,3.3c-0.7,1.4-1,3.1-0.9,5.1c0.1,1.7,0.5,3.4,1.4,4.9C824.7,65.7,826.1,66.8,828,67.5z"/>
	<path d="M886.7,42.4c1.3-0.2,2.6-0.1,4,0.1c1.3,0.2,2.6,0.7,3.7,1.4c1.1,0.7,2.1,1.6,3,2.7c0.9,1.1,1.5,2.5,1.9,4.1
		c0.2,0.7,0.1,1.2-0.2,1.6c-0.3,0.4-0.7,0.7-1.2,0.8c-0.5,0.1-1,0.1-1.5-0.2c-0.5-0.2-0.9-0.7-1-1.3c-0.7-1.9-1.8-3.4-3.1-4.3
		c-1.4-1-3.1-1.3-5.1-0.9c-1.4,0.2-2.5,0.7-3.4,1.5c-0.9,0.7-1.6,1.6-2.2,2.7c-0.6,1-1,2.2-1.2,3.5c-0.2,1.3-0.3,2.6-0.3,3.9
		c0.1,1.6,0.3,3.1,0.7,4.5c0.4,1.5,1,2.8,1.8,3.9c0.8,1.2,1.7,2.1,2.8,2.8c1.1,0.7,2.3,1.1,3.7,1.1c1.8,0.1,3.7-0.4,5.6-1.3
		c2-0.9,3.9-2.4,5.8-4.5c0.5-0.5,1-0.8,1.6-0.9c0.6,0,1.1,0.1,1.5,0.4c0.4,0.3,0.7,0.7,0.8,1.3c0.1,0.5,0,1-0.4,1.6
		c-1,1.4-2.1,2.5-3.4,3.5c-1.3,1-2.6,1.8-3.9,2.4c-1.3,0.6-2.7,1.1-4,1.4c-1.3,0.3-2.5,0.5-3.7,0.5c-2.1,0-4-0.5-5.7-1.5
		c-1.6-1-3-2.2-4.1-3.8c-1.1-1.5-1.9-3.3-2.5-5.3c-0.5-2-0.8-4-0.8-6.1c0-1.8,0.2-3.6,0.6-5.3c0.4-1.8,1-3.4,1.9-4.8
		c0.9-1.5,2-2.7,3.4-3.7C883,43.4,884.7,42.7,886.7,42.4z"/>
	<path d="M929.1,42.7c0.1-0.8,0.3-1.3,0.8-1.7c0.4-0.4,0.9-0.5,1.5-0.5c0.5,0,1,0.2,1.4,0.5c0.4,0.4,0.7,0.9,0.7,1.7
		c0.2,5.1,0.3,10.1,0.4,15.2c0.1,5.1,0.3,10.3,0.6,15.8c-0.1,0.6-0.3,1.1-0.8,1.4c-0.4,0.3-0.9,0.5-1.4,0.5c-0.5,0-1-0.1-1.4-0.4
		c-0.4-0.3-0.7-0.8-0.8-1.4l-0.3-4.4c-1.4,1.3-3.1,2.1-5.1,2.7c-2,0.5-4.3,0.5-7-0.2c-1.6-0.4-3-1-4.1-1.9c-1.1-0.9-2.1-1.9-2.8-3.1
		c-0.7-1.2-1.2-2.5-1.6-3.9c-0.3-1.4-0.4-2.9-0.3-4.4c0.1-1.7,0.5-3.4,1.1-5.1c0.6-1.6,1.5-3.1,2.6-4.4c1.1-1.3,2.4-2.3,4-3
		c1.6-0.7,3.4-1.1,5.3-1.1c1.4,0.1,2.7,0.4,3.9,0.9c1.2,0.6,2.3,1.3,3.3,2.2c-0.1-0.8-0.1-1.7-0.1-2.6
		C929.1,44.5,929.1,43.6,929.1,42.7z M918.9,67.5c1.2,0.5,2.4,0.6,3.5,0.4s2.2-0.6,3.2-1.3c0.9-0.7,1.8-1.5,2.5-2.5
		c0.7-1,1.2-2.1,1.5-3.2l-0.2-5c-0.5-1.7-1.2-3-2.2-4c-1-1-2.1-1.7-3.3-2.1c-1.2-0.4-2.4-0.5-3.7-0.3c-1.3,0.2-2.4,0.7-3.5,1.5
		c-1,0.8-1.9,1.9-2.5,3.3c-0.7,1.4-1,3.1-0.9,5.1c0.1,1.7,0.5,3.4,1.4,4.9C915.6,65.7,917,66.8,918.9,67.5z"/>
	<path d="M943.4,44.3c0-0.8,0.2-1.3,0.7-1.7c0.4-0.4,0.9-0.5,1.5-0.5c0.6,0,1.1,0.2,1.5,0.5c0.4,0.4,0.7,0.9,0.7,1.7l0,4.1
		c1-0.9,2-1.6,3.3-2.1c1.2-0.5,2.5-0.8,3.7-0.8s2.5,0.3,3.7,0.9c1.2,0.6,2.3,1.5,3.2,2.8c0.4,0.7,0.6,1.3,0.5,1.9
		c-0.1,0.6-0.3,1.1-0.6,1.4c-0.4,0.3-0.8,0.5-1.4,0.4c-0.6-0.1-1.1-0.4-1.7-1.1c-1.3-1.7-2.9-2.4-4.7-2.2c-1.8,0.2-3.3,1.4-4.5,3.4
		c-0.5,1-0.8,2.2-1,3.6c-0.2,1.4-0.3,2.8-0.4,4.4l0.1,12.3c0,0.7-0.2,1.1-0.7,1.4c-0.5,0.3-1,0.4-1.5,0.4c-0.5,0-1-0.1-1.5-0.4
		c-0.5-0.3-0.7-0.8-0.7-1.4L943.4,44.3z"/>
	<path d="M977.5,47.8l0.4,25.9c-0.1,0.7-0.3,1.1-0.7,1.4c-0.4,0.3-0.9,0.4-1.4,0.4c-0.5,0-1-0.1-1.5-0.4c-0.5-0.3-0.7-0.8-0.8-1.4
		L973.2,48l-6.5,0.1c-0.7,0-1.3-0.2-1.7-0.6c-0.4-0.4-0.7-0.8-0.7-1.3c-0.1-0.5,0.1-0.9,0.4-1.4c0.4-0.4,0.9-0.7,1.7-0.7l6.7-0.2
		l-0.2-15.8c0-0.8,0.2-1.3,0.7-1.7c0.4-0.4,0.9-0.5,1.5-0.5c0.5,0,1,0.2,1.5,0.5c0.5,0.4,0.7,0.9,0.7,1.7l0.2,15.8l7.5-0.2
		c0.7,0,1.2,0.2,1.5,0.6c0.4,0.4,0.6,0.8,0.6,1.3c0.1,0.5-0.1,1-0.4,1.4c-0.3,0.4-0.8,0.6-1.4,0.6L977.5,47.8z"/>
	<path d="M1018.5,56.3c-0.8,0.5-2.3,0.9-4.3,1.3c-2.1,0.4-4.3,0.8-6.7,1.2c-2.4,0.4-4.7,0.7-7,0.9c-2.3,0.2-4,0.4-5.3,0.4
		c0.1,1.7,0.5,3.2,1.1,4.6c0.6,1.4,1.4,2.6,2.3,3.5s2.1,1.6,3.4,2.1c1.3,0.4,2.7,0.5,4.3,0.2c1.8-0.3,3.5-1,5-2c1.5-1,3-2.5,4.5-4.5
		c0.5-0.5,1-0.8,1.6-0.9c0.6-0.1,1.1,0.1,1.6,0.4s0.8,0.7,0.9,1.2c0.2,0.5,0.1,1.1-0.2,1.7c-2,2.6-4.1,4.6-6.1,5.8
		c-2.1,1.3-4.1,2.1-6.2,2.5c-2.2,0.4-4.3,0.3-6.3-0.2c-2-0.6-3.8-1.6-5.3-3c-1.5-1.4-2.7-3.2-3.6-5.3c-0.9-2.1-1.3-4.6-1.3-7.3
		c0-2,0.2-3.9,0.7-5.8c0.4-1.9,1.1-3.7,2.1-5.2c1-1.6,2.2-2.9,3.7-4c1.5-1.1,3.4-1.8,5.6-2.1c1.9-0.2,3.7-0.1,5.6,0.3
		c1.8,0.4,3.5,1.2,5,2.3c1.5,1.1,2.7,2.4,3.8,4.1c1,1.7,1.7,3.6,2,5.8C1019.3,55.3,1019.1,56,1018.5,56.3z M1002.7,46.2
		c-1.2,0.2-2.2,0.7-3.1,1.3c-0.9,0.6-1.6,1.4-2.2,2.2c-0.6,0.8-1.1,1.8-1.4,2.8s-0.6,2.1-0.7,3.3c3.4,0,6.6-0.3,9.7-0.8
		c3.1-0.5,6.3-1.2,9.5-1.9c-0.2-1.1-0.7-2.2-1.4-3.2c-0.7-1-1.6-1.8-2.6-2.5c-1-0.7-2.2-1.1-3.6-1.3
		C1005.7,45.9,1004.3,45.9,1002.7,46.2z"/>
</g>
</svg>
